<svg width="275" height="133" viewBox="0 0 275 133" fill="none" xmlns="http://www.w3.org/2000/svg">
<path d="M69.014 72.0589C70.6553 72.0488 72.2524 72.5896 73.5482 73.5943C74.8441 74.599 75.7633 76.0092 76.1582 77.5981C76.5531 79.1869 76.4006 80.8621 75.7253 82.3541C75.0499 83.846 73.891 85.0681 72.435 85.8236L70.9014 86.4118C68.823 87.188 66.5853 87.4437 64.3847 87.1565C62.184 86.8693 60.0877 86.0481 58.2794 84.7648C56.5352 83.4773 55.0872 81.8327 54.0327 79.9413C52.1666 78.8966 50.5235 77.4978 49.1962 75.8236C47.9188 74.0159 47.1011 71.9256 46.8134 69.7327C46.5257 67.5398 46.7767 65.3101 47.5447 63.2354C47.8765 61.9084 48.5757 60.7012 49.5624 59.7515C50.5491 58.8018 51.7837 58.1479 53.1252 57.8645C54.4667 57.581 55.8611 57.6794 57.1493 58.1484C58.4374 58.6174 59.5674 59.4381 60.4102 60.5168C61.2531 61.5956 61.7749 62.889 61.916 64.2493C62.0572 65.6097 61.812 66.9822 61.2085 68.2102C60.6051 69.4383 59.6675 70.4724 58.503 71.1945C57.3385 71.9166 55.9938 72.2977 54.6225 72.2942C53.3911 72.3316 52.1713 72.0477 51.0836 71.4707C51.3849 72.2237 51.7813 72.9354 52.2633 73.5883C53.4862 75.1423 55.1206 76.3241 56.9818 77.0001C57.6617 78.8871 58.8947 80.5267 60.5207 81.706C61.1725 82.1912 61.8866 82.5869 62.644 82.8824C62.0296 81.7742 61.7151 80.5255 61.7314 79.2593C61.7477 77.993 62.0943 76.7528 62.737 75.6607C63.3798 74.5686 64.2966 73.6621 65.3972 73.0306C66.4978 72.3991 67.7443 72.0642 69.014 72.0589ZM54.6225 68.6472C55.2836 68.6713 55.9389 68.5161 56.5186 68.1981C57.0983 67.8801 57.5806 67.4113 57.9141 66.8415C58.2477 66.2717 58.42 65.6224 58.4128 64.9626C58.4056 64.3029 58.219 63.6574 57.873 63.0951C57.527 62.5327 57.0345 62.0745 56.448 61.7693C55.8615 61.464 55.203 61.3232 54.5425 61.3617C53.8821 61.4003 53.2445 61.6168 52.6977 61.9882C52.1509 62.3596 51.7154 62.872 51.4375 63.4707C51.3864 63.7429 51.3864 64.0221 51.4375 64.2943C51.3823 64.5263 51.3823 64.7681 51.4375 65.0001C51.4301 65.8911 51.7499 66.754 52.3367 67.4259C52.9235 68.0978 53.7366 68.5322 54.6225 68.6472ZM69.014 75.706C68.1714 75.8588 67.4094 76.3016 66.8606 76.9574C66.3119 77.6131 66.0113 78.4401 66.0113 79.2942C66.0113 80.1483 66.3119 80.9753 66.8606 81.6311C67.4094 82.2868 68.1714 82.7297 69.014 82.8824H69.8398H70.6655C71.2479 82.6037 71.7426 82.1712 72.0961 81.632C72.4496 81.0929 72.6484 80.4674 72.6709 79.8236C72.7383 79.3067 72.6939 78.7814 72.5406 78.2831C72.3873 77.7847 72.1286 77.325 71.7821 76.9348C71.4355 76.5446 71.0092 76.233 70.5317 76.021C70.0542 75.809 69.5367 75.7016 69.014 75.706Z" fill="#EEEEEE"/>
<path d="M45.8933 27.2355H43.5341L43.888 24.7649C45.618 19.9341 48.8264 15.7675 53.06 12.8542C57.2935 9.9409 62.338 8.42814 67.4806 8.5297H69.8398L69.25 10.8826C67.568 15.7068 64.4078 19.8815 60.2163 22.8161C56.0248 25.7507 51.0142 27.2968 45.8933 27.2355ZM48.7244 23.8238C52.05 23.2225 55.185 21.8425 57.8715 19.7973C60.558 17.752 62.7193 15.0999 64.1776 12.0591C60.8654 12.6956 57.7461 14.0892 55.0649 16.1305C52.3836 18.1717 50.2134 20.8051 48.7244 23.8238Z" fill="#EEEEEE"/>
<path d="M126.462 64.5295V66.8825C126.46 71.9178 124.878 76.8261 121.937 80.9192C118.997 85.0123 114.845 88.0848 110.065 89.706L107.824 90.4118V88.0589C107.861 83.032 109.457 78.1397 112.392 74.0533C115.328 69.9669 119.46 66.8867 124.221 65.2354L126.462 64.5295ZM111.599 85.2354C114.51 83.6886 117.025 81.4937 118.948 78.821C120.871 76.1482 122.15 73.0694 122.687 69.8237C119.688 71.3145 117.08 73.4849 115.073 76.161C113.066 78.8372 111.714 81.9449 111.127 85.2354H111.599Z" fill="#EEEEEE"/>
<path d="M75.148 12.0591L76.3277 14.0591C77.5869 16.4955 78.2346 19.2004 78.2151 21.9414C78.258 24.4185 77.7878 26.8779 76.8338 29.1654C75.8798 31.4529 74.4626 33.5194 72.6708 35.2355L70.9014 36.7649L69.8397 34.7649C68.2281 31.2891 67.7038 27.4098 68.335 23.6325C68.9663 19.8552 70.7238 16.3551 73.3786 13.5885L75.148 12.0591ZM72.081 30.1767C74.2411 26.6568 74.9195 22.4284 73.9684 18.412C71.9235 21.8441 71.2496 25.9184 72.081 29.8237V30.1767Z" fill="#EEEEEE"/>
<path d="M112.896 56.0592C115.653 55.9665 118.383 56.6168 120.8 57.9416L122.923 59.1181L121.39 60.8828C118.597 63.5405 115.067 65.2984 111.259 65.9279C107.451 66.5574 103.541 66.0292 100.038 64.4122L97.9152 63.3533L99.5666 61.5886C101.283 59.796 103.354 58.3787 105.649 57.4268C107.944 56.475 110.412 56.0092 112.896 56.0592ZM116.199 60.1769C112.171 59.2664 107.946 59.9406 104.403 62.0592C108.432 62.9697 112.657 62.2955 116.199 60.1769Z" fill="#EEEEEE"/>
<path d="M26.3116 26.2944C29.2873 27.8688 31.7928 30.1996 33.5743 33.0507C35.3559 35.9018 36.3502 39.1719 36.4564 42.5297C36.5149 43.47 36.5149 44.413 36.4564 45.3532V47.7062L34.2151 46.765C31.2284 45.1848 28.7221 42.8334 26.9583 39.9567C25.1944 37.08 24.2377 33.7836 24.1883 30.4121C24.0668 29.5142 24.0668 28.6041 24.1883 27.7062V25.3533L26.3116 26.2944ZM32.0918 41.8238C31.7085 37.7652 29.7637 34.0125 26.6655 31.3533C27.0243 35.419 28.9736 39.1804 32.0918 41.8238Z" fill="#EEEEEE"/>
<path d="M88.9499 97.5884H91.781C95.1562 97.6622 98.4515 98.6264 101.332 100.383C104.212 102.139 106.574 104.626 108.178 107.588L109.122 109.706H106.762C105.862 109.829 104.949 109.829 104.049 109.706C100.636 109.666 97.2983 108.704 94.3901 106.923C91.4819 105.141 89.1126 102.606 87.5343 99.5883L86.5906 97.4707L88.9499 97.5884ZM102.87 106.177C100.162 103.093 96.3504 101.192 92.2529 100.882C94.9754 103.946 98.7788 105.842 102.87 106.177Z" fill="#EEEEEE"/>
<path d="M260.822 -9.58775C264.362 -8.37866 267.828 -6.96449 271.203 -5.35246L274.742 -3.58777L272.972 -2.8819L274.742 -2.05836L271.203 -0.29364C261.762 4.40205 251.449 7.09795 240.912 7.62436C230.376 8.15079 219.844 6.49634 209.98 2.76515C207.857 2.05927 205.615 1.1181 203.492 0.176926C200.661 2.52986 197.83 4.88281 194.999 7.47104C188.294 13.4167 182.315 20.1296 177.186 27.471L176.243 28.8827L175.181 30.7651C177.754 31.1418 180.283 31.7723 182.73 32.6474C186.643 33.9972 190.222 36.1629 193.229 39.0004C194.313 40.1738 195.299 41.4328 196.178 42.7651C197.689 45.1919 198.391 48.0335 198.184 50.8827C201.815 46.7175 206.94 44.1405 212.457 43.7062C217.346 43.218 222.283 43.7504 226.954 45.2696C231.625 46.7887 235.928 49.2612 239.589 52.5297C243.898 50.425 248.731 49.6264 253.49 50.2328C258.25 50.8392 262.726 52.824 266.366 55.9415L268.018 57.5885L266.012 58.8827C261.622 61.3665 256.57 62.4394 251.546 61.9552C246.522 61.471 241.77 59.4531 237.937 56.1768L236.168 54.5298C232.902 51.85 229.134 49.8456 225.083 48.6337C221.033 47.4218 216.781 47.0265 212.575 47.4709C209.815 47.6474 207.139 48.4889 204.776 49.9232C202.413 51.3575 200.434 53.3419 199.009 55.7062C198.663 56.3004 198.386 56.9319 198.184 57.5885L196.414 58.2944C194.037 59.6907 192.034 61.6396 190.576 63.9749C189.117 66.3103 188.247 68.9628 188.039 71.7062C187.606 75.8997 188.009 80.1372 189.224 84.1752C190.438 88.2131 192.441 91.9719 195.117 95.2355L196.768 96.8826C200.157 100.626 202.25 105.357 202.739 110.377C203.227 115.397 202.085 120.441 199.481 124.765L198.184 126.765L196.532 125C193.341 121.453 191.305 117.022 190.694 112.295C190.084 107.569 190.926 102.768 193.111 98.5296C189.779 94.8054 187.295 90.4061 185.829 85.6338C184.363 80.8615 183.95 75.8292 184.618 70.8826C185.09 65.3907 187.667 60.2919 191.814 56.6474C187.898 56.7212 184.087 55.3845 181.079 52.8827C180.235 52.1582 179.446 51.3717 178.72 50.5298C177.578 49.2776 176.588 47.8955 175.771 46.4121C174.818 44.808 174.028 43.1134 173.411 41.3533C173.162 40.7839 172.965 40.1933 172.822 39.5886C172.822 38.2945 172.114 37.118 171.76 35.8239V33.9416L169.873 35.0004L168.575 35.9416L166.334 37.3533L164.328 38.8827C155.555 45.7634 147.635 53.6622 140.736 62.4121L141.679 64.5297C149.844 82.3747 150.607 102.714 143.803 121.118C142.741 123.941 141.561 126.647 140.264 129.353L138.494 132.882L137.669 131.118L136.843 132.882L135.191 129.353C133.842 126.684 132.66 123.933 131.652 121.118C128.449 113.219 126.691 104.812 126.462 96.2943C126.429 85.3893 128.721 74.6019 133.186 64.6473C133.451 63.9205 133.766 63.213 134.13 62.5297C127.199 53.8079 119.282 45.9126 110.537 39.0004L106.29 36.0592C105.26 35.2823 104.154 34.6121 102.987 34.0592V35.9416C102.987 37.2357 102.398 38.4121 102.044 39.7062L101.454 41.4709C99.6816 47.081 96.0128 51.9042 91.0732 55.118C88.6566 56.6644 85.794 57.3678 82.9337 57.118C87.3263 60.4867 90.2428 65.4188 91.0732 70.8826C91.5293 75.7202 90.9789 80.5996 89.4565 85.2152C87.9341 89.8308 85.4725 94.0832 82.2259 97.7061C84.4108 101.945 85.2536 106.745 84.6428 111.472C84.0319 116.199 81.9962 120.629 78.805 124.177L77.1535 125.941L75.8559 123.941C73.2364 119.63 72.0747 114.593 72.5419 109.573C73.0091 104.553 75.0806 99.8161 78.4511 96.059L79.2769 94.412C81.9961 91.1711 84.0344 87.4181 85.2705 83.3761C86.5067 79.334 86.9155 75.0854 86.4726 70.8826C86.2645 68.1392 85.3941 65.4867 83.9357 63.1514C82.4773 60.816 80.4742 58.8672 78.0972 57.4709L76.3278 56.765C76.3278 56.0591 75.738 55.4709 75.502 54.8827C74.0695 52.525 72.0889 50.5459 69.7278 49.1125C67.3666 47.6791 64.6942 46.8336 61.9363 46.6474C53.4462 45.8025 44.9654 48.3399 38.3437 53.7062L36.6922 55.3533C32.9584 58.8084 28.2433 61.0254 23.1949 61.6995C18.1465 62.3736 13.0126 61.4718 8.49899 59.118L6.6116 57.8238L8.49899 55.9415C12.139 52.824 16.6157 50.8392 21.3751 50.2328C26.1344 49.6264 30.9676 50.425 35.2766 52.5297C38.9371 49.2612 43.2399 46.7887 47.911 45.2696C52.5822 43.7504 57.5193 43.218 62.4081 43.7062C67.9148 44.1769 73.0274 46.7474 76.6817 50.8827C76.4741 48.0335 77.176 45.1919 78.687 42.7651C79.5286 41.406 80.5176 40.1435 81.6361 39.0004C86.6329 34.4287 92.949 31.5467 99.6845 30.7651C99.0858 29.6263 98.416 28.526 97.6791 27.471C92.55 20.1296 86.5713 13.4167 79.8667 7.47104C77.0356 4.88281 74.0865 2.52986 71.2554 0.176926C69.132 1.1181 67.0087 2.05927 64.8854 2.76515C55.1131 6.54362 44.6653 8.27428 34.193 7.84923C23.7207 7.42418 13.4484 4.85252 4.01639 0.294571L0.477509 -1.47012L2.12897 -2.29364L0.477509 -2.99954L4.01639 -4.76424C7.3819 -6.39676 10.8493 -7.81146 14.3972 -8.99953C17.8344 -10.0968 21.3419 -10.9615 24.8959 -11.5877L29.0246 -12.2936C43.6027 -13.9845 58.3633 -11.5378 71.6093 -5.23482C80.9948 -12.4822 89.3658 -20.9495 96.4995 -30.4112L98.033 -32.5289L98.9767 -34.9995L100.038 -36.8818C95.6053 -37.5059 91.3261 -38.9418 87.4163 -41.1171C85.9105 -41.961 84.4885 -42.9458 83.1696 -44.0583L80.9283 -46.2935C80.2234 -47.0987 79.5918 -47.9648 79.0409 -48.8818C77.8284 -50.832 77.138 -53.0599 77.0356 -55.3523C76.977 -55.8998 76.977 -56.4519 77.0356 -56.9994C73.3813 -52.8641 68.2687 -50.2936 62.762 -49.8229C57.8816 -49.319 52.9494 -49.8327 48.2786 -51.3314C43.6079 -52.8302 39.3007 -55.2812 35.6305 -58.5288C31.313 -56.3008 26.4292 -55.4021 21.5987 -55.9467C16.7682 -56.4913 12.2089 -58.4546 8.49899 -61.5876L6.84753 -63.2347L8.49899 -64.5288C12.9074 -67.0225 17.9792 -68.1006 23.0241 -67.6164C28.0689 -67.1323 32.8415 -65.1093 36.6922 -61.8229L38.3437 -60.1758C44.9654 -54.8095 53.4462 -52.2721 61.9363 -53.1171C64.6942 -53.3033 67.3666 -54.1488 69.7278 -55.5822C72.0889 -57.0155 74.0695 -58.9947 75.502 -61.3523C75.502 -61.9406 76.0919 -62.5288 76.3278 -63.2347L78.0972 -63.9405C80.4899 -65.3479 82.5028 -67.3153 83.9621 -69.6725C85.4214 -72.0298 86.283 -74.706 86.4726 -77.4699C86.9291 -81.6733 86.5269 -85.9253 85.2901 -89.9693C84.0534 -94.0133 82.0078 -97.7655 79.2769 -100.999L77.6254 -102.646C74.2549 -106.403 72.1834 -111.141 71.7162 -116.161C71.2489 -121.18 72.4106 -126.217 75.0302 -130.529L76.3278 -132.529L77.9792 -130.764C81.1704 -127.216 83.2061 -122.786 83.817 -118.059C84.4279 -113.332 83.5851 -108.532 81.4002 -104.293C84.8556 -100.684 87.5043 -96.3857 89.1717 -91.6809C90.839 -86.9762 91.4871 -81.9722 91.0732 -76.9993C90.6012 -71.5074 88.0238 -66.4086 83.8774 -62.7641C84.9713 -62.9399 86.0865 -62.9399 87.1804 -62.7641C88.9032 -62.468 90.5483 -61.8277 92.0169 -60.8817C95.3543 -58.4733 98.1345 -55.3785 100.17 -51.8064C102.205 -48.2343 103.447 -44.2681 103.813 -40.1759L105.701 -41.2347L107.116 -42.1759C111.314 -44.9226 115.262 -48.0326 118.912 -51.47C124.579 -56.6926 129.862 -62.3149 134.72 -68.2935C129.496 -78.7584 126.675 -90.2524 126.462 -101.94C126.548 -113.48 129.336 -124.841 134.602 -135.117L136.253 -138.646L137.079 -136.882L138.258 -138.646L140.028 -135.117C145.184 -124.8 147.965 -113.466 148.167 -101.94C148.156 -90.2575 145.537 -78.7236 140.5 -68.1758C145.348 -62.2262 150.59 -56.6059 156.189 -51.3523C159.256 -48.6465 162.441 -45.9406 165.862 -43.47L168.103 -42.0583L169.401 -41.1171L171.288 -40.0583C172.007 -44.4362 173.483 -48.656 175.653 -52.5288C176.47 -54.0122 177.46 -55.3943 178.602 -56.6465C179.297 -57.5166 180.089 -58.3059 180.961 -58.9994C181.749 -59.6931 182.621 -60.2859 183.556 -60.7641C185.025 -61.7101 186.67 -62.3503 188.393 -62.6464C189.486 -62.8243 190.602 -62.8243 191.696 -62.6464C187.549 -66.2909 184.972 -71.3898 184.5 -76.8817C183.992 -81.7222 184.518 -86.6151 186.043 -91.2384C187.568 -95.8616 190.057 -100.11 193.347 -103.705C191.197 -108.003 190.418 -112.855 191.114 -117.608C191.81 -122.361 193.947 -126.788 197.24 -130.293L198.891 -132.058L200.189 -130.058C202.762 -125.71 203.864 -120.652 203.333 -115.631C202.802 -110.61 200.666 -105.893 197.24 -102.176L195.588 -100.529C192.896 -97.2752 190.883 -93.5176 189.667 -89.4769C188.452 -85.4361 188.058 -81.1938 188.511 -76.9993C188.811 -74.2847 189.761 -71.6817 191.28 -69.4093C192.799 -67.1368 194.843 -65.2614 197.24 -63.9405L199.009 -63.2347C199.212 -62.578 199.489 -61.9465 199.835 -61.3523C201.26 -58.988 203.239 -57.0036 205.602 -55.5693C207.964 -54.135 210.641 -53.2935 213.401 -53.1171C217.606 -52.6726 221.858 -53.0679 225.909 -54.2798C229.96 -55.4918 233.728 -57.4961 236.994 -60.1758L238.763 -61.8229C242.595 -65.0993 247.348 -67.1171 252.372 -67.6013C257.396 -68.0856 262.448 -67.0126 266.838 -64.5288L268.018 -63.2347L266.366 -61.5876C262.726 -58.4701 258.25 -56.4853 253.49 -55.8789C248.731 -55.2725 243.898 -56.0711 239.589 -58.1758C235.928 -54.9073 231.625 -52.4348 226.954 -50.9157C222.283 -49.3966 217.346 -48.8642 212.457 -49.3523C206.94 -49.7866 201.815 -52.3636 198.184 -56.5288V-54.8818C198.025 -52.5995 197.338 -50.3848 196.178 -48.4112C195.588 -47.5876 194.999 -46.6465 194.291 -45.823L191.932 -43.5877C190.634 -42.448 189.209 -41.4611 187.685 -40.6465C186.104 -39.722 184.447 -38.9348 182.73 -38.2936C180.283 -37.4184 177.754 -36.7879 175.181 -36.4112L176.243 -34.5288L177.186 -33.1171L178.602 -30.9995C185.768 -21.5656 194.135 -13.1023 203.492 -5.82306C216.74 -12.1199 231.499 -14.5663 246.077 -12.8819C247.492 -12.8819 248.908 -12.8819 250.323 -12.176C253.874 -11.5359 257.381 -10.6714 260.822 -9.58775ZM261.648 57.0003C258.832 55.2722 255.659 54.2048 252.369 53.8787C249.079 53.5527 245.758 53.9764 242.656 55.118C245.481 56.822 248.653 57.8753 251.938 58.201C255.224 58.5266 258.541 58.1164 261.648 57.0003ZM197.948 120.059C199.127 116.992 199.57 113.692 199.243 110.424C198.915 107.156 197.825 104.009 196.06 101.235C194.908 104.308 194.479 107.603 194.807 110.866C195.134 114.13 196.209 117.275 197.948 120.059ZM77.2715 120.059C78.9914 117.266 80.0454 114.116 80.3522 110.853C80.659 107.589 80.2103 104.299 79.0409 101.235C77.321 104.029 76.267 107.178 75.9603 110.442C75.6535 113.705 76.1021 116.996 77.2715 120.059ZM13.5714 57.0003C16.6582 58.1147 19.9564 58.5241 23.223 58.1983C26.4895 57.8726 29.6411 56.8199 32.4455 55.118C29.3634 53.9778 26.061 53.5547 22.7901 53.8809C19.5191 54.2072 16.3661 55.2741 13.5714 57.0003ZM13.5714 -62.6464C16.3661 -60.9202 19.5191 -59.8533 22.7901 -59.5271C26.061 -59.2008 29.3634 -59.6239 32.4455 -60.7641C29.6411 -62.466 26.4895 -63.5187 23.223 -63.8445C19.9564 -64.1702 16.6582 -63.7608 13.5714 -62.6464ZM77.2715 -125.705C76.138 -122.644 75.7292 -119.363 76.0771 -116.118C76.4249 -112.873 77.52 -109.752 79.2769 -106.999C80.4104 -110.061 80.8191 -113.342 80.4713 -116.586C80.1234 -119.831 79.0283 -122.952 77.2715 -125.705ZM197.948 -125.705C196.219 -122.939 195.149 -119.814 194.822 -116.571C194.495 -113.328 194.918 -110.053 196.06 -106.999C197.824 -109.751 198.913 -112.878 199.241 -116.128C199.569 -119.377 199.126 -122.658 197.948 -125.705ZM261.648 -62.6464C258.541 -63.7625 255.224 -64.1727 251.938 -63.8471C248.653 -63.5214 245.481 -62.4681 242.656 -60.7641C245.758 -59.6225 249.079 -59.1988 252.369 -59.5249C255.659 -59.8509 258.832 -60.9184 261.648 -62.6464ZM184.618 51.3533L185.562 51.9415C186.504 52.5404 187.541 52.9778 188.629 53.2356C190.367 53.7055 192.199 53.7055 193.937 53.2356C194.116 52.2238 194.116 51.1886 193.937 50.1768C193.92 48.7529 193.598 47.349 192.993 46.0592L192.403 45.0003C190.333 42.2215 187.718 39.8915 184.717 38.1522C181.715 36.4129 178.391 35.3005 174.945 34.8827C175.947 41.4015 179.407 47.2927 184.618 51.3533ZM138.258 124.177C142.223 115.201 144.31 105.514 144.392 95.7061C144.372 87.0972 142.773 78.5646 139.674 70.5297C139.326 69.2698 138.851 68.048 138.258 66.8826C138.034 67.5691 137.758 68.2376 137.433 68.8826C137.208 68.1962 136.932 67.5276 136.607 66.8826L135.191 70.5297C132.185 78.5865 130.627 87.1094 130.591 95.7061C130.633 105.506 132.68 115.194 136.607 124.177C136.932 123.532 137.208 122.863 137.433 122.177C137.758 122.822 138.034 123.49 138.258 124.177ZM82.2259 44.6474C81.219 46.1866 80.6859 47.9861 80.6924 49.8239C80.5139 50.8357 80.5139 51.8708 80.6924 52.8827C82.4305 53.3525 84.2627 53.3525 86.0007 52.8827C87.0737 52.582 88.1043 52.1472 89.0678 51.5886L91.0732 51.3533C95.3963 47.7963 98.423 42.917 99.6845 37.4709C99.7513 36.4917 99.7513 35.509 99.6845 34.5298C96.2593 34.9628 92.9574 36.0823 89.9774 37.8211C86.9973 39.5598 84.4008 41.8819 82.3439 44.6474H82.2259ZM9.32474 -3.58777L11.3301 -2.8819L9.32474 -2.05836C18.4432 1.89908 28.2812 3.94142 38.2257 3.94142C48.1702 3.94142 58.0081 1.89908 67.1266 -2.05836L65.0033 -2.8819L67.4805 -3.58777C58.3294 -7.57867 48.4495 -9.63887 38.4616 -9.63887C28.4738 -9.63887 18.5939 -7.57867 9.44269 -3.58777H9.32474ZM88.5959 -58.5288C86.2496 -59.471 83.6286 -59.471 81.2822 -58.5288C80.816 -57.1665 80.6692 -55.7158 80.8533 -54.2881C81.0373 -52.8604 81.5473 -51.4938 82.3439 -50.2935C83.5331 -48.3203 85.1442 -46.6332 87.0624 -45.3523C90.8738 -42.7324 95.2284 -41.0032 99.8024 -40.2936C98.7528 -47.1365 95.1243 -53.3219 89.6576 -57.5876L88.5959 -58.5288ZM138.258 -129.823C138.034 -129.136 137.758 -128.468 137.433 -127.823C137.208 -128.509 136.932 -129.178 136.607 -129.823C132.68 -120.84 130.633 -111.152 130.591 -101.352C130.665 -91.4422 132.71 -81.6453 136.607 -72.5288C136.932 -73.1738 137.208 -73.8423 137.433 -74.5288C137.758 -73.8838 138.034 -73.2152 138.258 -72.5288C142.193 -81.638 144.277 -91.4346 144.392 -101.352C144.31 -111.16 142.223 -120.847 138.258 -129.823ZM185.444 -57.5876C182.635 -55.5715 180.282 -52.9909 178.534 -50.0123C176.787 -47.0336 175.685 -43.723 175.299 -40.2936C179.843 -40.98 184.164 -42.712 187.921 -45.3523C189.901 -46.5967 191.558 -48.2897 192.757 -50.2935L193.347 -51.3523C194.226 -53.6641 194.226 -56.217 193.347 -58.5288C190.959 -59.4663 188.304 -59.4663 185.916 -58.5288L185.444 -57.5876ZM173.647 -30.9995C172.586 -32.6465 171.642 -34.2936 170.698 -35.9406C168.945 -36.7659 167.25 -37.7092 165.626 -38.7641C155.358 -46.1924 146.152 -54.9788 138.258 -64.8817L137.433 -63.9405L136.607 -64.8817C128.693 -54.9492 119.398 -46.1942 109.004 -38.8818C107.419 -37.8278 105.764 -36.8844 104.049 -36.0583C103.198 -34.3361 102.212 -32.6839 101.1 -31.1171L98.151 -26.9995C97.1286 -25.5877 96.0669 -24.2936 94.9659 -23.1171C88.8825 -16.0562 82.1705 -9.55913 74.9122 -3.70541L75.8559 -2.99954C75.5992 -2.66537 75.2784 -2.38542 74.9122 -2.17599C82.1417 3.66713 88.8512 10.1225 94.9659 17.1181C97.0893 19.7063 99.2126 22.4122 101.1 25.2357C102.212 26.8025 103.198 28.4547 104.049 30.1769C105.764 31.003 107.419 31.9464 109.004 33.0004C111.829 34.8873 114.546 36.9296 117.143 39.118C124.296 45.1457 130.853 51.843 136.725 59.118L137.551 58.1768L138.258 59.118C144.162 51.9456 150.674 45.2936 157.722 39.2356C160.317 37.118 163.031 35.118 165.862 33.118C167.486 32.0631 169.181 31.1198 170.934 30.2945C171.878 28.6474 172.822 27.0004 173.883 25.3533C181.295 15.0108 190.154 5.77986 200.189 -2.05836L199.127 -2.8819L200.189 -3.58777C191.444 -10.5 183.527 -18.3953 176.596 -27.1171C176.007 -28.1759 175.063 -29.5877 173.647 -30.9995ZM251.503 -8.17598C249.124 -8.65169 246.722 -9.0051 244.307 -9.2348H240.768H237.111C227.097 -9.17271 217.195 -7.1335 207.975 -3.23482L209.98 -2.52895L207.975 -1.70541C217.195 2.19325 227.097 4.23248 237.111 4.29457H240.768H244.307C246.722 4.06487 249.124 3.71146 251.503 3.23575C256.394 2.15289 261.172 0.616821 265.777 -1.35246L263.771 -2.17599L265.777 -2.8819C261.197 -5.09273 256.418 -6.86536 251.503 -8.17598Z" fill="#EEEEEE"/>
<path d="M136.371 38.0591L137.551 37.1179L138.73 38.0591C140.17 39.1066 141.354 40.4658 142.191 42.0348C143.029 43.6038 143.499 45.3416 143.567 47.1179V48.2944H142.387H141.09C139.813 47.8156 138.619 47.1408 137.551 46.2944C136.526 47.1399 135.37 47.8153 134.13 48.2944H132.832H131.535V47.3532C131.632 45.5502 132.114 43.7888 132.948 42.1862C133.782 40.5835 134.949 39.1766 136.371 38.0591ZM137.551 42.8826C138.574 44.1516 139.918 45.1261 141.444 45.7061C140.872 43.2888 139.5 41.1339 137.551 39.5885C135.684 41.1854 134.364 43.3243 133.776 45.7061C135.249 45.0902 136.545 44.1201 137.551 42.8826Z" fill="#EEEEEE"/>
<path d="M126.462 29.5886C127.742 29.288 129.075 29.288 130.355 29.5886C132.607 29.7966 134.724 30.749 136.371 32.2945L137.079 33.118L138.258 31.8239C139.961 30.2916 142.11 29.3434 144.392 29.118C145.673 28.8217 147.005 28.8217 148.285 29.118H149.465L148.757 30.1768L147.813 31.3533C146.492 32.5817 144.872 33.4449 143.113 33.8576C141.355 34.2702 139.519 34.2181 137.786 33.7062C136.073 34.2201 134.255 34.2732 132.514 33.8599C130.774 33.4467 129.175 32.5819 127.878 31.3533C127.5 31.0157 127.181 30.6182 126.934 30.1768L126.226 29.118L126.462 29.5886ZM128.703 31.118C129.312 31.6039 129.987 32.0001 130.709 32.2945C131.957 32.886 133.343 33.1299 134.719 33.0003C133.441 31.9505 131.883 31.2962 130.237 31.118C129.885 31.0629 129.527 31.0629 129.175 31.118H128.703ZM143.921 31.118C142.317 31.3245 140.805 31.9768 139.556 33.0003C140.931 33.1131 142.313 32.8699 143.567 32.2945C144.272 31.9692 144.944 31.5751 145.572 31.118C145.181 31.0582 144.783 31.0582 144.392 31.118H143.921Z" fill="#EEEEEE"/>
<path d="M213.165 65.0002C213.007 63.1201 213.586 61.2521 214.78 59.7885C215.974 58.3249 217.69 57.3797 219.568 57.1513C221.446 56.9229 223.339 57.4291 224.851 58.5636C226.363 59.6981 227.375 61.3727 227.674 63.2355C228.443 65.3102 228.694 67.54 228.406 69.7328C228.118 71.9257 227.3 74.016 226.023 75.8237C224.68 77.5285 222.992 78.9316 221.069 79.9414C219.567 82.8896 217.027 85.1808 213.935 86.3751C210.844 87.5693 207.419 87.5825 204.318 86.4119L202.784 85.8237C201.64 85.22 200.678 84.3243 199.994 83.2281C199.311 82.1319 198.931 80.8745 198.894 79.5842C198.858 78.294 199.165 77.0171 199.785 75.8839C200.404 74.7508 201.315 73.8019 202.422 73.1342C203.53 72.4666 204.795 72.104 206.089 72.0836C207.383 72.0631 208.66 72.3855 209.788 73.0178C210.916 73.6502 211.856 74.5698 212.512 75.6828C213.167 76.7958 213.515 78.0624 213.519 79.3531C213.515 80.5911 213.19 81.807 212.575 82.8826L214.699 81.7061C216.325 80.5268 217.558 78.8872 218.237 77.0002C220.099 76.3242 221.733 75.1424 222.956 73.5884C223.394 72.9082 223.788 72.2009 224.136 71.4708C223.005 72.0476 221.748 72.3308 220.479 72.2943C218.539 72.2943 216.679 71.5259 215.307 70.1579C213.936 68.79 213.165 66.9348 213.165 65.0002ZM206.087 75.7061C205.612 75.7058 205.142 75.8009 204.705 75.9856C204.268 76.1702 203.872 76.4408 203.542 76.7811C203.212 77.1214 202.954 77.5245 202.783 77.9663C202.612 78.4082 202.533 78.8798 202.548 79.3531C202.572 79.9821 202.758 80.5943 203.088 81.1303C203.419 81.6663 203.883 82.1079 204.436 82.412H205.379H206.087C206.614 82.5075 207.156 82.4864 207.674 82.3502C208.192 82.214 208.673 81.966 209.085 81.6238C209.496 81.2815 209.827 80.8533 210.054 80.3694C210.281 79.8856 210.398 79.3579 210.398 78.8237C210.398 78.2895 210.281 77.7619 210.054 77.278C209.827 76.7942 209.496 76.366 209.085 76.0237C208.673 75.6814 208.192 75.4334 207.674 75.2972C207.156 75.161 206.614 75.14 206.087 75.2355V75.7061ZM224.136 65.0002C224.191 64.7682 224.191 64.5264 224.136 64.2944V63.4708C223.839 62.8541 223.368 62.3366 222.782 61.9816C222.196 61.6265 221.518 61.4491 220.833 61.4708C219.99 61.6236 219.228 62.0665 218.679 62.7222C218.13 63.378 217.83 64.205 217.83 65.0591C217.83 65.9132 218.13 66.7402 218.679 67.3959C219.228 68.0516 219.99 68.4945 220.833 68.6473C221.74 68.5593 222.582 68.1366 223.193 67.4619C223.804 66.7873 224.14 65.9093 224.136 65.0002Z" fill="#EEEEEE"/>
<path d="M149.111 66.8825V64.5295L151.352 65.2354C156.132 66.8566 160.284 69.9291 163.224 74.0222C166.165 78.1153 167.747 83.0236 167.749 88.0589V90.4118L165.508 89.706C160.728 88.0848 156.576 85.0123 153.636 80.9192C150.695 76.8261 149.113 71.9178 149.111 66.8825ZM163.974 85.2354C163.459 81.9976 162.2 78.9223 160.297 76.2491C158.394 73.5759 155.898 71.377 153.004 69.8237C153.536 73.0556 154.801 76.1236 156.702 78.7943C158.604 81.465 161.091 83.668 163.974 85.2354Z" fill="#EEEEEE"/>
<path d="M231.095 24.7651L231.685 27.0004H229.326C224.179 27.1199 219.127 25.6142 214.89 22.6984C210.652 19.7827 207.448 15.606 205.733 10.7651L205.025 8.41217H207.385C212.561 8.29401 217.643 9.81226 221.902 12.7496C226.161 15.6869 229.379 19.8928 231.095 24.7651ZM226.495 23.3533C224.938 20.4085 222.725 17.8591 220.026 15.9011C217.326 13.9431 214.212 12.6288 210.924 12.0592C212.409 15.103 214.593 17.7545 217.298 19.7987C220.004 21.8428 223.155 23.2218 226.495 23.8239V23.3533Z" fill="#EEEEEE"/>
<path d="M161.851 56.0589C164.327 55.9938 166.79 56.441 169.084 57.3725C171.378 58.3039 173.454 59.6993 175.181 61.4707L176.714 63.2354L174.709 64.2942C171.206 65.9113 167.296 66.4394 163.488 65.8099C159.68 65.1805 156.15 63.4225 153.358 60.7648L151.824 59.0001L153.83 57.9413C156.289 56.6175 159.057 55.968 161.851 56.0589ZM170.108 62.0589C166.566 59.9403 162.341 59.2661 158.312 60.1766C160.132 61.2812 162.152 62.0162 164.258 62.3392C166.363 62.6623 168.512 62.567 170.58 62.0589H170.108Z" fill="#EEEEEE"/>
<path d="M205.379 34.4121L204.2 36.4121L202.43 34.8827C200.697 33.1407 199.341 31.0614 198.448 28.7742C197.555 26.4871 197.144 24.0412 197.24 21.5886C197.164 18.8415 197.815 16.1228 199.127 13.7063L200.307 11.7063L202.076 13.2357C204.692 16.0283 206.406 19.5408 206.995 23.3171C207.584 27.0933 207.021 30.959 205.379 34.4121ZM201.133 18.2945C200.279 22.3278 200.996 26.5337 203.138 30.0592C204.028 26.0268 203.309 21.807 201.133 18.2945Z" fill="#EEEEEE"/>
<path d="M186.269 97.5881H188.628L187.567 99.7058C186.008 102.715 183.659 105.245 180.772 107.027C177.884 108.809 174.565 109.775 171.17 109.823C170.23 109.937 169.279 109.937 168.339 109.823H166.097L167.041 107.706C168.645 104.743 171.007 102.257 173.887 100.5C176.768 98.7438 180.063 97.7796 183.438 97.7058L186.269 97.5881ZM172.114 106.412C176.176 106.096 179.949 104.194 182.612 101.118C178.591 101.396 174.832 103.208 172.114 106.176V106.412Z" fill="#EEEEEE"/>
<path d="M241.594 47.3531L239.471 48.2943V45.9413C239.357 45.0036 239.357 44.0556 239.471 43.1178C239.577 39.7601 240.571 36.49 242.353 33.6389C244.134 30.7878 246.64 28.4569 249.615 26.8826L251.857 25.9414V28.2943C251.92 29.1952 251.92 30.0994 251.857 31.0002C251.797 34.3987 250.81 37.7168 249.002 40.5979C247.194 43.4791 244.633 45.8145 241.594 47.3531ZM242.538 42.4119C245.616 39.7376 247.557 35.9931 247.964 31.9414C244.996 34.4564 243.064 37.9754 242.538 41.8237V42.4119Z" fill="#EEEEEE"/>
<path d="M142.977 20.4119C142.752 21.0984 142.476 21.7669 142.151 22.4119V23.4708L141.207 22.6472C139.835 21.3818 138.784 19.8092 138.14 18.059C137.531 19.7976 136.521 21.3691 135.191 22.6472L134.248 23.4708L133.658 22.4119C133.283 21.7907 133.004 21.1164 132.832 20.4119C132.721 19.4347 132.721 18.448 132.832 17.4708C132.772 14.4256 133.726 11.4466 135.545 9.00021L136.725 7.70609L137.668 6.88257V8.05904L138.258 6.88257L139.202 7.70609C140.472 8.98612 141.463 10.5144 142.113 12.1948C142.763 13.8753 143.057 15.6715 142.977 17.4708C143.146 18.4439 143.146 19.4388 142.977 20.4119ZM140.971 20.4119V19.1178C141.025 18.6881 141.025 18.2535 140.971 17.8237C141.092 15.2251 140.345 12.66 138.848 10.5296C138.603 11.7331 138.603 12.9732 138.848 14.1767C138.99 16.3332 139.725 18.4091 140.971 20.1767V20.4119ZM134.248 20.4119C135.536 18.5775 136.273 16.4143 136.371 14.1767C136.561 12.9684 136.561 11.7379 136.371 10.5296C134.832 12.6452 134.044 15.2116 134.13 17.8237C134.078 18.6099 134.118 19.3995 134.248 20.1767V20.4119Z" fill="#EEEEEE"/>
<path d="M169.283 27.9413H168.339V28.8825L166.452 28.1766C159.132 25.839 152.655 21.4235 147.813 15.4707C144.907 11.9459 142.596 7.97229 140.972 3.70606H137.315H133.776C132.107 7.95107 129.8 11.918 126.934 15.4707C122.092 21.4235 115.615 25.839 108.296 28.1766L106.29 28.8825V27.9413H105.347L106.055 25.9413C108.028 19.957 111.384 14.5186 115.85 10.0639C120.317 5.6093 125.77 2.26294 131.77 0.294296C131.837 -0.881233 131.837 -2.05957 131.77 -3.2351C131.77 -4.41157 131.77 -5.58805 131.77 -6.76451C125.912 -8.73137 120.593 -12.0297 116.232 -16.3991C111.871 -20.7685 108.589 -26.0891 106.644 -31.9409L105.937 -33.9409H106.88V-34.8821L108.886 -34.1762C114.759 -32.2674 120.112 -29.0353 124.531 -24.7305C128.949 -20.4257 132.315 -15.1638 134.366 -9.35273H137.905H141.561C143.588 -15.1772 146.945 -20.4518 151.367 -24.7599C155.79 -29.0681 161.156 -32.2917 167.041 -34.1762L168.929 -34.8821V-33.9409H169.873L169.165 -31.9409C167.196 -26.1022 163.905 -20.7941 159.548 -16.4281C155.191 -12.0621 149.884 -8.75545 144.039 -6.76451V-3.2351C144.039 -1.9802 144.039 -0.803741 144.039 0.294296C149.879 2.32859 155.177 5.66394 159.531 10.0469C163.885 14.4298 167.18 19.745 169.165 25.5883L169.283 27.9413ZM130.473 4.41194C130.453 4.02003 130.453 3.62738 130.473 3.23547C125.566 5.14465 121.107 8.04166 117.372 11.7458C113.638 15.45 110.709 19.8818 108.768 24.7648H109.829C109.874 25.1164 109.874 25.4721 109.829 25.8236C117.804 22.8066 124.506 17.1611 128.821 9.82368C129.841 8.07967 130.748 6.27203 131.535 4.41194H130.473ZM109.829 -30.8821C109.874 -30.5305 109.874 -30.1748 109.829 -29.8233H108.768C110.727 -24.9509 113.662 -20.5286 117.395 -16.8267C121.127 -13.1249 125.577 -10.2214 130.473 -8.29391C130.493 -8.68582 130.493 -9.07847 130.473 -9.47038H131.535C129.611 -14.35 126.687 -18.7751 122.949 -22.4623C119.212 -26.1494 114.743 -29.0173 109.829 -30.8821ZM145.218 -9.94098C145.152 -9.55159 145.152 -9.1539 145.218 -8.76451C150.1 -10.6933 154.533 -13.5985 158.246 -17.3012C161.958 -21.0039 164.872 -25.4256 166.806 -30.2939H165.744C165.788 -30.6454 165.788 -31.0011 165.744 -31.3527C160.856 -29.4678 156.413 -26.5916 152.697 -22.9059C148.982 -19.2203 146.073 -14.8055 144.157 -9.94098H145.218ZM141.561 -2.88217C141.62 -3.90095 141.62 -4.92221 141.561 -5.94099H140.972H137.787H134.602H133.894C133.952 -4.92221 133.952 -3.90095 133.894 -2.88217C133.952 -1.82416 133.952 -0.763721 133.894 0.294296H134.602V0.882523H137.787H140.972V0.294296H141.561C141.463 -0.772446 141.306 -1.83292 141.09 -2.88217H141.561ZM144.746 3.11782C144.718 3.50946 144.718 3.90265 144.746 4.29429H143.685C144.422 6.17686 145.33 7.98829 146.398 9.70603C150.698 17.0109 157.35 22.6499 165.272 25.706C165.316 25.3544 165.316 24.9987 165.272 24.6472H166.334C164.366 19.7225 161.387 15.263 157.588 11.5552C153.789 7.84735 149.254 4.97332 144.275 3.11782H144.746Z" fill="#EEEEEE"/>
</svg>
