<svg width="275" height="133" viewBox="0 0 275 133" fill="none" xmlns="http://www.w3.org/2000/svg">
<path d="M69.014 60.9411C70.6553 60.9512 72.2524 60.4104 73.5482 59.4057C74.8441 58.401 75.7633 56.9908 76.1582 55.4019C76.5531 53.8131 76.4006 52.1379 75.7253 50.6459C75.0499 49.154 73.891 47.9319 72.435 47.1764L70.9014 46.5882C68.823 45.812 66.5853 45.5563 64.3847 45.8435C62.184 46.1307 60.0877 46.9519 58.2794 48.2352C56.5352 49.5227 55.0872 51.1673 54.0327 53.0587C52.1666 54.1034 50.5235 55.5022 49.1962 57.1764C47.9188 58.9841 47.1011 61.0744 46.8134 63.2673C46.5257 65.4602 46.7767 67.6899 47.5447 69.7646C47.8765 71.0916 48.5757 72.2988 49.5624 73.2485C50.5491 74.1982 51.7837 74.8521 53.1252 75.1355C54.4667 75.419 55.8611 75.3206 57.1493 74.8516C58.4374 74.3826 59.5674 73.5619 60.4102 72.4832C61.2531 71.4044 61.7749 70.111 61.916 68.7507C62.0572 67.3903 61.812 66.0178 61.2085 64.7898C60.6051 63.5617 59.6675 62.5276 58.503 61.8055C57.3385 61.0834 55.9938 60.7023 54.6225 60.7058C53.3911 60.6684 52.1713 60.9523 51.0836 61.5293C51.3849 60.7763 51.7813 60.0646 52.2633 59.4117C53.4862 57.8577 55.1206 56.6759 56.9818 55.9999C57.6617 54.1129 58.8947 52.4733 60.5207 51.294C61.1725 50.8088 61.8866 50.4131 62.644 50.1176C62.0296 51.2258 61.7151 52.4745 61.7314 53.7407C61.7477 55.007 62.0943 56.2472 62.737 57.3393C63.3798 58.4314 64.2966 59.3379 65.3972 59.9694C66.4978 60.6009 67.7443 60.9358 69.014 60.9411ZM54.6225 64.3528C55.2836 64.3287 55.9389 64.4839 56.5186 64.8019C57.0983 65.1199 57.5806 65.5887 57.9141 66.1585C58.2477 66.7283 58.42 67.3776 58.4128 68.0374C58.4056 68.6971 58.219 69.3426 57.873 69.9049C57.527 70.4673 57.0345 70.9255 56.448 71.2307C55.8615 71.536 55.203 71.6768 54.5425 71.6383C53.8821 71.5997 53.2445 71.3832 52.6977 71.0118C52.1509 70.6404 51.7154 70.128 51.4375 69.5293C51.3864 69.2571 51.3864 68.9779 51.4375 68.7057C51.3823 68.4737 51.3823 68.2319 51.4375 67.9999C51.4301 67.1089 51.7499 66.246 52.3367 65.5741C52.9235 64.9022 53.7366 64.4678 54.6225 64.3528ZM69.014 57.294C68.1714 57.1412 67.4094 56.6984 66.8606 56.0426C66.3119 55.3869 66.0113 54.5599 66.0113 53.7058C66.0113 52.8517 66.3119 52.0247 66.8606 51.3689C67.4094 50.7132 68.1714 50.2703 69.014 50.1176H69.8398H70.6655C71.2479 50.3963 71.7426 50.8288 72.0961 51.368C72.4496 51.9071 72.6484 52.5326 72.6709 53.1764C72.7383 53.6933 72.6939 54.2186 72.5406 54.7169C72.3873 55.2153 72.1286 55.675 71.7821 56.0652C71.4355 56.4554 71.0092 56.767 70.5317 56.979C70.0542 57.191 69.5367 57.2984 69.014 57.294Z" fill="#EEEEEE"/>
<path d="M45.8933 105.764H43.5341L43.888 108.235C45.618 113.066 48.8264 117.232 53.06 120.146C57.2935 123.059 62.338 124.572 67.4806 124.47H69.8398L69.25 122.117C67.568 117.293 64.4078 113.119 60.2163 110.184C56.0248 107.249 51.0142 105.703 45.8933 105.764ZM48.7244 109.176C52.05 109.777 55.185 111.157 57.8715 113.203C60.558 115.248 62.7193 117.9 64.1776 120.941C60.8654 120.304 57.7461 118.911 55.0649 116.87C52.3836 114.828 50.2134 112.195 48.7244 109.176Z" fill="#EEEEEE"/>
<path d="M126.462 68.4705V66.1175C126.46 61.0822 124.878 56.1739 121.937 52.0808C118.997 47.9877 114.845 44.9152 110.065 43.294L107.824 42.5882V44.9411C107.861 49.968 109.457 54.8603 112.392 58.9467C115.328 63.0331 119.46 66.1133 124.221 67.7646L126.462 68.4705ZM111.599 47.7646C114.51 49.3114 117.025 51.5063 118.948 54.179C120.871 56.8518 122.15 59.9306 122.687 63.1763C119.688 61.6855 117.08 59.5151 115.073 56.839C113.066 54.1628 111.714 51.0551 111.127 47.7646H111.599Z" fill="#EEEEEE"/>
<path d="M75.148 120.941L76.3277 118.941C77.5869 116.504 78.2346 113.8 78.2151 111.059C78.258 108.581 77.7878 106.122 76.8338 103.835C75.8798 101.547 74.4626 99.4806 72.6708 97.7645L70.9014 96.2351L69.8397 98.2351C68.2281 101.711 67.7038 105.59 68.335 109.368C68.9663 113.145 70.7238 116.645 73.3786 119.412L75.148 120.941ZM72.081 102.823C74.2411 106.343 74.9195 110.572 73.9684 114.588C71.9235 111.156 71.2496 107.082 72.081 103.176V102.823Z" fill="#EEEEEE"/>
<path d="M112.896 76.9408C115.653 77.0335 118.383 76.3832 120.8 75.0584L122.923 73.8819L121.39 72.1172C118.597 69.4595 115.067 67.7016 111.259 67.0721C107.451 66.4426 103.541 66.9708 100.038 68.5878L97.9152 69.6467L99.5666 71.4114C101.283 73.204 103.354 74.6213 105.649 75.5732C107.944 76.525 110.412 76.9908 112.896 76.9408ZM116.199 72.8231C112.171 73.7336 107.946 73.0594 104.403 70.9408C108.432 70.0303 112.657 70.7045 116.199 72.8231Z" fill="#EEEEEE"/>
<path d="M26.3116 106.706C29.2873 105.131 31.7928 102.8 33.5743 99.9493C35.3559 97.0982 36.3502 93.8281 36.4564 90.4703C36.5149 89.53 36.5149 88.587 36.4564 87.6468V85.2938L34.2151 86.235C31.2284 87.8152 28.7221 90.1666 26.9583 93.0433C25.1944 95.92 24.2377 99.2164 24.1883 102.588C24.0668 103.486 24.0668 104.396 24.1883 105.294V107.647L26.3116 106.706ZM32.0918 91.1762C31.7085 95.2348 29.7637 98.9875 26.6655 101.647C27.0243 97.581 28.9736 93.8196 32.0918 91.1762Z" fill="#EEEEEE"/>
<path d="M88.9499 35.4116H91.781C95.1562 35.3378 98.4515 34.3736 101.332 32.6171C104.212 30.8605 106.574 28.3744 108.178 25.4117L109.122 23.294H106.762C105.862 23.1715 104.949 23.1715 104.049 23.294C100.636 23.3337 97.2983 24.2956 94.3901 26.0772C91.4819 27.8588 89.1126 30.3936 87.5343 33.4117L86.5906 35.5293L88.9499 35.4116ZM102.87 26.8234C100.162 29.9067 96.3504 31.8076 92.2529 32.1176C94.9754 29.0543 98.7788 27.1577 102.87 26.8234Z" fill="#EEEEEE"/>
<path d="M260.822 142.588C264.362 141.379 267.828 139.964 271.203 138.352L274.742 136.588L272.972 135.882L274.742 135.058L271.203 133.294C261.762 128.598 251.449 125.902 240.912 125.376C230.376 124.849 219.844 126.504 209.98 130.235C207.857 130.941 205.615 131.882 203.492 132.823C200.661 130.47 197.83 128.117 194.999 125.529C188.294 119.583 182.315 112.87 177.186 105.529L176.243 104.117L175.181 102.235C177.754 101.858 180.283 101.228 182.73 100.353C186.643 99.0028 190.222 96.8371 193.229 93.9996C194.313 92.8262 195.299 91.5672 196.178 90.2349C197.689 87.8081 198.391 84.9665 198.184 82.1173C201.815 86.2825 206.94 88.8595 212.457 89.2938C217.346 89.782 222.283 89.2496 226.954 87.7304C231.625 86.2113 235.928 83.7388 239.589 80.4703C243.898 82.575 248.731 83.3736 253.49 82.7672C258.25 82.1608 262.726 80.176 266.366 77.0585L268.018 75.4115L266.012 74.1173C261.622 71.6335 256.57 70.5606 251.546 71.0448C246.522 71.529 241.77 73.5468 237.937 76.8232L236.168 78.4702C232.902 81.15 229.134 83.1544 225.083 84.3663C221.033 85.5782 216.781 85.9735 212.575 85.5291C209.815 85.3526 207.139 84.5111 204.776 83.0768C202.413 81.6425 200.434 79.6581 199.009 77.2938C198.663 76.6996 198.386 76.0681 198.184 75.4115L196.414 74.7056C194.037 73.3093 192.034 71.3604 190.576 69.0251C189.117 66.6897 188.247 64.0372 188.039 61.2938C187.606 57.1002 188.009 52.8628 189.224 48.8248C190.438 44.7869 192.441 41.0281 195.117 37.7645L196.768 36.1174C200.157 32.3737 202.25 27.643 202.739 22.6229C203.227 17.6027 202.085 12.5589 199.481 8.23514L198.184 6.23514L196.532 7.99988C193.341 11.5474 191.305 15.9778 190.694 20.7046C190.084 25.4314 190.926 30.2318 193.111 34.4704C189.779 38.1946 187.295 42.5939 185.829 47.3662C184.363 52.1385 183.95 57.1708 184.618 62.1174C185.09 67.6093 187.667 72.7081 191.814 76.3526C187.898 76.2788 184.087 77.6155 181.079 80.1173C180.235 80.8418 179.446 81.6283 178.72 82.4702C177.578 83.7224 176.588 85.1045 175.771 86.5879C174.818 88.192 174.028 89.8866 173.411 91.6467C173.162 92.2161 172.965 92.8067 172.822 93.4114C172.822 94.7055 172.114 95.882 171.76 97.1761V99.0584L169.873 97.9996L168.575 97.0584L166.334 95.6467L164.328 94.1173C155.555 87.2366 147.635 79.3378 140.736 70.5879L141.679 68.4703C149.844 50.6253 150.607 30.2858 143.803 11.8822C142.741 9.05868 141.561 6.35279 140.264 3.64691L138.494 0.117523L137.669 1.88223L136.843 0.117523L135.191 3.64691C133.842 6.31633 132.66 9.06672 131.652 11.8822C128.449 19.7809 126.691 28.1883 126.462 36.7057C126.429 47.6107 128.721 58.3981 133.186 68.3527C133.451 69.0795 133.766 69.787 134.13 70.4703C127.199 79.1921 119.282 87.0874 110.537 93.9996L106.29 96.9408C105.26 97.7177 104.154 98.3879 102.987 98.9408V97.0584C102.987 95.7643 102.398 94.5879 102.044 93.2938L101.454 91.5291C99.6816 85.919 96.0128 81.0958 91.0732 77.882C88.6566 76.3356 85.794 75.6322 82.9337 75.882C87.3263 72.5133 90.2428 67.5812 91.0732 62.1174C91.5293 57.2798 90.9789 52.4004 89.4565 47.7848C87.9341 43.1692 85.4726 38.9168 82.2259 35.2939C84.4109 31.0553 85.2536 26.2549 84.6428 21.5281C84.0319 16.8013 81.9962 12.3709 78.805 8.82339L77.1535 7.05869L75.8559 9.05869C73.2364 13.3703 72.0747 18.407 72.5419 23.4268C73.0091 28.4466 75.0806 33.1839 78.4511 36.941L79.2769 38.588C81.9961 41.8289 84.0344 45.5819 85.2705 49.6239C86.5067 53.666 86.9155 57.9146 86.4726 62.1174C86.2645 64.8608 85.3941 67.5133 83.9357 69.8486C82.4773 72.1839 80.4742 74.1328 78.0972 75.5291L76.3278 76.235C76.3278 76.9409 75.738 77.5291 75.502 78.1173C74.0695 80.475 72.0889 82.4541 69.7278 83.8875C67.3666 85.3209 64.6942 86.1664 61.9363 86.3526C53.4462 87.1975 44.9654 84.6601 38.3437 79.2938L36.6922 77.6467C32.9584 74.1916 28.2433 71.9746 23.1949 71.3005C18.1465 70.6264 13.0126 71.5282 8.49899 73.882L6.6116 75.1762L8.49899 77.0585C12.139 80.176 16.6157 82.1608 21.3751 82.7672C26.1344 83.3736 30.9676 82.575 35.2766 80.4703C38.9371 83.7388 43.2399 86.2113 47.911 87.7304C52.5822 89.2496 57.5193 89.782 62.4081 89.2938C67.9148 88.8231 73.0274 86.2526 76.6817 82.1173C76.4741 84.9665 77.176 87.8081 78.687 90.2349C79.5286 91.594 80.5176 92.8565 81.6361 93.9996C86.6329 98.5713 92.949 101.453 99.6845 102.235C99.0858 103.374 98.416 104.474 97.6791 105.529C92.55 112.87 86.5713 119.583 79.8667 125.529C77.0356 128.117 74.0865 130.47 71.2554 132.823C69.132 131.882 67.0087 130.941 64.8854 130.235C55.1131 126.456 44.6653 124.726 34.193 125.151C23.7207 125.576 13.4484 128.147 4.01639 132.705L0.477509 134.47L2.12897 135.294L0.477509 136L4.01639 137.764C7.38189 139.397 10.8493 140.811 14.3972 142C17.8344 143.097 21.3419 143.962 24.8959 144.588L29.0246 145.294C43.6027 146.985 58.3633 144.538 71.6093 138.235C80.9948 145.482 89.3658 153.949 96.4995 163.411L98.033 165.529L98.9767 167.999L100.038 169.882C95.6053 170.506 91.3261 171.942 87.4163 174.117C85.9105 174.961 84.4885 175.946 83.1696 177.058L80.9283 179.294C80.2234 180.099 79.5918 180.965 79.0409 181.882C77.8284 183.832 77.138 186.06 77.0356 188.352C76.977 188.9 76.977 189.452 77.0356 189.999C73.3813 185.864 68.2687 183.294 62.762 182.823C57.8816 182.319 52.9494 182.833 48.2786 184.331C43.6079 185.83 39.3007 188.281 35.6305 191.529C31.313 189.301 26.4292 188.402 21.5987 188.947C16.7682 189.491 12.2089 191.455 8.49899 194.588L6.84753 196.235L8.49899 197.529C12.9074 200.022 17.9792 201.101 23.0241 200.616C28.0689 200.132 32.8415 198.109 36.6922 194.823L38.3437 193.176C44.9654 187.81 53.4462 185.272 61.9363 186.117C64.6942 186.303 67.3666 187.149 69.7278 188.582C72.0889 190.016 74.0695 191.995 75.502 194.352C75.502 194.941 76.0918 195.529 76.3278 196.235L78.0972 196.941C80.4899 198.348 82.5028 200.315 83.9621 202.673C85.4214 205.03 86.283 207.706 86.4726 210.47C86.9291 214.673 86.5269 218.925 85.2901 222.969C84.0534 227.013 82.0078 230.765 79.2769 233.999L77.6254 235.646C74.2549 239.403 72.1834 244.141 71.7162 249.161C71.2489 254.18 72.4107 259.217 75.0302 263.529L76.3278 265.529L77.9792 263.764C81.1704 260.216 83.2061 255.786 83.817 251.059C84.4279 246.332 83.5851 241.532 81.4002 237.293C84.8556 233.684 87.5043 229.386 89.1717 224.681C90.839 219.976 91.4871 214.972 91.0732 209.999C90.6012 204.507 88.0238 199.409 83.8774 195.764C84.9713 195.94 86.0865 195.94 87.1804 195.764C88.9032 195.468 90.5483 194.828 92.0169 193.882C95.3543 191.473 98.1345 188.378 100.17 184.806C102.205 181.234 103.447 177.268 103.813 173.176L105.701 174.235L107.116 175.176C111.314 177.923 115.262 181.033 118.912 184.47C124.579 189.693 129.862 195.315 134.72 201.293C129.496 211.758 126.675 223.252 126.462 234.94C126.548 246.48 129.336 257.841 134.602 268.117L136.253 271.646L137.079 269.882L138.258 271.646L140.028 268.117C145.184 257.8 147.965 246.466 148.167 234.94C148.156 223.258 145.537 211.724 140.5 201.176C145.348 195.226 150.59 189.606 156.189 184.352C159.256 181.646 162.441 178.941 165.862 176.47L168.103 175.058L169.401 174.117L171.288 173.058C172.007 177.436 173.483 181.656 175.653 185.529C176.47 187.012 177.46 188.394 178.602 189.646C179.297 190.517 180.089 191.306 180.961 191.999C181.749 192.693 182.621 193.286 183.556 193.764C185.025 194.71 186.67 195.35 188.393 195.646C189.486 195.824 190.602 195.824 191.696 195.646C187.549 199.291 184.972 204.39 184.5 209.882C183.992 214.722 184.518 219.615 186.043 224.238C187.568 228.862 190.057 233.11 193.347 236.705C191.197 241.003 190.418 245.855 191.114 250.608C191.81 255.361 193.947 259.788 197.24 263.293L198.891 265.058L200.189 263.058C202.762 258.71 203.864 253.652 203.333 248.631C202.802 243.61 200.666 238.893 197.24 235.176L195.588 233.529C192.896 230.275 190.883 226.518 189.667 222.477C188.452 218.436 188.058 214.194 188.511 209.999C188.811 207.285 189.761 204.682 191.28 202.409C192.799 200.137 194.843 198.261 197.24 196.941L199.009 196.235C199.212 195.578 199.489 194.947 199.835 194.352C201.26 191.988 203.239 190.004 205.602 188.569C207.964 187.135 210.641 186.294 213.401 186.117C217.606 185.673 221.858 186.068 225.909 187.28C229.96 188.492 233.728 190.496 236.994 193.176L238.763 194.823C242.595 198.099 247.348 200.117 252.372 200.601C257.396 201.086 262.448 200.013 266.838 197.529L268.018 196.235L266.366 194.588C262.726 191.47 258.25 189.485 253.49 188.879C248.731 188.273 243.898 189.071 239.589 191.176C235.928 187.907 231.625 185.435 226.954 183.916C222.283 182.397 217.346 181.864 212.457 182.352C206.94 182.787 201.815 185.364 198.184 189.529V187.882C198.025 185.599 197.338 183.385 196.178 181.411C195.588 180.588 194.999 179.646 194.291 178.823L191.932 176.588C190.634 175.448 189.209 174.461 187.685 173.646C186.104 172.722 184.447 171.935 182.73 171.294C180.283 170.418 177.754 169.788 175.181 169.411L176.243 167.529L177.186 166.117L178.602 163.999C185.768 154.566 194.135 146.102 203.492 138.823C216.74 145.12 231.499 147.566 246.077 145.882C247.492 145.882 248.908 145.882 250.323 145.176C253.874 144.536 257.381 143.671 260.822 142.588ZM261.648 75.9997C258.832 77.7278 255.659 78.7952 252.369 79.1213C249.079 79.4473 245.758 79.0236 242.656 77.882C245.481 76.178 248.653 75.1247 251.938 74.799C255.224 74.4734 258.541 74.8836 261.648 75.9997ZM197.948 12.941C199.127 16.008 199.57 19.3076 199.243 22.576C198.915 25.8445 197.825 28.9911 196.06 31.7645C194.908 28.6924 194.479 25.3973 194.807 22.1336C195.134 18.8699 196.209 15.7248 197.948 12.941ZM77.2715 12.941C78.9914 15.7342 80.0454 18.884 80.3522 22.1475C80.659 25.411 80.2103 28.7012 79.0409 31.7645C77.321 28.9713 76.267 25.8216 75.9603 22.5581C75.6535 19.2946 76.1021 16.0043 77.2715 12.941ZM13.5714 75.9997C16.6582 74.8853 19.9564 74.4759 23.223 74.8017C26.4895 75.1274 29.6411 76.1801 32.4455 77.882C29.3634 79.0222 26.061 79.4453 22.7901 79.1191C19.5191 78.7928 16.3661 77.7259 13.5714 75.9997ZM13.5714 195.646C16.3661 193.92 19.5191 192.853 22.7901 192.527C26.061 192.201 29.3634 192.624 32.4455 193.764C29.6411 195.466 26.4895 196.519 23.223 196.844C19.9564 197.17 16.6582 196.761 13.5714 195.646ZM77.2715 258.705C76.138 255.644 75.7292 252.363 76.0771 249.118C76.4249 245.873 77.52 242.752 79.2769 239.999C80.4104 243.061 80.8191 246.342 80.4713 249.586C80.1234 252.831 79.0283 255.952 77.2715 258.705ZM197.948 258.705C196.219 255.939 195.149 252.814 194.822 249.571C194.495 246.328 194.918 243.053 196.06 239.999C197.824 242.751 198.913 245.878 199.241 249.128C199.569 252.377 199.126 255.658 197.948 258.705ZM261.648 195.646C258.541 196.763 255.224 197.173 251.938 196.847C248.653 196.521 245.481 195.468 242.656 193.764C245.758 192.623 249.079 192.199 252.369 192.525C255.659 192.851 258.832 193.918 261.648 195.646ZM184.618 81.6467L185.562 81.0585C186.504 80.4596 187.541 80.0222 188.629 79.7644C190.367 79.2945 192.199 79.2945 193.937 79.7644C194.116 80.7762 194.116 81.8114 193.937 82.8232C193.92 84.2471 193.598 85.651 192.993 86.9408L192.403 87.9997C190.333 90.7786 187.718 93.1085 184.717 94.8478C181.715 96.5871 178.391 97.6995 174.945 98.1173C175.947 91.5985 179.407 85.7073 184.618 81.6467ZM138.258 8.82339C142.223 17.7988 144.31 27.4865 144.392 37.2939C144.372 45.9028 142.773 54.4354 139.674 62.4703C139.326 63.7302 138.851 64.952 138.258 66.1174C138.034 65.4309 137.758 64.7624 137.433 64.1174C137.208 64.8038 136.932 65.4724 136.607 66.1174L135.191 62.4703C132.185 54.4135 130.627 45.8906 130.591 37.2939C130.633 27.4943 132.68 17.8064 136.607 8.82339C136.932 9.4684 137.208 10.1369 137.433 10.8234C137.758 10.1784 138.034 9.50982 138.258 8.82339ZM82.2259 88.3526C81.219 86.8134 80.6859 85.0139 80.6924 83.1761C80.5139 82.1643 80.5139 81.1292 80.6924 80.1173C82.4305 79.6475 84.2627 79.6475 86.0007 80.1173C87.0737 80.418 88.1043 80.8528 89.0678 81.4114L91.0732 81.6467C95.3963 85.2037 98.423 90.083 99.6845 95.5291C99.7513 96.5083 99.7513 97.491 99.6845 98.4702C96.2593 98.0372 92.9574 96.9177 89.9774 95.1789C86.9973 93.4402 84.4008 91.1181 82.3439 88.3526H82.2259ZM9.32474 136.588L11.3301 135.882L9.32474 135.058C18.4432 131.101 28.2812 129.059 38.2257 129.059C48.1702 129.059 58.0081 131.101 67.1266 135.058L65.0033 135.882L67.4805 136.588C58.3294 140.579 48.4495 142.639 38.4616 142.639C28.4738 142.639 18.5939 140.579 9.44269 136.588H9.32474ZM88.5959 191.529C86.2496 192.471 83.6286 192.471 81.2822 191.529C80.816 190.167 80.6692 188.716 80.8533 187.288C81.0373 185.86 81.5473 184.494 82.3439 183.294C83.5331 181.32 85.1443 179.633 87.0624 178.352C90.8738 175.732 95.2284 174.003 99.8024 173.294C98.7528 180.136 95.1243 186.322 89.6576 190.588L88.5959 191.529ZM138.258 262.823C138.034 262.136 137.758 261.468 137.433 260.823C137.208 261.509 136.932 262.178 136.607 262.823C132.68 253.84 130.633 244.152 130.591 234.352C130.665 224.442 132.71 214.645 136.607 205.529C136.932 206.174 137.208 206.842 137.433 207.529C137.758 206.884 138.034 206.215 138.258 205.529C142.193 214.638 144.277 224.435 144.392 234.352C144.31 244.16 142.223 253.847 138.258 262.823ZM185.444 190.588C182.635 188.571 180.282 185.991 178.534 183.012C176.787 180.034 175.685 176.723 175.299 173.294C179.843 173.98 184.164 175.712 187.921 178.352C189.901 179.597 191.558 181.29 192.757 183.294L193.347 184.352C194.226 186.664 194.226 189.217 193.347 191.529C190.959 192.466 188.304 192.466 185.916 191.529L185.444 190.588ZM173.647 163.999C172.586 165.647 171.642 167.294 170.698 168.941C168.945 169.766 167.25 170.709 165.626 171.764C155.358 179.192 146.152 187.979 138.258 197.882L137.433 196.941L136.607 197.882C128.693 187.949 119.398 179.194 109.004 171.882C107.419 170.828 105.764 169.884 104.049 169.058C103.198 167.336 102.212 165.684 101.1 164.117L98.151 159.999C97.1286 158.588 96.0669 157.294 94.9659 156.117C88.8825 149.056 82.1705 142.559 74.9122 136.705L75.8559 136C75.5992 135.665 75.2784 135.385 74.9122 135.176C82.1417 129.333 88.8512 122.877 94.9659 115.882C97.0893 113.294 99.2126 110.588 101.1 107.764C102.212 106.197 103.198 104.545 104.049 102.823C105.764 101.997 107.419 101.054 109.004 99.9996C111.829 98.1127 114.546 96.0704 117.143 93.882C124.296 87.8543 130.853 81.157 136.725 73.882L137.551 74.8232L138.258 73.882C144.162 81.0544 150.674 87.7064 157.722 93.7644C160.317 95.882 163.031 97.882 165.862 99.882C167.486 100.937 169.181 101.88 170.934 102.706C171.878 104.353 172.822 106 173.883 107.647C181.295 117.989 190.154 127.22 200.189 135.058L199.127 135.882L200.189 136.588C191.444 143.5 183.527 151.395 176.596 160.117C176.007 161.176 175.063 162.588 173.647 163.999ZM251.503 141.176C249.124 141.652 246.722 142.005 244.307 142.235H240.768H237.111C227.097 142.173 217.194 140.133 207.975 136.235L209.98 135.529L207.975 134.705C217.194 130.807 227.097 128.768 237.111 128.705H240.768H244.307C246.722 128.935 249.124 129.289 251.503 129.764C256.394 130.847 261.172 132.383 265.777 134.352L263.771 135.176L265.777 135.882C261.197 138.093 256.418 139.865 251.503 141.176Z" fill="#EEEEEE"/>
<path d="M136.371 94.9409L137.551 95.8821L138.73 94.9409C140.17 93.8934 141.354 92.5342 142.191 90.9652C143.029 89.3962 143.499 87.6584 143.567 85.8821V84.7056H142.387H141.09C139.813 85.1844 138.619 85.8592 137.551 86.7056C136.526 85.8601 135.37 85.1847 134.13 84.7056H132.832H131.535V85.6468C131.632 87.4498 132.114 89.2112 132.948 90.8138C133.782 92.4165 134.949 93.8234 136.371 94.9409ZM137.551 90.1174C138.574 88.8484 139.918 87.8739 141.444 87.2939C140.872 89.7112 139.5 91.8661 137.551 93.4115C135.684 91.8146 134.364 89.6757 133.776 87.2939C135.249 87.9098 136.545 88.8799 137.551 90.1174Z" fill="#EEEEEE"/>
<path d="M126.462 103.411C127.742 103.712 129.075 103.712 130.355 103.411C132.607 103.203 134.724 102.251 136.371 100.706L137.079 99.882L138.258 101.176C139.961 102.708 142.11 103.657 144.392 103.882C145.673 104.178 147.005 104.178 148.285 103.882H149.465L148.757 102.823L147.813 101.647C146.492 100.418 144.872 99.5551 143.113 99.1424C141.355 98.7298 139.519 98.7819 137.786 99.2938C136.073 98.7799 134.255 98.7268 132.514 99.1401C130.774 99.5533 129.175 100.418 127.878 101.647C127.5 101.984 127.181 102.382 126.934 102.823L126.226 103.882L126.462 103.411ZM128.703 101.882C129.312 101.396 129.987 101 130.709 100.706C131.957 100.114 133.343 99.8701 134.719 99.9997C133.441 101.049 131.883 101.704 130.237 101.882C129.885 101.937 129.527 101.937 129.175 101.882H128.703ZM143.921 101.882C142.317 101.676 140.805 101.023 139.556 99.9997C140.931 99.8869 142.313 100.13 143.567 100.706C144.272 101.031 144.944 101.425 145.572 101.882C145.181 101.942 144.783 101.942 144.392 101.882H143.921Z" fill="#EEEEEE"/>
<path d="M213.165 67.9998C213.007 69.8799 213.586 71.7479 214.78 73.2115C215.974 74.6751 217.69 75.6203 219.568 75.8487C221.446 76.0771 223.339 75.5709 224.851 74.4364C226.363 73.3019 227.375 71.6273 227.674 69.7645C228.443 67.6898 228.694 65.46 228.406 63.2672C228.118 61.0743 227.3 58.984 226.023 57.1763C224.68 55.4715 222.992 54.0684 221.069 53.0586C219.567 50.1104 217.027 47.8192 213.935 46.6249C210.844 45.4307 207.419 45.4175 204.318 46.5881L202.784 47.1763C201.64 47.78 200.678 48.6757 199.994 49.7719C199.311 50.8681 198.931 52.1255 198.894 53.4158C198.858 54.706 199.165 55.9829 199.785 57.1161C200.404 58.2492 201.315 59.1981 202.422 59.8658C203.53 60.5334 204.795 60.896 206.089 60.9164C207.383 60.9369 208.66 60.6145 209.788 59.9822C210.916 59.3498 211.856 58.4302 212.512 57.3172C213.167 56.2042 213.515 54.9376 213.519 53.6469C213.515 52.4089 213.19 51.193 212.575 50.1174L214.699 51.2939C216.325 52.4732 217.558 54.1128 218.237 55.9998C220.099 56.6758 221.733 57.8576 222.956 59.4116C223.394 60.0918 223.788 60.7991 224.136 61.5292C223.005 60.9524 221.748 60.6692 220.479 60.7057C218.539 60.7057 216.679 61.4741 215.307 62.8421C213.936 64.21 213.165 66.0652 213.165 67.9998ZM206.087 57.2939C205.612 57.2942 205.142 57.1991 204.705 57.0144C204.268 56.8298 203.872 56.5592 203.542 56.2189C203.212 55.8786 202.954 55.4755 202.783 55.0337C202.612 54.5918 202.533 54.1202 202.548 53.6469C202.572 53.0179 202.758 52.4057 203.088 51.8697C203.419 51.3337 203.883 50.8921 204.436 50.588H205.379H206.087C206.614 50.4925 207.156 50.5136 207.674 50.6498C208.192 50.786 208.673 51.034 209.085 51.3762C209.496 51.7185 209.827 52.1467 210.054 52.6306C210.281 53.1144 210.398 53.6421 210.398 54.1763C210.398 54.7105 210.281 55.2381 210.054 55.722C209.827 56.2058 209.496 56.634 209.085 56.9763C208.673 57.3186 208.192 57.5666 207.674 57.7028C207.156 57.839 206.614 57.86 206.087 57.7645V57.2939ZM224.136 67.9998C224.191 68.2318 224.191 68.4736 224.136 68.7056V69.5292C223.839 70.1459 223.368 70.6634 222.782 71.0184C222.196 71.3735 221.518 71.5509 220.833 71.5292C219.99 71.3764 219.228 70.9335 218.679 70.2778C218.13 69.622 217.83 68.795 217.83 67.9409C217.83 67.0868 218.13 66.2598 218.679 65.6041C219.228 64.9484 219.99 64.5055 220.833 64.3527C221.74 64.4407 222.582 64.8634 223.193 65.5381C223.804 66.2127 224.14 67.0907 224.136 67.9998Z" fill="#EEEEEE"/>
<path d="M149.111 66.1175V68.4705L151.352 67.7646C156.132 66.1434 160.284 63.0709 163.224 58.9778C166.165 54.8847 167.747 49.9764 167.749 44.9411V42.5882L165.508 43.294C160.728 44.9152 156.576 47.9877 153.636 52.0808C150.695 56.1739 149.113 61.0822 149.111 66.1175ZM163.974 47.7646C163.459 51.0024 162.2 54.0777 160.297 56.7509C158.394 59.4241 155.898 61.623 153.004 63.1763C153.536 59.9444 154.801 56.8764 156.702 54.2057C158.604 51.535 161.091 49.332 163.974 47.7646Z" fill="#EEEEEE"/>
<path d="M231.095 108.235L231.685 106H229.326C224.179 105.88 219.127 107.386 214.89 110.302C210.652 113.217 207.448 117.394 205.733 122.235L205.025 124.588H207.385C212.561 124.706 217.643 123.188 221.902 120.25C226.161 117.313 229.379 113.107 231.095 108.235ZM226.495 109.647C224.938 112.592 222.725 115.141 220.026 117.099C217.326 119.057 214.212 120.371 210.924 120.941C212.409 117.897 214.593 115.245 217.298 113.201C220.004 111.157 223.155 109.778 226.495 109.176V109.647Z" fill="#EEEEEE"/>
<path d="M161.851 76.9411C164.327 77.0062 166.79 76.559 169.084 75.6275C171.378 74.6961 173.454 73.3007 175.181 71.5293L176.714 69.7646L174.709 68.7058C171.206 67.0887 167.296 66.5606 163.488 67.1901C159.68 67.8195 156.15 69.5775 153.358 72.2352L151.824 73.9999L153.83 75.0587C156.289 76.3825 159.057 77.032 161.851 76.9411ZM170.108 70.9411C166.566 73.0597 162.341 73.7339 158.312 72.8234C160.132 71.7188 162.152 70.9838 164.258 70.6608C166.363 70.3377 168.512 70.433 170.58 70.9411H170.108Z" fill="#EEEEEE"/>
<path d="M205.379 98.5879L204.2 96.5879L202.43 98.1173C200.697 99.8593 199.341 101.939 198.448 104.226C197.555 106.513 197.144 108.959 197.24 111.411C197.164 114.159 197.815 116.877 199.127 119.294L200.307 121.294L202.076 119.764C204.692 116.972 206.406 113.459 206.995 109.683C207.584 105.907 207.021 102.041 205.379 98.5879ZM201.133 114.705C200.279 110.672 200.996 106.466 203.138 102.941C204.028 106.973 203.309 111.193 201.133 114.705Z" fill="#EEEEEE"/>
<path d="M186.269 35.4119H188.628L187.567 33.2942C186.008 30.2854 183.659 27.7551 180.772 25.9732C177.884 24.1913 174.565 23.2247 171.17 23.1766C170.23 23.0633 169.279 23.0633 168.339 23.1766H166.097L167.041 25.2943C168.645 28.257 171.007 30.7431 173.887 32.4996C176.768 34.2562 180.063 35.2204 183.438 35.2942L186.269 35.4119ZM172.114 26.5884C176.176 26.9035 179.949 28.8063 182.612 31.8825C178.591 31.6039 174.832 29.7924 172.114 26.8237V26.5884Z" fill="#EEEEEE"/>
<path d="M241.594 85.6469L239.471 84.7057V87.0587C239.357 87.9964 239.357 88.9444 239.471 89.8822C239.577 93.2399 240.571 96.51 242.353 99.3611C244.134 102.212 246.64 104.543 249.615 106.117L251.857 107.059V104.706C251.92 103.805 251.92 102.901 251.857 102C251.797 98.6013 250.81 95.2832 249.002 92.4021C247.194 89.5209 244.633 87.1855 241.594 85.6469ZM242.538 90.5881C245.616 93.2624 247.557 97.0069 247.964 101.059C244.996 98.5436 243.064 95.0246 242.538 91.1763V90.5881Z" fill="#EEEEEE"/>
<path d="M142.977 112.588C142.752 111.902 142.476 111.233 142.151 110.588V109.529L141.207 110.353C139.835 111.618 138.784 113.191 138.14 114.941C137.531 113.202 136.521 111.631 135.191 110.353L134.248 109.529L133.658 110.588C133.283 111.209 133.004 111.884 132.832 112.588C132.721 113.565 132.721 114.552 132.832 115.529C132.772 118.574 133.726 121.553 135.545 124L136.725 125.294L137.668 126.117V124.941L138.258 126.117L139.202 125.294C140.472 124.014 141.463 122.486 142.113 120.805C142.763 119.125 143.057 117.328 142.977 115.529C143.146 114.556 143.146 113.561 142.977 112.588ZM140.971 112.588V113.882C141.025 114.312 141.025 114.747 140.971 115.176C141.092 117.775 140.345 120.34 138.848 122.47C138.603 121.267 138.603 120.027 138.848 118.823C138.99 116.667 139.725 114.591 140.971 112.823V112.588ZM134.248 112.588C135.536 114.423 136.273 116.586 136.371 118.823C136.561 120.032 136.561 121.262 136.371 122.47C134.832 120.355 134.044 117.788 134.13 115.176C134.078 114.39 134.118 113.601 134.248 112.823V112.588Z" fill="#EEEEEE"/>
<path d="M169.283 105.059H168.339V104.118L166.452 104.823C159.132 107.161 152.655 111.577 147.813 117.529C144.907 121.054 142.596 125.028 140.972 129.294H137.315H133.776C132.107 125.049 129.8 121.082 126.934 117.529C122.092 111.577 115.615 107.161 108.296 104.823L106.29 104.118V105.059H105.347L106.055 107.059C108.028 113.043 111.384 118.481 115.85 122.936C120.317 127.391 125.77 130.737 131.77 132.706C131.837 133.881 131.837 135.06 131.77 136.235C131.77 137.412 131.77 138.588 131.77 139.765C125.912 141.731 120.593 145.03 116.232 149.399C111.871 153.768 108.589 159.089 106.644 164.941L105.937 166.941H106.88V167.882L108.886 167.176C114.759 165.267 120.112 162.035 124.531 157.731C128.949 153.426 132.315 148.164 134.366 142.353H137.905H141.561C143.588 148.177 146.945 153.452 151.367 157.76C155.79 162.068 161.156 165.292 167.041 167.176L168.929 167.882V166.941H169.873L169.165 164.941C167.196 159.102 163.905 153.794 159.548 149.428C155.191 145.062 149.884 141.755 144.039 139.765V136.235C144.039 134.98 144.039 133.804 144.039 132.706C149.879 130.671 155.177 127.336 159.531 122.953C163.885 118.57 167.18 113.255 169.165 107.412L169.283 105.059ZM130.473 128.588C130.453 128.98 130.453 129.373 130.473 129.765C125.566 127.855 121.107 124.958 117.372 121.254C113.638 117.55 110.709 113.118 108.768 108.235H109.829C109.874 107.884 109.874 107.528 109.829 107.176C117.804 110.193 124.506 115.839 128.821 123.176C129.841 124.92 130.748 126.728 131.535 128.588H130.473ZM109.829 163.882C109.874 163.531 109.874 163.175 109.829 162.823H108.768C110.727 157.951 113.662 153.529 117.395 149.827C121.127 146.125 125.577 143.221 130.473 141.294C130.493 141.686 130.493 142.078 130.473 142.47H131.535C129.611 147.35 126.687 151.775 122.949 155.462C119.212 159.149 114.743 162.017 109.829 163.882ZM145.218 142.941C145.152 142.552 145.152 142.154 145.218 141.765C150.1 143.693 154.533 146.599 158.246 150.301C161.958 154.004 164.872 158.426 166.806 163.294H165.744C165.788 163.645 165.788 164.001 165.744 164.353C160.856 162.468 156.413 159.592 152.697 155.906C148.982 152.22 146.073 147.806 144.157 142.941H145.218ZM141.561 135.882C141.62 136.901 141.62 137.922 141.561 138.941H140.972H137.787H134.602H133.894C133.952 137.922 133.952 136.901 133.894 135.882C133.952 134.824 133.952 133.764 133.894 132.706H134.602V132.117H137.787H140.972V132.706H141.561C141.463 133.772 141.306 134.833 141.09 135.882H141.561ZM144.746 129.882C144.718 129.491 144.718 129.097 144.746 128.706H143.685C144.422 126.823 145.33 125.012 146.398 123.294C150.698 115.989 157.35 110.35 165.272 107.294C165.316 107.646 165.316 108.001 165.272 108.353H166.334C164.366 113.277 161.387 117.737 157.588 121.445C153.789 125.153 149.254 128.027 144.275 129.882H144.746Z" fill="#EEEEEE"/>
</svg>
