<svg width="390" height="234" viewBox="0 0 390 234" fill="none" xmlns="http://www.w3.org/2000/svg">
<path d="M121.002 126.781C123.89 126.763 126.7 127.714 128.98 129.482C131.26 131.249 132.877 133.731 133.572 136.526C134.267 139.322 133.998 142.269 132.81 144.894C131.622 147.519 129.583 149.669 127.021 150.998L124.323 152.033C120.666 153.399 116.729 153.848 112.858 153.343C108.986 152.838 105.297 151.393 102.116 149.135C99.0472 146.87 96.4998 143.976 94.6444 140.649C91.3611 138.811 88.4704 136.35 86.1351 133.404C83.8877 130.224 82.4489 126.546 81.9427 122.688C81.4366 118.83 81.8782 114.907 83.2295 111.256C83.8132 108.922 85.0433 106.798 86.7793 105.127C88.5154 103.456 90.6875 102.306 93.0478 101.807C95.408 101.308 97.8613 101.481 100.128 102.306C102.394 103.131 104.382 104.575 105.865 106.473C107.348 108.371 108.266 110.647 108.514 113.04C108.763 115.434 108.331 117.848 107.27 120.009C106.208 122.17 104.558 123.989 102.509 125.26C100.461 126.53 98.0948 127.201 95.6821 127.194C93.5156 127.26 91.3695 126.761 89.4558 125.746C89.9859 127.07 90.6833 128.323 91.5312 129.471C93.6828 132.205 96.5585 134.285 99.833 135.474C101.029 138.794 103.199 141.679 106.059 143.753C107.206 144.607 108.463 145.303 109.795 145.823C108.714 143.874 108.161 141.677 108.189 139.449C108.218 137.221 108.828 135.039 109.959 133.117C111.09 131.196 112.703 129.601 114.639 128.49C116.575 127.379 118.768 126.79 121.002 126.781ZM95.6821 120.778C96.8453 120.82 97.9982 120.547 99.0181 119.988C100.038 119.428 100.886 118.603 101.473 117.601C102.06 116.599 102.363 115.456 102.351 114.295C102.338 113.135 102.01 111.999 101.401 111.01C100.792 110.02 99.9257 109.214 98.8938 108.677C97.862 108.14 96.7033 107.892 95.5414 107.96C94.3794 108.028 93.2577 108.409 92.2956 109.062C91.3336 109.715 90.5673 110.617 90.0784 111.67C89.9885 112.149 89.9885 112.641 90.0784 113.119C89.9813 113.528 89.9813 113.953 90.0784 114.361C90.0653 115.929 90.6281 117.447 91.6604 118.629C92.6928 119.811 94.1234 120.576 95.6821 120.778ZM121.002 133.197C119.52 133.466 118.179 134.245 117.214 135.399C116.248 136.552 115.72 138.008 115.72 139.51C115.72 141.013 116.248 142.468 117.214 143.622C118.179 144.775 119.52 145.555 121.002 145.823H122.455H123.908C124.933 145.333 125.803 144.572 126.425 143.623C127.047 142.675 127.397 141.574 127.436 140.442C127.555 139.532 127.477 138.608 127.207 137.731C126.937 136.854 126.482 136.046 125.873 135.359C125.263 134.673 124.513 134.124 123.673 133.751C122.833 133.378 121.922 133.189 121.002 133.197Z" fill="#EEEEEE"/>
<path d="M80.3239 47.9182H76.173L76.7956 43.5715C79.8394 35.072 85.4844 27.7414 92.9329 22.6158C100.381 17.4901 109.257 14.8285 118.304 15.0072H122.455L121.418 19.1469C118.458 27.6346 112.898 34.9795 105.524 40.1427C98.1491 45.3059 89.3335 48.026 80.3239 47.9182ZM85.3049 41.9156C91.156 40.8578 96.6716 38.4298 101.398 34.8314C106.125 31.2329 109.927 26.5668 112.493 21.2168C106.666 22.3367 101.178 24.7886 96.4603 28.38C91.7429 31.9714 87.9245 36.6045 85.3049 41.9156Z" fill="#EEEEEE"/>
<path d="M222.076 113.533V117.673C222.073 126.532 219.289 135.168 214.115 142.369C208.942 149.571 201.638 154.976 193.228 157.829L189.284 159.07V154.931C189.349 146.086 192.157 137.479 197.322 130.289C202.487 123.1 209.757 117.68 218.133 114.775L222.076 113.533ZM195.926 149.963C201.048 147.242 205.472 143.38 208.855 138.677C212.239 133.975 214.49 128.558 215.435 122.848C210.158 125.471 205.57 129.289 202.038 133.998C198.506 138.706 196.129 144.174 195.096 149.963H195.926Z" fill="#EEEEEE"/>
<path d="M131.795 21.217L133.87 24.7358C136.086 29.0225 137.225 33.7814 137.191 38.604C137.266 42.9623 136.439 47.2892 134.761 51.3139C133.082 55.3385 130.589 58.9743 127.436 61.9936L124.323 64.6844L122.455 61.1656C119.62 55.0503 118.697 48.225 119.808 41.5793C120.918 34.9335 124.011 28.7755 128.682 23.9079L131.795 21.217ZM126.399 53.0931C130.199 46.9003 131.393 39.4607 129.719 32.3944C126.121 38.4329 124.936 45.6012 126.399 52.4722V53.0931Z" fill="#EEEEEE"/>
<path d="M198.209 98.6303C203.058 98.4671 207.862 99.6112 212.114 101.942L215.85 104.012L213.152 107.117C208.239 111.793 202.028 114.886 195.328 115.993C188.629 117.101 181.75 116.171 175.587 113.326L171.851 111.464L174.756 108.359C177.776 105.205 181.42 102.711 185.457 101.036C189.495 99.3617 193.837 98.5423 198.209 98.6303ZM204.02 105.875C196.932 104.273 189.498 105.459 183.266 109.187C190.353 110.789 197.787 109.602 204.02 105.875Z" fill="#EEEEEE"/>
<path d="M45.8715 46.2623C51.1068 49.0323 55.5151 53.1331 58.6495 58.1493C61.784 63.1656 63.5334 68.919 63.7203 74.8266C63.8231 76.481 63.8231 78.14 63.7203 79.7943V83.9341L59.7769 82.2782C54.5221 79.498 50.1126 75.361 47.0092 70.2997C43.9059 65.2385 42.2227 59.4388 42.1357 53.5069C41.9219 51.9272 41.9219 50.326 42.1357 48.7462V44.6064L45.8715 46.2623ZM56.0411 73.5847C55.3667 66.444 51.945 59.8414 46.4941 55.1628C47.1255 62.3161 50.5551 68.9339 56.0411 73.5847Z" fill="#EEEEEE"/>
<path d="M156.077 171.696H161.058C166.997 171.826 172.795 173.523 177.862 176.613C182.929 179.704 187.085 184.078 189.907 189.29L191.567 193.016H187.416C185.833 193.232 184.227 193.232 182.643 193.016C176.639 192.946 170.765 191.254 165.649 188.12C160.532 184.985 156.364 180.525 153.587 175.215L151.926 171.49L156.077 171.696ZM180.568 186.807C175.805 181.382 169.098 178.037 161.889 177.492C166.679 182.882 173.37 186.218 180.568 186.807Z" fill="#EEEEEE"/>
<path d="M458.469 -16.8689C464.697 -14.7416 470.796 -12.2535 476.733 -9.41733L482.959 -6.31253L479.846 -5.07061L482.959 -3.62171L476.733 -0.516863C460.123 7.74475 441.978 12.4879 423.44 13.4141C404.902 14.3403 386.372 11.4294 369.018 4.86478C365.282 3.62285 361.338 1.96697 357.603 0.311067C352.622 4.45082 347.64 8.59058 342.659 13.1443C330.863 23.605 320.344 35.4157 311.32 48.3322L309.66 50.816L307.792 54.1278C312.319 54.7906 316.768 55.8999 321.075 57.4396C327.958 59.8144 334.255 63.6248 339.546 68.617C341.452 70.6815 343.188 72.8966 344.735 75.2406C347.393 79.5104 348.628 84.5099 348.263 89.5227C354.652 82.1945 363.669 77.6605 373.376 76.8965C381.977 76.0375 390.664 76.9742 398.882 79.647C407.101 82.3197 414.671 86.6699 421.111 92.4205C428.692 88.7174 437.196 87.3124 445.569 88.3793C453.943 89.4462 461.819 92.9382 468.224 98.4232L471.129 101.321L467.601 103.598C459.876 107.968 450.988 109.856 442.149 109.004C433.309 108.152 424.948 104.602 418.205 98.8371L415.092 95.9393C409.347 91.2246 402.717 87.6981 395.59 85.5659C388.464 83.4336 380.983 82.7381 373.583 83.5201C368.727 83.8305 364.018 85.311 359.861 87.8345C355.704 90.3581 352.223 93.8494 349.716 98.0092C349.107 99.0546 348.62 100.166 348.263 101.321L345.15 102.563C340.968 105.019 337.444 108.448 334.878 112.557C332.312 116.666 330.78 121.333 330.414 126.159C329.653 133.538 330.362 140.993 332.499 148.097C334.636 155.202 338.159 161.815 342.867 167.557L345.773 170.455C351.735 177.042 355.418 185.365 356.277 194.197C357.136 203.03 355.127 211.904 350.546 219.511L348.263 223.03L345.358 219.925C339.743 213.683 336.161 205.889 335.087 197.572C334.012 189.256 335.495 180.81 339.339 173.353C333.476 166.8 329.105 159.06 326.526 150.664C323.946 142.267 323.22 133.414 324.396 124.711C325.226 115.048 329.761 106.077 337.056 99.6651C330.166 99.795 323.461 97.4433 318.169 93.0414C316.684 91.7669 315.296 90.3831 314.018 88.9018C312.009 86.6987 310.268 84.267 308.83 81.6572C307.154 78.8349 305.763 75.8534 304.679 72.7567C304.24 71.7549 303.893 70.7158 303.641 69.6519C303.641 67.375 302.396 65.3052 301.773 63.0283V59.7165L298.453 61.5794L296.17 63.2353L292.226 65.7191L288.698 68.41C273.262 80.5158 259.328 94.4129 247.189 109.807L248.85 113.533C263.214 144.93 264.557 180.715 252.585 213.094C250.717 218.062 248.642 222.823 246.359 227.583L243.246 233.793L241.793 230.688L240.34 233.793L237.435 227.583C235.06 222.887 232.981 218.048 231.208 213.094C225.572 199.197 222.479 184.405 222.076 169.42C222.019 150.234 226.051 131.254 233.906 113.74C234.373 112.461 234.927 111.217 235.567 110.014C223.373 94.6694 209.444 80.7784 194.058 68.617L186.586 63.4423C184.774 62.0754 182.827 60.8963 180.775 59.9235V63.2353C180.775 65.5122 179.737 67.582 179.115 69.8589L178.077 72.9637C174.959 82.8341 168.504 91.32 159.813 96.9743C155.561 99.695 150.525 100.933 145.493 100.493C153.221 106.42 158.352 115.097 159.813 124.711C160.616 133.222 159.647 141.807 156.969 149.927C154.29 158.048 149.959 165.53 144.247 171.904C148.091 179.361 149.574 187.807 148.499 196.123C147.425 204.44 143.843 212.234 138.228 218.476L135.323 221.581L133.04 218.062C128.431 210.476 126.387 201.614 127.209 192.783C128.031 183.951 131.676 175.616 137.606 169.006L139.059 166.108C143.843 160.406 147.429 153.803 149.604 146.691C151.779 139.58 152.498 132.105 151.719 124.711C151.353 119.884 149.821 115.217 147.255 111.108C144.69 106.999 141.165 103.571 136.983 101.114L133.87 99.8721C133.87 98.6301 132.832 97.5952 132.417 96.5603C129.897 92.4122 126.412 88.9302 122.258 86.4083C118.104 83.8864 113.402 82.3988 108.55 82.0712C93.6122 80.5846 78.6912 85.0489 67.0409 94.4904L64.1352 97.3882C57.566 103.467 49.2702 107.368 40.3881 108.554C31.5059 109.74 22.4735 108.153 14.5322 104.012L11.2115 101.735L14.5322 98.4232C20.9365 92.9382 28.8127 89.4462 37.1863 88.3793C45.56 87.3124 54.0635 88.7174 61.6447 92.4205C68.085 86.6699 75.6553 82.3197 83.8737 79.647C92.0921 76.9742 100.779 76.0375 109.38 76.8965C119.068 77.7246 128.063 82.2471 134.493 89.5227C134.127 84.5099 135.363 79.5104 138.021 75.2406C139.502 72.8495 141.242 70.6283 143.21 68.617C152.001 60.5736 163.113 55.503 174.964 54.1278C173.911 52.1242 172.732 50.1885 171.436 48.3322C162.411 35.4157 151.893 23.605 140.096 13.1443C135.115 8.59058 129.927 4.45082 124.946 0.311067C121.21 1.96697 117.474 3.62285 113.738 4.86478C96.545 11.5126 78.1631 14.5575 59.7382 13.8097C41.3133 13.0619 23.2402 8.53731 6.64551 0.518059L0.419201 -2.58675L3.32481 -4.03565L0.419201 -5.27761L6.64551 -8.38241C12.5668 -11.2547 18.6674 -13.7437 24.9094 -15.834C30.9568 -17.7646 37.128 -19.2859 43.3808 -20.3877L50.6449 -21.6296C76.2936 -24.6046 102.263 -20.2998 125.568 -9.21034C142.081 -21.9613 156.809 -36.8587 169.36 -53.5057L172.058 -57.2315L173.719 -61.5782L175.586 -64.89C167.787 -65.9881 160.258 -68.5144 153.379 -72.3416C150.73 -73.8264 148.228 -75.5591 145.908 -77.5162L141.964 -81.449C140.724 -82.8655 139.613 -84.3895 138.644 -86.0027C136.51 -89.434 135.296 -93.3537 135.115 -97.387C135.012 -98.3502 135.012 -99.3217 135.115 -100.285C128.686 -93.0093 119.691 -88.4867 110.002 -87.6586C101.416 -86.772 92.7381 -87.6758 84.5204 -90.3127C76.3027 -92.9495 68.7246 -97.2618 62.2673 -102.976C54.6711 -99.0558 46.0785 -97.4746 37.5798 -98.4327C29.0811 -99.3909 21.0593 -102.845 14.5322 -108.357L11.6266 -111.255L14.5322 -113.532C22.2883 -117.919 31.2117 -119.816 40.0876 -118.964C48.9634 -118.113 57.3604 -114.553 64.1352 -108.771L67.0409 -105.874C78.6912 -96.432 93.6122 -91.9677 108.55 -93.4543C113.402 -93.7819 118.104 -95.2695 122.258 -97.7914C126.412 -100.313 129.897 -103.795 132.417 -107.943C132.417 -108.978 133.455 -110.013 133.87 -111.255L136.983 -112.497C141.193 -114.973 144.734 -118.435 147.302 -122.582C149.869 -126.729 151.385 -131.438 151.719 -136.301C152.522 -143.696 151.814 -151.177 149.638 -158.292C147.462 -165.407 143.863 -172.009 139.059 -177.698L136.153 -180.596C130.223 -187.206 126.578 -195.541 125.756 -204.373C124.934 -213.205 126.978 -222.066 131.587 -229.652L133.87 -233.171L136.776 -230.066C142.39 -223.825 145.972 -216.03 147.047 -207.713C148.121 -199.397 146.639 -190.951 142.794 -183.494C148.874 -177.144 153.534 -169.581 156.468 -161.304C159.401 -153.026 160.541 -144.222 159.813 -135.473C158.983 -125.81 154.448 -116.839 147.153 -110.427C149.078 -110.737 151.039 -110.737 152.964 -110.427C155.995 -109.906 158.89 -108.78 161.473 -107.115C167.345 -102.878 172.237 -97.4331 175.817 -91.1483C179.398 -84.8635 181.584 -77.8855 182.228 -70.6857L185.549 -72.5485L188.039 -74.2044C195.425 -79.037 202.37 -84.5088 208.793 -90.5564C218.763 -99.7451 228.058 -109.637 236.604 -120.156C227.414 -138.568 222.451 -158.79 222.076 -179.354C222.228 -199.657 227.132 -219.645 236.397 -237.725L239.302 -243.934L240.755 -240.829L242.831 -243.934L245.944 -237.725C255.015 -219.574 259.908 -199.632 260.264 -179.354C260.244 -158.799 255.636 -138.506 246.774 -119.949C255.305 -109.481 264.526 -99.5926 274.377 -90.3494C279.774 -85.5887 285.377 -80.828 291.396 -76.4813L295.339 -73.9975L297.622 -72.3416L300.943 -70.4787C302.207 -78.1811 304.806 -85.6054 308.622 -92.4193C310.06 -95.0292 311.802 -97.4609 313.811 -99.6639C315.034 -101.195 316.427 -102.583 317.962 -103.804C319.348 -105.024 320.882 -106.067 322.528 -106.908C325.111 -108.573 328.006 -109.699 331.037 -110.22C332.961 -110.533 334.924 -110.533 336.848 -110.22C329.553 -116.632 325.018 -125.603 324.188 -135.266C323.295 -143.782 324.22 -152.391 326.903 -160.525C329.586 -168.659 333.966 -176.134 339.754 -182.459C335.971 -190.021 334.6 -198.557 335.824 -206.919C337.049 -215.282 340.81 -223.07 346.603 -229.238L349.508 -232.343L351.791 -228.824C356.318 -221.174 358.258 -212.275 357.323 -203.441C356.389 -194.607 352.63 -186.308 346.603 -179.768L343.697 -176.87C338.96 -171.146 335.417 -164.535 333.279 -157.426C331.14 -150.316 330.449 -142.852 331.245 -135.473C331.773 -130.697 333.444 -126.117 336.117 -122.119C338.79 -118.121 342.386 -114.821 346.603 -112.497L349.716 -111.255C350.073 -110.1 350.56 -108.989 351.169 -107.943C353.676 -103.784 357.157 -100.292 361.314 -97.7688C365.471 -95.2452 370.18 -93.7648 375.036 -93.4543C382.435 -92.6724 389.917 -93.3678 397.043 -95.5001C404.17 -97.6324 410.799 -101.159 416.545 -105.874L419.658 -108.771C426.401 -114.536 434.762 -118.086 443.602 -118.938C452.441 -119.79 461.329 -117.902 469.054 -113.532L471.129 -111.255L468.224 -108.357C461.819 -102.872 453.943 -99.3804 445.569 -98.3135C437.196 -97.2466 428.692 -98.6516 421.111 -102.355C414.671 -96.6041 407.101 -92.2539 398.882 -89.5812C390.664 -86.9085 381.977 -85.9717 373.376 -86.8307C363.669 -87.5947 354.652 -92.1287 348.263 -99.4569V-96.5591C347.984 -92.5436 346.776 -88.6472 344.735 -85.1748C343.697 -83.7258 342.659 -82.07 341.414 -80.621L337.263 -76.6883C334.98 -74.6832 332.473 -72.9468 329.792 -71.5136C327.01 -69.887 324.094 -68.5021 321.075 -67.3739C316.768 -65.8342 312.319 -64.7248 307.792 -64.0621L309.66 -60.7502L311.32 -58.2664L313.811 -54.5406C326.419 -37.9426 341.14 -23.0524 357.603 -10.2453C380.911 -21.324 406.878 -25.6282 432.526 -22.6646C435.017 -22.6646 437.507 -22.6645 439.998 -21.4226C446.245 -20.2965 452.415 -18.7755 458.469 -16.8689ZM459.922 100.286C454.968 97.2457 449.385 95.3677 443.597 94.7939C437.808 94.2202 431.965 94.9658 426.507 96.9743C431.478 99.9723 437.058 101.825 442.839 102.398C448.62 102.971 454.456 102.25 459.922 100.286ZM347.848 211.231C349.923 205.835 350.703 200.03 350.126 194.28C349.55 188.529 347.632 182.993 344.527 178.113C342.5 183.518 341.746 189.316 342.322 195.058C342.897 200.8 344.788 206.334 347.848 211.231ZM135.53 211.231C138.556 206.317 140.411 200.775 140.951 195.034C141.49 189.292 140.701 183.503 138.644 178.113C135.618 183.028 133.763 188.569 133.223 194.311C132.684 200.053 133.473 205.842 135.53 211.231ZM23.4566 100.286C28.8875 102.247 34.6904 102.967 40.4375 102.394C46.1847 101.821 51.7296 99.9687 56.6637 96.9743C51.2411 94.9683 45.4308 94.2239 39.6759 94.7978C33.921 95.3718 28.3735 97.2489 23.4566 100.286ZM23.4566 -110.22C28.3735 -107.183 33.921 -105.306 39.6759 -104.732C45.4308 -104.158 51.2411 -104.902 56.6637 -106.908C51.7296 -109.903 46.1847 -111.755 40.4375 -112.328C34.6904 -112.901 28.8875 -112.181 23.4566 -110.22ZM135.53 -221.166C133.536 -215.78 132.817 -210.007 133.429 -204.298C134.041 -198.589 135.968 -193.098 139.059 -188.255C141.053 -193.641 141.772 -199.413 141.16 -205.122C140.548 -210.831 138.621 -216.322 135.53 -221.166ZM347.848 -221.166C344.806 -216.299 342.924 -210.801 342.349 -205.095C341.773 -199.389 342.518 -193.628 344.527 -188.255C347.63 -193.096 349.547 -198.598 350.124 -204.315C350.701 -210.032 349.921 -215.804 347.848 -221.166ZM459.922 -110.22C454.456 -112.184 448.62 -112.906 442.839 -112.333C437.058 -111.76 431.478 -109.907 426.507 -106.908C431.965 -104.9 437.808 -104.154 443.597 -104.728C449.385 -105.302 454.968 -107.18 459.922 -110.22ZM324.396 90.3507L326.056 91.3856C327.715 92.4392 329.539 93.2088 331.452 93.6625C334.51 94.4892 337.734 94.4892 340.792 93.6625C341.106 91.8822 341.106 90.061 340.792 88.2807C340.762 85.7755 340.196 83.3056 339.131 81.0362L338.093 79.1733C334.451 74.2841 329.85 70.1848 324.569 67.1247C319.289 64.0645 313.44 62.1074 307.377 61.3724C309.141 72.8415 315.228 83.2064 324.396 90.3507ZM242.831 218.476C249.806 202.685 253.478 185.64 253.623 168.385C253.587 153.239 250.774 138.226 245.321 124.09C244.708 121.873 243.874 119.723 242.831 117.673C242.436 118.881 241.95 120.057 241.378 121.192C240.983 119.984 240.497 118.808 239.925 117.673L237.435 124.09C232.144 138.265 229.404 153.26 229.34 168.385C229.414 185.626 233.016 202.671 239.925 218.476C240.497 217.341 240.983 216.165 241.378 214.957C241.95 216.092 242.436 217.268 242.831 218.476ZM144.247 78.5524C142.476 81.2603 141.538 84.4264 141.549 87.6598C141.235 89.44 141.235 91.2612 141.549 93.0414C144.607 93.8681 147.831 93.8681 150.889 93.0414C152.776 92.5125 154.59 91.7476 156.285 90.7646L159.813 90.3507C167.419 84.0925 172.744 75.5078 174.964 65.9261C175.081 64.2032 175.081 62.4743 174.964 60.7514C168.938 61.5132 163.128 63.483 157.885 66.5422C152.642 69.6013 148.074 73.6866 144.455 78.5524H144.247ZM15.985 -6.31253L19.5133 -5.07061L15.985 -3.62171C32.0281 3.341 49.337 6.93431 66.8333 6.93431C84.3296 6.93431 101.639 3.341 117.682 -3.62171L113.946 -5.07061L118.304 -6.31253C102.204 -13.3341 84.821 -16.9588 67.2484 -16.9588C49.6758 -16.9588 32.2931 -13.3341 16.1926 -6.31253H15.985ZM155.455 -102.976C151.326 -104.633 146.715 -104.633 142.587 -102.976C141.767 -100.579 141.508 -98.0265 141.832 -95.5146C142.156 -93.0028 143.053 -90.5984 144.455 -88.4866C146.547 -85.0149 149.382 -82.0465 152.757 -79.7931C159.462 -75.1835 167.124 -72.1412 175.171 -70.8926C173.325 -82.932 166.941 -93.8148 157.323 -101.32L155.455 -102.976ZM242.831 -228.41C242.436 -227.202 241.95 -226.026 241.378 -224.891C240.983 -226.099 240.497 -227.275 239.925 -228.41C233.016 -212.606 229.414 -195.561 229.34 -178.319C229.472 -160.883 233.069 -143.647 239.925 -127.607C240.497 -128.742 240.983 -129.918 241.378 -131.126C241.95 -129.991 242.436 -128.815 242.831 -127.607C249.752 -143.634 253.42 -160.87 253.623 -178.319C253.478 -195.574 249.806 -212.619 242.831 -228.41ZM325.848 -101.32C320.907 -97.7726 316.767 -93.2324 313.692 -87.9918C310.618 -82.7511 308.679 -76.9263 308 -70.8926C315.994 -72.1004 323.597 -75.1476 330.207 -79.7931C333.69 -81.9824 336.605 -84.9611 338.716 -88.4866L339.754 -90.3494C341.301 -94.4168 341.301 -98.9083 339.754 -102.976C335.552 -104.625 330.88 -104.625 326.679 -102.976L325.848 -101.32ZM305.094 -54.5406C303.226 -57.4384 301.566 -60.3363 299.905 -63.2341C296.821 -64.686 293.839 -66.3458 290.981 -68.2018C272.916 -81.2711 256.718 -96.7299 242.831 -114.153L241.378 -112.497L239.925 -114.153C226.002 -96.6777 209.648 -81.2742 191.36 -68.4088C188.573 -66.5544 185.66 -64.8945 182.643 -63.4411C181.146 -60.4112 179.411 -57.5043 177.454 -54.7476L172.266 -47.503C170.467 -45.0192 168.599 -42.7423 166.662 -40.6725C155.959 -28.2495 144.15 -16.8185 131.38 -6.51952L133.04 -5.27761C132.588 -4.68968 132.024 -4.19713 131.38 -3.82866C144.099 6.45173 155.904 17.8093 166.662 30.1173C170.398 34.671 174.134 39.4317 177.454 44.3994C179.411 47.1561 181.146 50.063 182.643 53.0929C185.66 54.5463 188.573 56.2062 191.36 58.0606C196.33 61.3804 201.111 64.9737 205.68 68.8239C218.265 79.4291 229.802 91.2123 240.133 104.012L241.585 102.356L242.831 104.012C253.218 91.3929 264.675 79.6893 277.075 69.0309C281.641 65.3051 286.415 61.7864 291.396 58.2676C294.254 56.4116 297.236 54.7518 300.32 53.2999C301.981 50.402 303.641 47.5042 305.509 44.6064C318.549 26.4097 334.135 10.1689 351.791 -3.62171L349.923 -5.07061L351.791 -6.31253C336.405 -18.4739 322.477 -32.3649 310.283 -47.71C309.245 -49.5729 307.584 -52.0568 305.094 -54.5406ZM442.073 -14.385C437.888 -15.222 433.662 -15.8438 429.413 -16.2479H423.187H416.753C399.134 -16.1387 381.711 -12.5509 365.489 -5.69155L369.018 -4.44964L365.489 -3.00073C381.711 3.8586 399.134 7.44639 416.753 7.55564H423.187H429.413C433.662 7.15149 437.888 6.5297 442.073 5.69275C450.678 3.78759 459.085 1.08502 467.186 -2.37975L463.658 -3.82866L467.186 -5.07061C459.129 -8.96037 450.72 -12.0791 442.073 -14.385Z" fill="#EEEEEE"/>
<path d="M222.076 52.0581C224.329 51.5293 226.673 51.5293 228.925 52.0581C232.887 52.4241 236.613 54.0997 239.51 56.8188L240.755 58.2677L242.831 55.9908C245.826 53.295 249.608 51.6267 253.623 51.2301C255.876 50.7088 258.219 50.7088 260.472 51.2301H262.548L261.302 53.093L259.642 55.1629C257.317 57.3242 254.466 58.8429 251.373 59.5689C248.279 60.295 245.048 60.2032 242.001 59.3026C238.987 60.2068 235.787 60.3001 232.725 59.5731C229.663 58.8461 226.849 57.3246 224.567 55.1629C223.903 54.5689 223.342 53.8695 222.907 53.093L221.661 51.2301L222.076 52.0581ZM226.02 54.7489C227.09 55.6038 228.279 56.3009 229.548 56.8188C231.745 57.8596 234.183 58.2887 236.605 58.0607C234.356 56.2136 231.614 55.0625 228.718 54.7489C228.099 54.652 227.469 54.652 226.85 54.7489H226.02ZM252.793 54.7489C249.972 55.1122 247.311 56.2599 245.114 58.0607C247.534 58.2591 249.965 57.8313 252.17 56.8188C253.412 56.2465 254.594 55.5532 255.699 54.7489C255.011 54.6438 254.311 54.6438 253.623 54.7489H252.793Z" fill="#EEEEEE"/>
<path d="M374.621 114.361C374.344 111.053 375.362 107.767 377.463 105.192C379.563 102.617 382.582 100.954 385.886 100.552C389.19 100.15 392.522 101.041 395.182 103.037C397.841 105.033 399.622 107.979 400.149 111.257C401.501 114.907 401.942 118.83 401.436 122.688C400.93 126.546 399.491 130.224 397.244 133.404C394.881 136.404 391.911 138.872 388.527 140.649C385.885 145.836 381.416 149.867 375.977 151.968C370.537 154.069 364.511 154.092 359.055 152.033L356.357 150.998C354.345 149.936 352.651 148.36 351.448 146.431C350.246 144.503 349.579 142.29 349.514 140.02C349.449 137.75 349.989 135.504 351.08 133.51C352.17 131.516 353.771 129.847 355.72 128.672C357.669 127.498 359.896 126.86 362.172 126.824C364.449 126.788 366.695 127.355 368.68 128.467C370.665 129.58 372.319 131.198 373.472 133.156C374.625 135.114 375.237 137.343 375.244 139.614C375.237 141.792 374.665 143.931 373.584 145.823L377.319 143.754C380.18 141.679 382.349 138.794 383.546 135.474C386.82 134.285 389.696 132.205 391.847 129.471C392.618 128.275 393.311 127.03 393.923 125.746C391.935 126.76 389.722 127.259 387.489 127.195C384.076 127.195 380.803 125.842 378.39 123.436C375.977 121.029 374.621 117.765 374.621 114.361ZM362.169 133.197C361.333 133.197 360.506 133.364 359.737 133.689C358.968 134.014 358.272 134.49 357.691 135.088C357.11 135.687 356.656 136.396 356.355 137.174C356.055 137.951 355.914 138.781 355.942 139.614C355.983 140.72 356.31 141.798 356.892 142.741C357.474 143.684 358.291 144.46 359.263 144.995H360.923H362.169C363.096 145.164 364.049 145.127 364.96 144.887C365.871 144.647 366.719 144.211 367.442 143.609C368.166 143.006 368.748 142.253 369.147 141.402C369.546 140.551 369.753 139.622 369.753 138.682C369.753 137.742 369.546 136.814 369.147 135.963C368.748 135.112 368.166 134.358 367.442 133.756C366.719 133.154 365.871 132.717 364.96 132.478C364.049 132.238 363.096 132.201 362.169 132.369V133.197ZM393.923 114.361C394.02 113.953 394.02 113.528 393.923 113.119V111.67C393.4 110.585 392.573 109.675 391.541 109.05C390.51 108.426 389.318 108.113 388.112 108.152C386.629 108.421 385.288 109.2 384.323 110.353C383.357 111.507 382.829 112.962 382.829 114.465C382.829 115.967 383.357 117.423 384.323 118.576C385.288 119.73 386.629 120.509 388.112 120.778C389.708 120.623 391.189 119.879 392.264 118.692C393.339 117.505 393.93 115.961 393.923 114.361Z" fill="#EEEEEE"/>
<path d="M261.925 117.673V113.533L265.868 114.775C274.278 117.627 281.582 123.033 286.756 130.235C291.929 137.436 294.713 146.072 294.717 154.931V159.07L290.773 157.829C282.364 154.976 275.06 149.571 269.886 142.369C264.712 135.168 261.929 126.532 261.925 117.673ZM288.075 149.963C287.168 144.266 284.954 138.856 281.606 134.153C278.258 129.449 273.867 125.581 268.774 122.848C269.711 128.534 271.937 133.932 275.282 138.631C278.626 143.329 283.002 147.205 288.075 149.963Z" fill="#EEEEEE"/>
<path d="M406.168 43.5713L407.206 47.5041H403.055C394 47.7144 385.11 45.0653 377.656 39.9353C370.201 34.8054 364.562 27.4569 361.546 18.9398L360.301 14.8001H364.451C373.559 14.5922 382.5 17.2634 389.993 22.4314C397.486 27.5993 403.148 34.999 406.168 43.5713ZM398.074 41.0875C395.335 35.9064 391.441 31.4209 386.692 27.9761C381.942 24.5312 376.464 22.2188 370.678 21.2167C373.291 26.5719 377.134 31.237 381.894 34.8335C386.654 38.4299 392.197 40.8562 398.074 41.9154V41.0875Z" fill="#EEEEEE"/>
<path d="M284.34 98.63C288.696 98.5154 293.029 99.3023 297.066 100.941C301.102 102.58 304.754 105.035 307.792 108.151L310.49 111.256L306.962 113.119C300.799 115.964 293.92 116.893 287.22 115.786C280.52 114.678 274.31 111.585 269.397 106.909L266.698 103.805L270.227 101.942C274.555 99.6128 279.424 98.4701 284.34 98.63ZM298.868 109.186C292.635 105.459 285.201 104.273 278.113 105.875C281.315 107.818 284.87 109.111 288.574 109.68C292.278 110.248 296.059 110.08 299.698 109.186H298.868Z" fill="#EEEEEE"/>
<path d="M360.923 60.5445L358.848 64.0633L355.735 61.3725C352.685 58.3076 350.3 54.6492 348.729 50.6253C347.158 46.6013 346.434 42.2979 346.603 37.9829C346.469 33.1496 347.615 28.3664 349.924 24.1147L351.999 20.5959L355.112 23.2868C359.715 28.2001 362.73 34.3799 363.766 41.0239C364.802 47.6679 363.812 54.4691 360.923 60.5445ZM353.452 32.1873C351.951 39.2834 353.212 46.6833 356.98 52.886C358.547 45.7914 357.281 38.3671 353.452 32.1873Z" fill="#EEEEEE"/>
<path d="M327.301 171.697H331.452L329.584 175.422C326.842 180.716 322.71 185.168 317.629 188.303C312.548 191.438 306.709 193.139 300.736 193.223C299.081 193.423 297.409 193.423 295.754 193.223H291.811L293.471 189.497C296.293 184.285 300.449 179.911 305.517 176.82C310.584 173.73 316.382 172.033 322.32 171.904L327.301 171.697ZM302.396 187.221C309.544 186.666 316.182 183.318 320.867 177.906C313.792 178.396 307.178 181.583 302.396 186.807V187.221Z" fill="#EEEEEE"/>
<path d="M332.075 -13.35C331.379 -10.2974 329.955 -7.45716 327.924 -5.07055C329.945 -2.59845 331.365 0.305939 332.075 3.41594V5.48582H329.999C326.623 5.29585 323.335 4.33933 320.385 2.68923C317.436 1.03913 314.903 -1.26093 312.981 -4.03559V-5.07055C314.774 -8.16895 317.341 -10.751 320.433 -12.5648C323.525 -14.3786 327.035 -15.3623 330.622 -15.4199H332.697L332.075 -13.35ZM326.264 -11.2802C322.713 -10.0715 319.557 -7.92558 317.132 -5.07055L318.169 -3.82859C320.792 -1.04107 324.188 0.904442 327.924 1.76004C326.752 -0.834056 325.056 -3.15932 322.943 -5.07055C325.108 -6.85181 326.815 -9.12254 327.924 -11.6941L326.264 -11.2802Z" fill="#EEEEEE"/>
<path d="M251.132 35.9129C250.738 37.1206 250.252 38.2969 249.68 39.4317V41.2946L248.019 39.8457C245.605 37.6192 243.755 34.8524 242.623 31.7732C241.551 34.832 239.774 37.597 237.435 39.8457L235.774 41.2946L234.736 39.4317C234.077 38.3387 233.587 37.1523 233.284 35.9129C233.088 34.1935 233.088 32.4576 233.284 30.7382C233.178 25.3807 234.857 20.1393 238.057 15.8352L240.133 13.5583L241.793 12.1094V14.1793L242.831 12.1094L244.491 13.5583C246.726 15.8104 248.47 18.4992 249.613 21.4558C250.756 24.4123 251.273 27.5727 251.132 30.7382C251.431 32.4503 251.431 34.2009 251.132 35.9129ZM247.604 35.9129V33.6361C247.698 32.88 247.698 32.1153 247.604 31.3592C247.816 26.7872 246.502 22.2742 243.868 18.526C243.438 20.6433 243.438 22.8253 243.868 24.9426C244.118 28.7368 245.41 32.3892 247.604 35.499V35.9129ZM235.774 35.9129C238.041 32.6854 239.337 28.8795 239.51 24.9426C239.844 22.8168 239.844 20.6519 239.51 18.526C236.803 22.2482 235.415 26.7634 235.567 31.3592C235.476 32.7425 235.545 34.1316 235.774 35.499V35.9129Z" fill="#EEEEEE"/>
<path d="M303.849 12.7304L301.773 14.3863L299.905 15.6283V13.5584C299.016 10.5841 298.932 7.42821 299.661 4.41095C300.39 1.3937 301.906 -1.37756 304.056 -3.62159C304.487 -4.15528 304.974 -4.64105 305.509 -5.0705C304.93 -5.35924 304.431 -5.78576 304.056 -6.31241C300.777 -9.77602 298.989 -14.3829 299.075 -19.1457C298.958 -20.5922 298.958 -22.0458 299.075 -23.4924V-25.5623L300.943 -24.3203L303.019 -22.6644L305.094 -20.1806L306.339 -18.3177C306.339 -18.3177 306.339 -16.8688 306.339 -16.0408C307.002 -14.1788 307.352 -12.2208 307.377 -10.2452C307.69 -8.67365 307.69 -7.05602 307.377 -5.48448C308.549 -2.42196 308.839 0.906094 308.216 4.12445C307.592 7.3428 306.08 10.3235 303.849 12.7304ZM301.981 -20.1806C301.884 -19.7723 301.884 -19.347 301.981 -18.9387C302.173 -15.6095 303.407 -12.4242 305.509 -9.8312V-11.2801C305.362 -14.5564 304.12 -17.6895 301.981 -20.1806ZM305.302 -1.34472C304.068 0.0620404 303.136 1.70638 302.565 3.48654C301.994 5.26669 301.795 7.14479 301.981 9.00466C304.135 6.22869 305.237 2.78351 305.094 -0.723741L305.302 -1.34472Z" fill="#EEEEEE"/>
<path d="M184.096 13.5583V15.6282L182.435 14.3863C181.657 13.9521 180.956 13.3926 180.36 12.7304C178.135 10.491 176.571 7.6843 175.839 4.61758C175.107 1.55087 175.235 -1.65762 176.209 -4.6566C175.896 -6.22814 175.896 -7.84577 176.209 -9.4173C175.794 -11.327 175.794 -13.3033 176.209 -15.213C176.516 -15.9892 176.862 -16.7492 177.247 -17.4898C177.513 -18.1518 177.862 -18.7777 178.285 -19.3527C178.806 -20.3086 179.511 -21.1527 180.36 -21.8366C180.956 -22.4988 181.657 -23.0583 182.435 -23.4925L184.096 -24.7344V-22.6645C184.411 -21.2326 184.411 -19.7497 184.096 -18.3178C184.185 -15.9532 183.789 -13.5954 182.932 -11.3888C182.076 -9.18211 180.777 -7.17306 179.115 -5.48457C178.799 -4.90748 178.282 -4.46568 177.662 -4.24262C178.246 -3.87054 178.742 -3.37613 179.115 -2.79371C181.303 -0.738523 182.915 1.85213 183.789 4.72078C184.662 7.58943 184.768 10.6362 184.096 13.5583ZM180.568 -18.3178V-20.1807C178.504 -17.6621 177.336 -14.5318 177.247 -11.2802V-9.83129C179.24 -12.2305 180.404 -15.2065 180.568 -18.3178ZM177.247 -0.723826C177.008 3.01982 178.194 6.7155 180.568 9.62555C181.084 5.98557 180.194 2.28594 178.077 -0.723826H177.247Z" fill="#EEEEEE"/>
<path d="M297.415 49.16H295.755V50.8159L292.434 49.574C279.556 45.4612 268.16 37.6925 259.642 27.2193C254.528 21.0178 250.463 14.0266 247.604 6.52058H241.17H234.944C232.008 13.9892 227.949 20.9687 222.907 27.2193C214.388 37.6925 202.992 45.4612 190.115 49.574L186.586 50.8159V49.16H184.926L186.171 45.6412C189.644 35.1124 195.548 25.5441 203.406 17.7066C211.265 9.86914 220.859 3.98155 231.416 0.517924C231.533 -1.5503 231.533 -3.62346 231.416 -5.69169C231.416 -7.76156 231.416 -9.83146 231.416 -11.9013C221.109 -15.3618 211.75 -21.1649 204.077 -28.8524C196.405 -36.5398 190.63 -45.9011 187.209 -56.1967L185.964 -59.7154H187.624V-61.3713L191.152 -60.1294C201.485 -56.7711 210.904 -51.0846 218.678 -43.5107C226.453 -35.9368 232.373 -26.679 235.982 -16.455H242.208H248.642C252.208 -26.7025 258.115 -35.9827 265.895 -43.5624C273.675 -51.1422 283.116 -56.8138 293.472 -60.1294L296.792 -61.3713V-59.7154H298.453L297.207 -56.1967C293.743 -45.924 287.954 -36.585 280.288 -28.9034C272.621 -21.2218 263.284 -15.4042 253 -11.9013V-5.69169C253 -3.48382 253 -1.41396 253 0.517924C263.276 4.09705 272.598 9.96528 280.258 17.6766C287.918 25.3879 293.715 34.7394 297.207 45.0202L297.415 49.16ZM229.133 7.7625C229.098 7.07297 229.098 6.38214 229.133 5.69261C220.5 9.05162 212.654 14.1486 206.084 20.6657C199.513 27.1828 194.36 34.9801 190.945 43.5713H192.813C192.891 44.1898 192.891 44.8157 192.813 45.4342C206.844 40.1261 218.634 30.1934 226.227 17.2839C228.022 14.2155 229.616 11.0351 231.001 7.7625H229.133ZM192.813 -54.3338C192.891 -53.7152 192.891 -53.0894 192.813 -52.4709H190.945C194.392 -43.8985 199.557 -36.1178 206.123 -29.6048C212.689 -23.0917 220.519 -17.9833 229.133 -14.5922C229.168 -15.2817 229.168 -15.9725 229.133 -16.662H231.001C227.617 -25.2472 222.472 -33.0328 215.896 -39.52C209.32 -46.0071 201.457 -51.0528 192.813 -54.3338ZM255.076 -17.49C254.96 -16.8049 254.96 -16.1052 255.076 -15.4201C263.664 -18.8136 271.465 -23.9251 277.997 -30.4396C284.529 -36.9542 289.654 -44.7337 293.056 -53.2988H291.189C291.267 -53.9174 291.267 -54.5432 291.189 -55.1617C282.589 -51.8455 274.772 -46.785 268.235 -40.3005C261.697 -33.816 256.58 -26.0486 253.208 -17.49H255.076ZM248.642 -5.07075C248.745 -6.86318 248.745 -8.66 248.642 -10.4524H247.604H242.001H236.397H235.152C235.254 -8.66 235.254 -6.86318 235.152 -5.07075C235.255 -3.20928 235.255 -1.34355 235.152 0.517924H236.397V1.55285H242.001H247.604V0.517924H248.642C248.47 -1.3589 248.193 -3.22469 247.812 -5.07075H248.642ZM254.246 5.48562C254.196 6.17467 254.196 6.86645 254.246 7.5555H252.378C253.675 10.8677 255.273 14.0547 257.151 17.0769C264.718 29.929 276.421 39.8503 290.358 45.2272C290.437 44.6087 290.437 43.9829 290.358 43.3643H292.226C288.764 34.6999 283.523 26.8538 276.839 20.3303C270.155 13.8068 262.176 8.75019 253.416 5.48562H254.246Z" fill="#EEEEEE"/>
</svg>
