<svg width="558" height="229" viewBox="0 0 558 229" fill="none" xmlns="http://www.w3.org/2000/svg">
<path d="M154.676 109.99C154.213 113.631 152.434 116.978 149.674 119.405C146.913 121.831 143.36 123.17 139.68 123.17C136 123.17 132.447 121.831 129.686 119.405C126.925 116.978 125.147 113.631 124.684 109.99C124.692 107.472 125.354 104.999 126.604 102.812C125.063 103.413 123.61 104.218 122.285 105.204C119.045 107.569 116.548 110.807 115.087 114.537C111.33 116.08 108.028 118.551 105.49 121.715C104.509 123.043 103.703 124.491 103.09 126.023C105.284 124.776 107.764 124.116 110.288 124.108C113.135 124.055 115.939 124.804 118.377 126.27C120.815 127.736 122.788 129.859 124.07 132.394C125.352 134.93 125.889 137.774 125.621 140.601C125.353 143.428 124.29 146.122 122.554 148.372C120.818 150.623 118.48 152.339 115.809 153.322C113.139 154.306 110.244 154.517 107.458 153.932C104.672 153.347 102.108 151.989 100.062 150.015C98.0162 148.041 96.5707 145.53 95.8924 142.773C94.3302 138.553 93.8197 134.018 94.4048 129.557C94.99 125.097 96.6533 120.846 99.2514 117.169C101.951 113.764 105.293 110.919 109.089 108.794C111.233 104.947 114.178 101.602 117.726 98.983C121.404 96.3728 125.668 94.7024 130.144 94.1183C134.62 93.5342 139.171 94.0543 143.399 95.6329C146.613 96.4322 149.468 98.2786 151.51 100.879C153.553 103.48 154.667 106.687 154.676 109.99ZM110.288 146.362C111.779 146.409 113.249 146.009 114.508 145.212C115.767 144.415 116.758 143.26 117.35 141.895C117.943 140.53 118.11 139.019 117.831 137.558C117.551 136.098 116.838 134.754 115.784 133.703C114.729 132.651 113.382 131.94 111.918 131.661C110.453 131.383 108.938 131.55 107.569 132.14C106.201 132.731 105.042 133.719 104.243 134.975C103.445 136.231 103.043 137.697 103.09 139.183C102.978 139.655 102.978 140.147 103.09 140.619C102.986 141.173 102.986 141.741 103.09 142.294C103.751 143.607 104.788 144.694 106.07 145.418C107.351 146.142 108.819 146.471 110.288 146.362ZM139.56 117.408C141.532 117.408 143.424 116.627 144.819 115.235C146.214 113.844 146.998 111.958 146.998 109.99C146.952 108.681 146.548 107.409 145.829 106.312C145.11 105.215 144.103 104.336 142.919 103.769H141.239H139.56C137.846 104.079 136.296 104.98 135.18 106.314C134.064 107.648 133.452 109.33 133.452 111.067C133.452 112.804 134.064 114.486 135.18 115.82C136.296 117.154 137.846 118.055 139.56 118.365V117.408Z" fill="#EEEEEE"/>
<path d="M256.406 135.355V139.901L251.608 138.705C241.707 135.495 233.067 129.263 226.911 120.89C220.754 112.517 217.391 102.426 217.298 92.0436V87.2578L221.856 88.6935C231.841 91.7973 240.575 97.9946 246.788 106.385C253.001 114.776 256.37 124.924 256.406 135.355ZM225.935 98.0258C227.027 104.628 229.63 110.89 233.541 116.326C237.453 121.762 242.568 126.227 248.489 129.372C247.32 122.703 244.608 116.397 240.568 110.955C236.528 105.514 231.271 101.087 225.215 98.0258H225.935Z" fill="#EEEEEE"/>
<path d="M88.4546 221.02V216.473H93.2533C103.517 216.481 113.527 219.661 121.905 225.574C130.283 231.487 136.618 239.844 140.04 249.495L141.24 254.281H136.441C125.952 254.47 115.67 251.359 107.056 245.388C98.4415 239.417 91.9329 230.89 88.4546 221.02ZM97.8119 223.891C101.037 229.719 105.537 234.746 110.979 238.598C116.421 242.451 122.663 245.031 129.243 246.145C126.123 240.33 121.713 235.303 116.349 231.446C110.985 227.59 104.809 225.006 98.2918 223.891H97.8119Z" fill="#EEEEEE"/>
<path d="M246.089 147.798L249.208 151.387L244.89 153.541C239.974 156.235 234.421 157.558 228.814 157.369C223.778 157.502 218.769 156.592 214.102 154.698C209.436 152.803 205.214 149.965 201.702 146.362L198.343 142.773L202.662 139.901C209.856 136.703 217.851 135.746 225.6 137.155C233.348 138.564 240.49 142.273 246.089 147.798ZM211.779 145.165C218.984 149.475 227.579 150.846 235.772 148.994C228.567 144.685 219.973 143.314 211.779 145.165Z" fill="#EEEEEE"/>
<path d="M141.239 201.398L143.399 197.33L146.998 200.441C150.642 203.932 153.525 208.135 155.465 212.787C157.405 217.44 158.362 222.442 158.275 227.481C158.314 233.056 156.997 238.557 154.436 243.513L152.036 247.581L148.437 244.47C143.038 238.843 139.463 231.724 138.179 224.041C136.895 216.358 137.962 208.468 141.239 201.398ZM149.637 234.181C151.571 226.012 150.192 217.411 145.798 210.252C143.916 218.423 145.292 227.003 149.637 234.181Z" fill="#EEEEEE"/>
<path d="M67.3407 176.273L71.8994 174.359V179.144C72.0182 181.057 72.0182 182.975 71.8994 184.887C71.6833 191.717 69.661 198.368 66.0374 204.167C62.4138 209.966 57.3177 214.707 51.2653 217.909L46.9466 219.823V215.038C46.6995 213.211 46.6995 211.36 46.9466 209.534C47.0472 202.676 48.993 195.972 52.5806 190.121C56.1682 184.27 61.2659 179.487 67.3407 176.273ZM65.6612 186.323C59.319 191.7 55.3542 199.35 54.6244 207.62C60.4817 202.014 63.996 194.406 64.4615 186.323H65.6612Z" fill="#EEEEEE"/>
<path d="M462.267 142.773C461.553 145.437 460.108 147.851 458.095 149.742C456.082 151.633 453.58 152.927 450.87 153.478C448.16 154.03 445.35 153.817 442.755 152.863C440.159 151.91 437.882 150.254 436.178 148.081C434.475 145.909 433.412 143.305 433.11 140.563C432.807 137.822 433.277 135.05 434.467 132.56C435.657 130.07 437.519 127.96 439.844 126.467C442.17 124.974 444.866 124.157 447.632 124.108C450.232 124.118 452.789 124.776 455.07 126.023C454.362 124.538 453.561 123.099 452.67 121.715C450.132 118.551 446.83 116.081 443.073 114.537C441.612 110.807 439.115 107.569 435.875 105.205L431.556 102.812C432.806 104.999 433.467 107.472 433.476 109.99C433.529 112.829 432.778 115.625 431.308 118.057C429.838 120.489 427.71 122.457 425.167 123.735C422.625 125.013 419.773 125.55 416.938 125.282C414.104 125.014 411.403 123.954 409.147 122.223C406.89 120.492 405.169 118.16 404.183 115.497C403.197 112.833 402.985 109.946 403.571 107.168C404.158 104.389 405.52 101.832 407.499 99.7918C409.479 97.7512 411.996 96.3096 414.761 95.633C421.008 93.3863 427.861 93.4828 434.041 95.9044C440.222 98.326 445.308 102.907 448.351 108.794C452.264 110.848 455.698 113.702 458.429 117.169C461.106 120.804 462.855 125.036 463.524 129.497C464.193 133.958 463.762 138.515 462.267 142.773ZM418.36 117.408C419.432 117.603 420.534 117.56 421.587 117.283C422.64 117.006 423.62 116.501 424.456 115.805C425.293 115.109 425.966 114.238 426.427 113.254C426.889 112.27 427.128 111.196 427.128 110.11C427.128 109.023 426.889 107.95 426.427 106.966C425.966 105.982 425.293 105.111 424.456 104.415C423.62 103.719 422.64 103.214 421.587 102.937C420.534 102.66 419.432 102.617 418.36 102.812H416.92H415.001C413.877 103.43 412.933 104.328 412.26 105.418C411.588 106.509 411.209 107.754 411.162 109.033C410.986 110.071 411.041 111.135 411.323 112.149C411.605 113.163 412.107 114.103 412.794 114.902C413.481 115.701 414.336 116.34 415.297 116.773C416.259 117.206 417.305 117.423 418.36 117.408ZM447.632 131.766C445.918 132.076 444.368 132.977 443.252 134.311C442.136 135.645 441.524 137.327 441.524 139.064C441.524 140.801 442.136 142.483 443.252 143.817C444.368 145.151 445.918 146.051 447.632 146.362C448.986 146.36 450.312 145.978 451.458 145.258C452.604 144.539 453.523 143.511 454.11 142.294V140.619C454.222 140.147 454.222 139.655 454.11 139.183C454.154 137.475 453.605 135.803 452.556 134.451C451.506 133.1 450.021 132.151 448.351 131.766H447.632Z" fill="#EEEEEE"/>
<path d="M465.626 215.995H470.425L469.225 220.541C465.707 230.367 459.181 238.841 450.57 244.767C441.959 250.693 431.699 253.769 421.239 253.563H416.441L417.88 248.777C421.395 239.015 427.894 230.6 436.46 224.718C445.027 218.837 455.228 215.785 465.626 215.995ZM459.868 223.891C453.234 224.938 446.929 227.488 441.438 231.346C435.948 235.204 431.418 240.267 428.197 246.145C434.819 245.064 441.11 242.501 446.596 238.646C452.081 234.792 456.619 229.747 459.868 223.891Z" fill="#EEEEEE"/>
<path d="M302.713 139.901V135.355C302.717 125.113 305.936 115.13 311.917 106.805C317.898 98.4797 326.341 92.2303 336.064 88.933L340.622 87.4973V92.0438C340.924 102.529 337.848 112.834 331.846 121.448C325.844 130.061 317.231 136.529 307.272 139.901H302.713ZM332.705 98.026C326.839 101.214 321.781 105.695 317.914 111.127C314.048 116.559 311.474 122.799 310.391 129.373C316.279 126.213 321.356 121.741 325.226 116.304C329.096 110.866 331.656 104.611 332.705 98.026Z" fill="#EEEEEE"/>
<path d="M406.124 247.581L403.724 243.513C401.055 238.598 399.731 233.068 399.885 227.481C399.753 222.458 400.665 217.462 402.564 212.808C404.464 208.154 407.31 203.943 410.922 200.441L414.521 197.33L416.92 201.398C420.198 208.468 421.265 216.358 419.981 224.041C418.697 231.724 415.122 238.843 409.723 244.47L406.124 247.581ZM412.362 211.688C408.006 218.858 406.547 227.413 408.283 235.616C412.71 228.472 414.173 219.889 412.362 211.688Z" fill="#EEEEEE"/>
<path d="M505.215 217.909C499.163 214.707 494.067 209.966 490.443 204.167C486.82 198.368 484.797 191.717 484.581 184.887C484.35 182.98 484.35 181.052 484.581 179.144V174.359L488.9 176.273C495.036 179.435 500.197 184.199 503.831 190.057C507.465 195.914 509.436 202.646 509.534 209.534C509.663 211.366 509.663 213.205 509.534 215.038V219.823L505.215 217.909ZM492.499 186.323C493.278 194.578 497.234 202.211 503.536 207.62C502.708 199.379 498.761 191.763 492.499 186.323Z" fill="#EEEEEE"/>
<path d="M378.051 72.9005H372.293C365.428 72.7504 358.726 70.7892 352.867 67.2165C347.009 63.6438 342.205 58.5872 338.943 52.5611L337.023 48.2539H341.582H347.34C354.246 48.3518 360.996 50.3178 366.87 53.942C372.744 57.5663 377.52 62.7129 380.691 68.8327L382.85 73.1398L378.051 72.9005ZM349.26 54.954C354.768 61.0914 362.392 64.9356 370.614 65.7219C365.198 59.4651 357.523 55.595 349.26 54.954Z" fill="#EEEEEE"/>
<path d="M529.688 263.374C536.888 265.833 543.938 268.709 550.802 271.988L558 275.577L554.401 277.013L558 278.688L550.802 282.278C531.6 291.828 510.623 297.312 489.193 298.382C467.762 299.453 446.341 296.088 426.278 288.499C421.959 287.063 417.4 285.149 413.082 283.235C407.323 288.02 401.565 292.806 395.806 298.071C382.169 310.164 370.009 323.817 359.577 338.749L357.657 341.621L355.498 345.449C360.731 346.216 365.875 347.498 370.854 349.278C378.811 352.023 386.091 356.428 392.207 362.2C394.411 364.586 396.417 367.147 398.206 369.857C401.279 374.793 402.707 380.573 402.285 386.368C409.67 377.896 420.095 372.654 431.316 371.771C441.26 370.778 451.302 371.861 460.803 374.951C470.304 378.041 479.055 383.07 486.5 389.718C495.265 385.437 505.095 383.812 514.776 385.046C524.456 386.279 533.561 390.316 540.965 396.657L544.324 400.007L540.245 402.639C531.315 407.691 521.04 409.874 510.821 408.889C500.602 407.904 490.936 403.8 483.141 397.136L479.542 393.786C472.9 388.335 465.236 384.258 456.997 381.793C448.758 379.328 440.11 378.524 431.556 379.428C425.942 379.787 420.498 381.499 415.693 384.416C410.887 387.333 406.863 391.37 403.964 396.179C403.26 397.387 402.697 398.672 402.285 400.007L398.686 401.443C393.851 404.283 389.777 408.247 386.81 412.997C383.844 417.747 382.074 423.142 381.65 428.722C380.771 437.251 381.59 445.87 384.06 454.083C386.531 462.296 390.604 469.941 396.046 476.579L399.405 479.929C406.298 487.544 410.556 497.166 411.549 507.377C412.543 517.587 410.22 527.846 404.924 536.641L402.285 540.708L398.926 537.119C392.435 529.904 388.294 520.892 387.052 511.278C385.809 501.664 387.524 491.9 391.968 483.279C385.19 475.704 380.137 466.756 377.155 457.05C374.173 447.343 373.333 437.108 374.693 427.047C375.652 415.876 380.895 405.506 389.328 398.093C381.364 398.243 373.612 395.524 367.495 390.436C365.777 388.962 364.173 387.362 362.696 385.65C360.373 383.103 358.36 380.292 356.698 377.275C354.76 374.012 353.153 370.565 351.899 366.985C351.392 365.827 350.99 364.626 350.699 363.396C350.699 360.764 349.26 358.371 348.54 355.739V351.91L344.701 354.064L342.062 355.978L337.503 358.85L333.424 361.96C315.58 375.955 299.471 392.021 285.438 409.818L287.358 414.125C303.963 450.421 305.516 491.791 291.676 529.223C289.517 534.966 287.118 540.469 284.478 545.973L280.879 553.151L279.2 549.562L277.52 553.151L274.161 545.973C271.417 540.543 269.013 534.949 266.963 529.223C260.448 513.157 256.872 496.057 256.406 478.733C256.34 456.553 261.001 434.611 270.082 414.364C270.622 412.886 271.263 411.447 272.002 410.057C257.905 392.318 241.803 376.259 224.016 362.2L215.378 356.217C213.283 354.637 211.032 353.274 208.66 352.15V355.978C208.66 358.61 207.46 361.003 206.741 363.635L205.541 367.225C201.936 378.635 194.474 388.445 184.427 394.982C179.512 398.127 173.689 399.558 167.872 399.05C176.806 405.902 182.738 415.933 184.427 427.047C185.355 436.886 184.235 446.811 181.139 456.198C178.042 465.586 173.036 474.236 166.432 481.604C170.876 490.225 172.59 499.989 171.348 509.603C170.105 519.217 165.965 528.229 159.474 535.444L156.115 539.033L153.476 534.965C148.148 526.196 145.785 515.951 146.735 505.741C147.686 495.531 151.899 485.896 158.754 478.254L160.434 474.904C165.965 468.312 170.11 460.679 172.625 452.458C175.139 444.236 175.97 435.595 175.07 427.047C174.646 421.467 172.876 416.072 169.91 411.322C166.943 406.572 162.869 402.608 158.035 399.768L154.436 398.332C154.436 396.896 153.236 395.7 152.756 394.504C149.842 389.708 145.814 385.683 141.011 382.767C136.209 379.852 130.773 378.132 125.164 377.753C107.895 376.035 90.6461 381.196 77.1777 392.111L73.8187 395.461C66.2244 402.488 56.634 406.997 46.3658 408.369C36.0976 409.74 25.6556 407.905 16.4751 403.118L12.6362 400.486L16.4751 396.657C23.8788 390.316 32.9841 386.279 42.6644 385.046C52.3447 383.812 62.1752 385.437 70.9395 389.718C78.3848 383.07 87.1364 378.041 96.6373 374.951C106.138 371.861 116.18 370.778 126.124 371.771C137.324 372.728 147.723 377.957 155.155 386.368C154.733 380.573 156.161 374.793 159.234 369.857C160.946 367.093 162.957 364.525 165.233 362.2C175.396 352.901 188.242 347.039 201.942 345.449C200.724 343.133 199.362 340.895 197.863 338.749C187.431 323.817 175.271 310.164 161.634 298.071C155.875 292.806 149.877 288.02 144.119 283.235C139.8 285.149 135.481 287.063 131.162 288.499C111.286 296.184 90.0356 299.704 68.7355 298.84C47.4354 297.975 26.5421 292.745 7.35773 283.474L0.15979 279.885L3.5188 278.21L0.15979 276.774L7.35773 273.185C14.203 269.864 21.2556 266.987 28.4717 264.57C35.4628 262.338 42.5969 260.58 49.8255 259.306L58.2231 257.87C87.8743 254.431 117.897 259.407 144.838 272.227C163.928 257.487 180.954 240.265 195.464 221.02L198.583 216.713L200.502 211.688L202.662 207.859C193.645 206.59 184.941 203.669 176.989 199.245C173.926 197.528 171.034 195.525 168.352 193.262L163.793 188.716C162.359 187.078 161.074 185.317 159.954 183.452C157.488 179.485 156.083 174.954 155.875 170.291C155.756 169.177 155.756 168.054 155.875 166.941C148.443 175.352 138.044 180.58 126.844 181.537C116.917 182.562 106.885 181.517 97.385 178.469C87.8849 175.421 79.1242 170.436 71.6593 163.83C62.8777 168.362 52.9442 170.19 43.1193 169.082C33.2944 167.974 24.0208 163.981 16.4751 157.609L13.1161 154.259L16.4751 151.626C25.4416 146.554 35.7575 144.361 46.0184 145.346C56.2793 146.331 65.9866 150.446 73.8187 157.13L77.1777 160.48C90.6461 171.395 107.895 176.556 125.164 174.837C130.773 174.458 136.209 172.739 141.011 169.823C145.814 166.908 149.842 162.882 152.756 158.087C152.756 156.891 153.956 155.694 154.436 154.259L158.035 152.823C162.901 149.96 166.995 145.959 169.963 141.164C172.932 136.37 174.684 130.926 175.07 125.305C175.998 116.755 175.18 108.107 172.665 99.8815C170.149 91.6562 165.988 84.0245 160.434 77.4471L157.075 74.0971C150.219 66.4554 146.006 56.8198 145.056 46.6098C144.105 36.3999 146.468 26.1555 151.796 17.3859L154.436 13.318L157.795 16.9073C164.285 24.1228 168.426 33.134 169.668 42.7481C170.911 52.3622 169.197 62.126 164.753 70.747C171.781 78.0875 177.168 86.8309 180.559 96.4002C183.951 105.969 185.269 116.147 184.427 126.262C183.467 137.432 178.225 147.803 169.791 155.216C172.016 154.858 174.284 154.858 176.509 155.216C180.013 155.818 183.359 157.12 186.346 159.044C193.135 163.943 198.789 170.238 202.929 177.503C207.068 184.769 209.595 192.836 210.34 201.159L214.178 199.005L217.058 197.091C225.596 191.504 233.625 185.179 241.051 178.187C252.577 167.565 263.321 156.129 273.202 143.969C262.577 122.684 256.839 99.3058 256.406 75.5328C256.582 52.0611 262.251 28.9546 272.962 8.05364L276.321 0.875L278 4.46433L280.4 0.875L283.998 8.05364C294.486 29.0369 300.142 52.091 300.554 75.5328C300.53 99.2954 295.203 122.755 284.958 144.208C294.82 156.31 305.481 167.741 316.869 178.427C323.107 183.93 329.585 189.434 336.543 194.459L341.102 197.33L343.741 199.245L347.58 201.398C349.042 192.494 352.046 183.911 356.458 176.034C358.12 173.017 360.133 170.205 362.456 167.659C363.87 165.889 365.48 164.283 367.255 162.873C368.857 161.462 370.631 160.256 372.533 159.284C375.52 157.359 378.866 156.057 382.37 155.455C384.595 155.093 386.864 155.093 389.088 155.455C380.655 148.042 375.412 137.671 374.453 126.501C373.42 116.656 374.49 106.704 377.591 97.3003C380.693 87.8969 385.756 79.255 392.447 71.9435C388.075 63.201 386.489 53.3332 387.905 43.6659C389.32 33.9986 393.668 24.9949 400.365 17.8644L403.724 14.2751L406.363 18.343C411.597 27.1867 413.839 37.4747 412.759 47.6869C411.679 57.8992 407.333 67.4941 400.365 75.0542L397.006 78.4043C391.529 85.0217 387.434 92.6645 384.962 100.883C382.49 109.102 381.69 117.73 382.61 126.262C383.222 131.783 385.153 137.078 388.243 141.7C391.333 146.322 395.49 150.136 400.365 152.823L403.964 154.259C404.377 155.594 404.94 156.879 405.644 158.087C408.542 162.896 412.567 166.932 417.372 169.85C422.178 172.767 427.621 174.478 433.236 174.837C441.789 175.741 450.438 174.937 458.677 172.472C466.916 170.007 474.58 165.931 481.222 160.48L484.821 157.13C492.616 150.466 502.282 146.362 512.501 145.377C522.72 144.392 532.995 146.574 541.925 151.626L544.324 154.259L540.965 157.609C533.561 163.949 524.456 167.986 514.776 169.22C505.095 170.453 495.265 168.829 486.5 164.548C479.055 171.196 470.304 176.225 460.803 179.315C451.302 182.405 441.26 183.487 431.316 182.494C420.095 181.611 409.67 176.37 402.285 167.898V171.248C401.962 175.89 400.565 180.395 398.206 184.409C397.006 186.084 395.806 187.998 394.367 189.673L389.568 194.22C386.929 196.538 384.031 198.545 380.931 200.202C377.715 202.082 374.344 203.683 370.854 204.988C365.875 206.767 360.731 208.05 355.498 208.816L357.657 212.645L359.577 215.516L362.456 219.823C377.031 239.011 394.049 256.225 413.082 271.031C440.027 258.223 470.046 253.248 499.697 256.674C502.576 256.674 505.455 256.674 508.334 258.109C515.557 259.411 522.689 261.17 529.688 263.374ZM531.368 398.811C525.64 395.296 519.187 393.125 512.495 392.462C505.803 391.798 499.048 392.66 492.739 394.982C498.486 398.448 504.936 400.59 511.619 401.253C518.302 401.915 525.049 401.081 531.368 398.811ZM401.805 527.069C404.203 520.831 405.105 514.12 404.439 507.472C403.772 500.824 401.555 494.424 397.966 488.783C395.623 495.031 394.75 501.734 395.416 508.372C396.081 515.01 398.267 521.407 401.805 527.069ZM156.355 527.069C159.853 521.388 161.997 514.981 162.621 508.344C163.245 501.706 162.333 495.014 159.954 488.783C156.456 494.464 154.312 500.87 153.688 507.508C153.064 514.146 153.977 520.838 156.355 527.069ZM26.7922 398.811C33.0706 401.077 39.779 401.91 46.4229 401.247C53.0669 400.585 59.4771 398.444 65.1812 394.982C58.9124 392.663 52.1954 391.803 45.5424 392.466C38.8895 393.13 32.4764 395.3 26.7922 398.811ZM26.7922 155.455C32.4764 158.966 38.8895 161.136 45.5424 161.8C52.1954 162.463 58.9124 161.603 65.1812 159.284C59.4771 155.822 53.0669 153.681 46.4229 153.018C39.779 152.356 33.0706 153.188 26.7922 155.455ZM156.355 27.1967C154.05 33.4231 153.218 40.0967 153.926 46.6966C154.633 53.2964 156.861 59.6439 160.434 65.2434C162.739 59.017 163.571 52.3434 162.863 45.7435C162.156 39.1437 159.928 32.7963 156.355 27.1967ZM401.805 27.1967C398.288 32.8224 396.113 39.1783 395.447 45.7747C394.782 52.371 395.643 59.0316 397.966 65.2434C401.552 59.6462 403.769 53.286 404.436 46.6767C405.102 40.0674 404.201 33.3944 401.805 27.1967ZM531.368 155.455C525.049 153.185 518.302 152.351 511.619 153.013C504.936 153.675 498.486 155.818 492.739 159.284C499.048 161.605 505.803 162.467 512.495 161.804C519.187 161.141 525.64 158.97 531.368 155.455ZM374.693 387.325L376.612 388.521C378.53 389.739 380.638 390.629 382.85 391.154C386.385 392.109 390.112 392.109 393.647 391.154C394.01 389.095 394.01 386.99 393.647 384.932C393.612 382.036 392.958 379.18 391.728 376.557L390.528 374.403C386.317 368.751 380.998 364.012 374.894 360.474C368.789 356.937 362.027 354.674 355.018 353.825C357.057 367.083 364.094 379.066 374.693 387.325ZM280.4 535.444C288.463 517.188 292.709 497.484 292.876 477.536C292.835 460.026 289.582 442.671 283.279 426.329C282.57 423.766 281.606 421.281 280.4 418.911C279.943 420.307 279.382 421.667 278.72 422.979C278.264 421.583 277.702 420.223 277.04 418.911L274.161 426.329C268.046 442.716 264.878 460.051 264.804 477.536C264.889 497.468 269.053 517.173 277.04 535.444C277.702 534.132 278.264 532.772 278.72 531.376C279.382 532.688 279.943 534.048 280.4 535.444ZM166.432 373.685C164.384 376.816 163.3 380.476 163.313 384.214C162.95 386.272 162.95 388.378 163.313 390.436C166.848 391.391 170.575 391.391 174.11 390.436C176.292 389.824 178.388 388.94 180.348 387.803L184.427 387.325C193.22 380.09 199.376 370.166 201.942 359.089C202.078 357.097 202.078 355.098 201.942 353.107C194.975 353.987 188.259 356.265 182.198 359.801C176.137 363.338 170.856 368.06 166.672 373.685H166.432ZM18.1546 275.577L22.2335 277.013L18.1546 278.688C36.7012 286.737 56.7112 290.891 76.9378 290.891C97.1644 290.891 117.174 286.737 135.721 278.688L131.402 277.013L136.441 275.577C117.828 267.46 97.7325 263.27 77.4177 263.27C57.1029 263.27 37.0076 267.46 18.3945 275.577H18.1546ZM179.388 163.83C174.616 161.914 169.285 161.914 164.513 163.83C163.564 166.601 163.266 169.552 163.64 172.455C164.015 175.359 165.052 178.139 166.672 180.58C169.091 184.594 172.368 188.025 176.269 190.63C184.021 195.959 192.879 199.476 202.182 200.92C200.047 187.001 192.667 174.421 181.548 165.744L179.388 163.83ZM280.4 18.8216C279.943 20.2178 279.382 21.5776 278.72 22.8895C278.264 21.4933 277.702 20.1335 277.04 18.8216C269.053 37.0925 264.889 56.7973 264.804 76.7292C264.956 96.8858 269.115 116.812 277.04 135.355C277.702 134.043 278.264 132.683 278.72 131.287C279.382 132.599 279.943 133.959 280.4 135.355C288.401 116.827 292.642 96.9013 292.876 76.7292C292.709 56.7814 288.463 37.0772 280.4 18.8216ZM376.372 165.744C370.66 169.845 365.873 175.094 362.319 181.152C358.765 187.211 356.523 193.944 355.738 200.92C364.98 199.523 373.77 196.001 381.411 190.63C385.437 188.099 388.808 184.656 391.248 180.58L392.447 178.427C394.236 173.725 394.236 168.532 392.447 163.83C387.59 161.923 382.189 161.923 377.332 163.83L376.372 165.744ZM352.379 219.823C350.22 216.473 348.3 213.123 346.381 209.773C342.815 208.095 339.368 206.176 336.064 204.03C315.18 188.922 296.454 171.051 280.4 150.908L278.72 152.823L277.04 150.908C260.945 171.111 242.039 188.918 220.897 203.791C217.674 205.935 214.307 207.854 210.819 209.534C209.089 213.037 207.084 216.397 204.821 219.584L198.823 227.959C196.743 230.831 194.584 233.463 192.345 235.856C179.971 250.217 166.319 263.432 151.556 275.338L153.476 276.774C152.954 277.454 152.301 278.023 151.556 278.449C166.261 290.334 179.908 303.463 192.345 317.692C196.664 322.956 200.982 328.46 204.821 334.203C207.084 337.39 209.089 340.75 210.819 344.253C214.307 345.933 217.674 347.852 220.897 349.996C226.642 353.834 232.169 357.988 237.452 362.439C252 374.699 265.337 388.321 277.28 403.118L278.96 401.204L280.4 403.118C292.407 388.53 305.653 375 319.988 362.678C325.267 358.371 330.785 354.303 336.543 350.235C339.848 348.09 343.295 346.171 346.86 344.492C348.78 341.142 350.699 337.792 352.859 334.442C367.934 313.406 385.952 294.631 406.363 278.688L404.204 277.013L406.363 275.577C388.576 261.518 372.474 245.46 358.377 227.72C357.178 225.566 355.258 222.695 352.379 219.823ZM510.734 266.245C505.895 265.278 501.01 264.559 496.098 264.092H488.9H481.462C461.094 264.218 440.952 268.366 422.199 276.295L426.278 277.731L422.199 279.406C440.952 287.336 461.094 291.483 481.462 291.61H488.9H496.098C501.01 291.143 505.895 290.424 510.734 289.456C520.681 287.254 530.4 284.129 539.765 280.124L535.686 278.449L539.765 277.013C530.451 272.516 520.73 268.911 510.734 266.245Z" fill="#EEEEEE"/>
<path d="M288.317 185.844C286.116 189.941 282.893 193.402 278.96 195.894C275.154 193.325 272.026 189.877 269.843 185.844C267.984 182.716 266.914 179.186 266.724 175.555V173.162H269.363C272.937 173.863 276.253 175.517 278.96 177.948C281.79 175.563 285.171 173.918 288.797 173.162H291.197V175.555C291.089 179.167 290.1 182.699 288.317 185.844ZM277.281 182.255C275.531 180.626 273.499 179.328 271.282 178.426C272.478 183.271 275.163 187.621 278.96 190.869C282.925 187.726 285.714 183.343 286.878 178.426C284.614 179.377 282.51 180.668 280.64 182.255L278.96 184.169L277.281 182.255Z" fill="#EEEEEE"/>
<path d="M280.4 206.662L278.96 204.987L277.52 206.662C274.802 209.351 271.394 211.241 267.67 212.127C263.946 213.014 260.05 212.861 256.407 211.687H254.007L256.407 208.337C256.91 207.44 257.558 206.631 258.326 205.945C261.936 202.581 266.594 200.554 271.522 200.202C273.816 199.717 276.186 199.717 278.48 200.202C280.857 199.737 283.301 199.737 285.678 200.202C290.592 200.609 295.233 202.629 298.874 205.945L300.794 208.337L302.233 210.491H299.834C296.528 211.487 293.027 211.658 289.639 210.991C286.25 210.323 283.078 208.837 280.4 206.662ZM263.125 206.662H261.925C264.117 206.868 266.329 206.635 268.43 205.978C270.531 205.32 272.48 204.252 274.161 202.834C270.115 203.056 266.247 204.566 263.125 207.141V206.662ZM296.235 206.662C295.842 206.764 295.429 206.764 295.035 206.662C291.727 204.626 287.883 203.626 283.999 203.791C285.626 205.318 287.555 206.489 289.662 207.231C291.769 207.972 294.007 208.268 296.235 208.098V206.662Z" fill="#EEEEEE"/>
<path d="M343.501 339.707H341.582V341.621L337.743 340.185C322.856 335.431 309.682 326.45 299.834 314.342C293.923 307.173 289.222 299.091 285.918 290.413H278.48H271.282C267.888 299.048 263.195 307.116 257.366 314.342C247.518 326.45 234.344 335.431 219.457 340.185L215.378 341.621V339.707H213.459L214.898 335.639C218.913 323.467 225.738 312.406 234.823 303.345C243.908 294.285 254.999 287.478 267.203 283.474C267.339 281.083 267.339 278.686 267.203 276.295C267.203 273.903 267.203 271.51 267.203 269.117C255.288 265.116 244.468 258.408 235.599 249.521C226.729 240.633 220.053 229.811 216.098 217.909L214.658 213.841H216.578V211.927L220.657 213.363C232.602 217.245 243.491 223.819 252.478 232.575C261.466 241.331 268.31 252.033 272.482 263.852H279.68H287.118C291.24 252.006 298.068 241.278 307.063 232.515C316.057 223.752 326.971 217.196 338.943 213.363L342.782 211.927V213.841H344.701L343.262 217.909C339.257 229.785 332.564 240.581 323.701 249.462C314.839 258.342 304.045 265.067 292.156 269.117V276.295C292.156 278.848 292.156 281.241 292.156 283.474C304.035 287.612 314.812 294.396 323.667 303.31C332.523 312.225 339.224 323.036 343.262 334.921L343.501 339.707ZM264.564 291.849C264.524 291.052 264.524 290.253 264.564 289.456C254.584 293.339 245.513 299.232 237.918 306.766C230.322 314.3 224.365 323.314 220.417 333.246H222.576C222.666 333.961 222.666 334.684 222.576 335.4C238.797 329.263 252.427 317.78 261.205 302.856C263.279 299.309 265.123 295.632 266.724 291.849H264.564ZM222.576 220.063C222.666 220.778 222.666 221.501 222.576 222.216H220.417C224.402 232.126 230.373 241.121 237.963 248.651C245.554 256.18 254.606 262.086 264.564 266.006C264.604 265.209 264.604 264.41 264.564 263.613H266.724C262.811 253.688 256.864 244.688 249.261 237.188C241.659 229.689 232.57 223.856 222.576 220.063ZM294.556 262.656C294.421 263.448 294.421 264.257 294.556 265.049C304.484 261.126 313.502 255.217 321.053 247.686C328.604 240.154 334.529 231.161 338.463 221.259H336.304C336.394 220.544 336.394 219.821 336.304 219.106C326.362 222.939 317.326 228.79 309.768 236.286C302.21 243.782 296.295 252.762 292.396 262.656H294.556ZM287.118 277.013C287.236 274.941 287.236 272.864 287.118 270.792H285.918H279.44H272.962H271.522C271.641 272.864 271.641 274.941 271.522 277.013C271.641 279.165 271.641 281.322 271.522 283.474H272.962V284.67H279.44H285.918V283.474H287.118C286.918 281.304 286.598 279.147 286.158 277.013H287.118ZM293.596 289.217C293.538 290.014 293.538 290.813 293.596 291.61H291.436C292.936 295.439 294.783 299.123 296.955 302.617C305.702 317.475 319.232 328.944 335.344 335.16C335.434 334.445 335.434 333.722 335.344 333.007H337.503C333.501 322.99 327.442 313.92 319.715 306.378C311.987 298.837 302.764 292.991 292.636 289.217H293.596Z" fill="#EEEEEE"/>
</svg>
