<svg width="19" height="21" viewBox="0 0 19 21" fill="none" xmlns="http://www.w3.org/2000/svg">
<path d="M11.9804 7.36759C11.8348 7.3312 11.6801 7.3039 11.5163 7.2857C11.3708 7.24931 11.1797 7.23111 10.9431 7.23111C10.3426 7.23111 9.78755 7.36759 9.27801 7.64056C8.76847 7.89533 8.33172 8.24109 7.96776 8.67784C7.60381 9.09639 7.31264 9.57863 7.09427 10.1246C6.89409 10.6705 6.794 11.2346 6.794 11.817C6.794 12.3993 6.92139 12.8724 7.17616 13.2364C7.44913 13.6003 7.84948 13.7823 8.37722 13.7823C8.88675 13.7823 9.38719 13.6003 9.87853 13.2364C10.3699 12.8542 10.7611 12.1263 11.0523 11.0527L11.9804 7.36759ZM12.9358 10.8343C12.772 11.453 12.6901 11.9625 12.6901 12.3629C12.7083 12.7451 12.772 13.0544 12.8812 13.291C13.0086 13.5094 13.1723 13.664 13.3725 13.755C13.5909 13.8278 13.8275 13.8642 14.0822 13.8642C14.4826 13.8642 14.8556 13.7459 15.2014 13.5094C15.5654 13.2728 15.8838 12.9452 16.1568 12.5267C16.4298 12.0899 16.639 11.5804 16.7846 10.9981C16.9484 10.3975 17.0303 9.73331 17.0303 9.0054C17.0303 7.85893 16.8483 6.84896 16.4843 5.97546C16.1204 5.10196 15.6109 4.38315 14.9557 3.81902C14.3188 3.23669 13.5636 2.79994 12.6901 2.50877C11.8166 2.21761 10.8794 2.07203 9.87853 2.07203C8.75027 2.07203 7.6948 2.2904 6.71211 2.72715C5.74763 3.1457 4.90143 3.72803 4.17352 4.47414C3.4456 5.22025 2.87237 6.11194 2.45382 7.14922C2.05347 8.1865 1.8533 9.30566 1.8533 10.5067C1.8533 11.9261 2.07167 13.1818 2.50842 14.2737C2.96336 15.3473 3.57299 16.2481 4.3373 16.976C5.10161 17.704 6.0024 18.2499 7.03967 18.6138C8.07695 18.9778 9.19612 19.1598 10.3972 19.1598C11.6892 19.1598 12.8175 19.0142 13.782 18.723C14.7465 18.4501 15.5745 18.1043 16.266 17.6858C16.6481 17.4856 16.9029 17.5584 17.0303 17.9041L17.3851 18.7776C16.4752 19.36 15.4471 19.824 14.3006 20.1698C13.1541 20.5337 11.853 20.7157 10.3972 20.7157C8.92315 20.7157 7.54921 20.4791 6.27537 20.006C5.01972 19.551 3.92785 18.8868 2.99976 18.0133C2.07167 17.1398 1.34376 16.0753 0.816019 14.8196C0.288282 13.5458 0.0244141 12.1081 0.0244141 10.5067C0.0244141 9.14188 0.279184 7.84983 0.788723 6.63058C1.29826 5.41133 1.98978 4.35585 2.86327 3.46416C3.75497 2.55427 4.80134 1.83545 6.0024 1.30772C7.20346 0.779982 8.4955 0.516113 9.87853 0.516113C11.0432 0.516113 12.1624 0.70719 13.236 1.08934C14.3097 1.4715 15.256 2.02653 16.0749 2.75444C16.912 3.46416 17.5762 4.34676 18.0676 5.40223C18.5589 6.4577 18.8046 7.65876 18.8046 9.0054C18.8046 9.91529 18.6681 10.7615 18.3951 11.544C18.1403 12.3265 17.7855 12.9998 17.3305 13.564C16.8756 14.1281 16.3388 14.5739 15.72 14.9015C15.1013 15.2109 14.4371 15.3655 13.7274 15.3655C13.0723 15.3655 12.5354 15.2018 12.1169 14.8742C11.7165 14.5284 11.4708 14.0098 11.3799 13.3183C10.8885 14.028 10.3517 14.5375 9.76935 14.8469C9.18702 15.1563 8.55919 15.3109 7.88587 15.3109C6.8668 15.3109 6.11159 14.9834 5.62024 14.3283C5.1289 13.6731 4.88323 12.8542 4.88323 11.8716C4.88323 11.1618 5.01972 10.443 5.29268 9.71511C5.56565 8.9872 5.966 8.33208 6.49374 7.74975C7.03968 7.14922 7.713 6.66698 8.5137 6.30302C9.3144 5.93906 10.2516 5.75709 11.3253 5.75709C11.9258 5.75709 12.4444 5.80258 12.8812 5.89357C13.3179 5.98456 13.7274 6.11194 14.1095 6.27572L12.9358 10.8343Z" fill="#A4A4A4"/>
</svg>
