<svg width="17" height="18" viewBox="0 0 17 18" fill="none" xmlns="http://www.w3.org/2000/svg">
<path d="M6.62778 8.40947C6.55856 8.40255 6.4755 8.40255 6.39937 8.40947C4.75203 8.35409 3.44385 7.00439 3.44385 5.3432C3.44385 3.64742 4.81432 2.27002 6.51703 2.27002C8.21282 2.27002 9.59022 3.64742 9.59022 5.3432C9.5833 7.00439 8.27512 8.35409 6.62778 8.40947Z" stroke="#292D32" stroke-width="1.24589" stroke-linecap="round" stroke-linejoin="round"/>
<path d="M11.6459 3.6543C12.9887 3.6543 14.0684 4.74099 14.0684 6.07685C14.0684 7.38503 13.0302 8.45096 11.7359 8.49941C11.6805 8.49249 11.6182 8.49249 11.5559 8.49941" stroke="#292D32" stroke-width="1.24589" stroke-linecap="round" stroke-linejoin="round"/>
<path d="M3.16691 10.9637C1.49189 12.085 1.49189 13.9123 3.16691 15.0266C5.07035 16.3002 8.19199 16.3002 10.0954 15.0266C11.7704 13.9053 11.7704 12.078 10.0954 10.9637C8.19891 9.69701 5.07727 9.69701 3.16691 10.9637Z" stroke="#292D32" stroke-width="1.24589" stroke-linecap="round" stroke-linejoin="round"/>
<path d="M12.9817 14.7289C13.48 14.6251 13.9507 14.4243 14.3383 14.1267C15.4181 13.3169 15.4181 11.981 14.3383 11.1712C13.9576 10.8805 13.4939 10.6867 13.0025 10.5759" stroke="#292D32" stroke-width="1.24589" stroke-linecap="round" stroke-linejoin="round"/>
</svg>
