<svg width="17" height="17" viewBox="0 0 17 17" fill="none" xmlns="http://www.w3.org/2000/svg">
<path d="M15.5834 11.8576V3.30803C15.5834 2.45803 14.8892 1.82761 14.0463 1.89845H14.0038C12.5163 2.02595 10.2567 2.78386 8.99592 3.5772L8.8755 3.65511C8.67008 3.78261 8.33008 3.78261 8.12467 3.65511L7.94758 3.54886C6.68675 2.76261 4.43425 2.01178 2.94675 1.89136C2.10383 1.82053 1.41675 2.45803 1.41675 3.30095V11.8576C1.41675 12.5376 1.96925 13.1751 2.64925 13.2601L2.85466 13.2884C4.39175 13.4939 6.76467 14.273 8.12467 15.0168L8.153 15.0309C8.34425 15.1372 8.64883 15.1372 8.833 15.0309C10.193 14.2801 12.573 13.4939 14.1172 13.2884L14.3509 13.2601C15.0309 13.1751 15.5834 12.5376 15.5834 11.8576Z" stroke="#292D32" stroke-width="1.0625" stroke-linecap="round" stroke-linejoin="round"/>
<path d="M8.5 3.88867V14.5137" stroke="#292D32" stroke-width="1.0625" stroke-linecap="round" stroke-linejoin="round"/>
<path d="M5.4895 6.01367H3.89575" stroke="#292D32" stroke-width="1.0625" stroke-linecap="round" stroke-linejoin="round"/>
<path d="M6.02075 8.13867H3.89575" stroke="#292D32" stroke-width="1.0625" stroke-linecap="round" stroke-linejoin="round"/>
</svg>
