<svg width="9" height="10" viewBox="0 0 9 10" fill="none" xmlns="http://www.w3.org/2000/svg">
<path d="M8.84998 4H0.150024C0.0670244 4 0 4.07149 0 4.16003V8.4C0 9.46667 0.5 10 1.5 10H7.5C8.5 10 9 9.46667 9 8.4V4.16003C9 4.07149 8.93298 4 8.84998 4ZM2.51001 8.4C2.23401 8.4 2.00745 8.16107 2.00745 7.86667C2.00745 7.57227 2.229 7.33333 2.505 7.33333H2.51001C2.78651 7.33333 3.01001 7.57227 3.01001 7.86667C3.01001 8.16107 2.78601 8.4 2.51001 8.4ZM2.51001 6.26667C2.23401 6.26667 2.00745 6.02773 2.00745 5.73333C2.00745 5.43893 2.229 5.2 2.505 5.2H2.51001C2.78651 5.2 3.01001 5.43893 3.01001 5.73333C3.01001 6.02773 2.78601 6.26667 2.51001 6.26667ZM4.51001 8.4C4.23401 8.4 4.00745 8.16107 4.00745 7.86667C4.00745 7.57227 4.229 7.33333 4.505 7.33333H4.51001C4.78651 7.33333 5.01001 7.57227 5.01001 7.86667C5.01001 8.16107 4.78601 8.4 4.51001 8.4ZM4.51001 6.26667C4.23401 6.26667 4.00745 6.02773 4.00745 5.73333C4.00745 5.43893 4.229 5.2 4.505 5.2H4.51001C4.78651 5.2 5.01001 5.43893 5.01001 5.73333C5.01001 6.02773 4.78601 6.26667 4.51001 6.26667ZM6.51001 8.4C6.23401 8.4 6.00745 8.16107 6.00745 7.86667C6.00745 7.57227 6.229 7.33333 6.505 7.33333H6.51001C6.78651 7.33333 7.01001 7.57227 7.01001 7.86667C7.01001 8.16107 6.78601 8.4 6.51001 8.4ZM6.51001 6.26667C6.23401 6.26667 6.00745 6.02773 6.00745 5.73333C6.00745 5.43893 6.229 5.2 6.505 5.2H6.51001C6.78651 5.2 7.01001 5.43893 7.01001 5.73333C7.01001 6.02773 6.78601 6.26667 6.51001 6.26667ZM9 2.8V3.03997C9 3.12851 8.93298 3.2 8.84998 3.2H0.150024C0.0670244 3.2 0 3.12851 0 3.03997V2.8C0 1.73333 0.5 1.2 1.5 1.2H2.125V0.4C2.125 0.181333 2.295 0 2.5 0C2.705 0 2.875 0.181333 2.875 0.4V1.2H6.125V0.4C6.125 0.181333 6.295 0 6.5 0C6.705 0 6.875 0.181333 6.875 0.4V1.2H7.5C8.5 1.2 9 1.73333 9 2.8Z" fill="#515151"/>
</svg>
