<svg width="17" height="17" viewBox="0 0 17 17" fill="none" xmlns="http://www.w3.org/2000/svg">
<path d="M15.5622 12.9838C15.5622 13.2388 15.5055 13.5009 15.3851 13.7559C15.2647 14.0109 15.1088 14.2517 14.9034 14.4784C14.5563 14.8609 14.1738 15.1372 13.7417 15.3142C13.3167 15.4913 12.8563 15.5834 12.3605 15.5834C11.638 15.5834 10.8659 15.4134 10.0513 15.0663C9.23675 14.7192 8.42216 14.2517 7.61466 13.6638C6.80008 13.0688 6.028 12.4101 5.29133 11.6805C4.56175 10.9438 3.903 10.1717 3.31508 9.36425C2.73425 8.55675 2.26675 7.74925 1.92675 6.94883C1.58675 6.14133 1.41675 5.36925 1.41675 4.63258C1.41675 4.15091 1.50175 3.6905 1.67175 3.2655C1.84175 2.83341 2.11091 2.43675 2.48633 2.08258C2.93966 1.63633 3.4355 1.41675 3.95966 1.41675C4.158 1.41675 4.35633 1.45925 4.53341 1.54425C4.71758 1.62925 4.8805 1.75675 5.008 1.94091L6.65133 4.25717C6.77883 4.43425 6.87091 4.59716 6.93466 4.753C6.99841 4.90175 7.03383 5.0505 7.03383 5.18508C7.03383 5.35508 6.98425 5.52508 6.88508 5.688C6.793 5.85091 6.65841 6.02091 6.48841 6.19091L5.95008 6.7505C5.87216 6.82841 5.83675 6.9205 5.83675 7.03383C5.83675 7.0905 5.84383 7.14008 5.858 7.19675C5.87925 7.25341 5.9005 7.29591 5.91466 7.33841C6.04216 7.57216 6.26175 7.87675 6.57341 8.24508C6.89216 8.61342 7.23216 8.98883 7.6005 9.36425C7.983 9.73967 8.35133 10.0867 8.72675 10.4055C9.09508 10.7172 9.39966 10.9297 9.6405 11.0572C9.67591 11.0713 9.71841 11.0926 9.768 11.1138C9.82466 11.1351 9.88133 11.1422 9.94508 11.1422C10.0655 11.1422 10.1576 11.0997 10.2355 11.0217L10.7738 10.4905C10.9509 10.3134 11.1209 10.1788 11.2838 10.0938C11.4467 9.99467 11.6097 9.94508 11.7867 9.94508C11.9213 9.94508 12.063 9.97342 12.2188 10.0372C12.3747 10.1009 12.5376 10.193 12.7147 10.3134L15.0592 11.978C15.2434 12.1055 15.3709 12.2542 15.4488 12.4313C15.5197 12.6084 15.5622 12.7855 15.5622 12.9838Z" stroke="#292D32" stroke-width="1.25" stroke-miterlimit="10"/>
<path d="M13.1042 6.37516C13.1042 5.95016 12.7713 5.2985 12.2754 4.76725C11.8221 4.2785 11.22 3.896 10.625 3.896" stroke="#292D32" stroke-width="1.25" stroke-linecap="round" stroke-linejoin="round"/>
<path d="M15.5833 6.37508C15.5833 3.63383 13.3663 1.41675 10.625 1.41675" stroke="#292D32" stroke-width="1.25" stroke-linecap="round" stroke-linejoin="round"/>
</svg>
