<svg width="23" height="24" viewBox="0 0 23 24" fill="none" xmlns="http://www.w3.org/2000/svg">
<path d="M10.544 14.9698L8.78154 16.7322C8.41 17.1038 7.81935 17.1038 7.43829 16.7418C7.33349 16.637 7.2287 16.5417 7.12391 16.4369C6.14266 15.4461 5.25669 14.4077 4.46598 13.3217C3.68479 12.2357 3.05603 11.1496 2.59875 10.0731C2.151 8.98708 1.92236 7.94868 1.92236 6.95791C1.92236 6.31009 2.03668 5.69086 2.26532 5.11926C2.49396 4.53814 2.85597 4.00465 3.36089 3.52832C3.97059 2.92814 4.63745 2.63281 5.34243 2.63281C5.60917 2.63281 5.87592 2.68997 6.11408 2.80429C6.36178 2.91861 6.58089 3.09009 6.75237 3.33778L8.96255 6.45299C9.13403 6.69116 9.25787 6.91027 9.34361 7.11986C9.42935 7.31992 9.47699 7.51998 9.47699 7.70098C9.47699 7.92962 9.4103 8.15826 9.27693 8.37737C9.15308 8.59649 8.97207 8.82513 8.74344 9.05377L8.01941 9.80637C7.91462 9.91116 7.86698 10.035 7.86698 10.1874C7.86698 10.2636 7.87651 10.3303 7.89557 10.4065C7.92415 10.4828 7.95272 10.5399 7.97178 10.5971C8.14326 10.9115 8.43858 11.3211 8.85775 11.8165C9.28645 12.3119 9.74373 12.8168 10.2391 13.3217C10.3344 13.417 10.4392 13.5122 10.5344 13.6075C10.9155 13.979 10.925 14.5887 10.544 14.9698Z" fill="#A4A4A4"/>
<path d="M20.9475 18.1897C20.9475 18.4565 20.8999 18.7327 20.8046 18.9995C20.7761 19.0757 20.7475 19.1519 20.7094 19.2281C20.5474 19.5711 20.3378 19.895 20.0616 20.1998C19.5948 20.7143 19.0803 21.0858 18.4992 21.324C18.4897 21.324 18.4801 21.3335 18.4706 21.3335C17.9085 21.5621 17.2988 21.686 16.6415 21.686C15.6698 21.686 14.6314 21.4573 13.5358 20.9905C12.4402 20.5237 11.3447 19.895 10.2586 19.1043C9.88711 18.828 9.51557 18.5517 9.16309 18.2564L12.2783 15.1412C12.545 15.3412 12.7832 15.4937 12.9833 15.5985C13.0309 15.6175 13.0881 15.6461 13.1547 15.6747C13.231 15.7033 13.3072 15.7128 13.3929 15.7128C13.5549 15.7128 13.6787 15.6556 13.7835 15.5508L14.5075 14.8363C14.7457 14.5982 14.9743 14.4172 15.1934 14.3028C15.4126 14.1695 15.6317 14.1028 15.8698 14.1028C16.0508 14.1028 16.2414 14.1409 16.451 14.2266C16.6605 14.3124 16.8797 14.4362 17.1178 14.5982L20.2711 16.8369C20.5188 17.0084 20.6903 17.2085 20.7951 17.4466C20.8904 17.6848 20.9475 17.923 20.9475 18.1897Z" fill="#A4A4A4"/>
</svg>
