<svg width="21" height="21" viewBox="0 0 21 21" fill="none" xmlns="http://www.w3.org/2000/svg">
<path d="M5.90152 9.55021C6.26569 9.55021 6.55364 9.25379 6.55364 8.89809C6.55364 8.58473 6.867 7.9326 7.39209 7.36517C7.90871 6.81468 8.47614 6.49285 8.95041 6.49285C9.31459 6.49285 9.60254 6.19643 9.60254 5.84072C9.60254 5.48502 9.30612 5.1886 8.95041 5.1886C8.1035 5.1886 7.21424 5.64593 6.43508 6.46744C5.70673 7.23813 5.24093 8.19515 5.24093 8.88962C5.24093 9.25379 5.53735 9.55021 5.90152 9.55021Z" fill="#44C96C"/>
<path d="M2.84433 9.5504C3.2085 9.5504 3.49645 9.25398 3.49645 8.89827C3.49645 5.89173 5.94404 3.45261 8.94211 3.45261C9.30629 3.45261 9.59424 3.15619 9.59424 2.80049C9.59424 2.44478 9.30629 2.13989 8.95058 2.13989C5.22416 2.13989 2.1922 5.17185 2.1922 8.89827C2.1922 9.25398 2.48862 9.5504 2.84433 9.5504Z" fill="#44C96C"/>
<path d="M11.4658 13.1074L13.0326 14.6742C13.3629 15.0045 13.888 15.0045 14.2267 14.6827C14.3199 14.5895 14.4131 14.5048 14.5062 14.4117C15.3785 13.5309 16.1662 12.6078 16.8691 11.6423C17.5636 10.6768 18.1225 9.71131 18.5291 8.7543C18.9271 7.78882 19.1304 6.86568 19.1304 5.98489C19.1304 5.40898 19.0287 4.85849 18.8255 4.35034C18.6222 3.83372 18.3004 3.35945 17.8515 2.93599C17.3095 2.40244 16.7167 2.13989 16.0899 2.13989C15.8528 2.13989 15.6157 2.19071 15.4039 2.29234C15.1837 2.39397 14.989 2.54641 14.8365 2.76661L12.8717 5.53602C12.7192 5.74775 12.6091 5.94254 12.5329 6.12886C12.4567 6.30671 12.4143 6.48457 12.4143 6.64548C12.4143 6.84874 12.4736 7.052 12.5922 7.24679C12.7023 7.44158 12.8632 7.64484 13.0665 7.8481L13.7101 8.51716C13.8033 8.61032 13.8456 8.72042 13.8456 8.85593C13.8456 8.92368 13.8372 8.98296 13.8202 9.05072C13.7948 9.11847 13.7694 9.16929 13.7525 9.2201C13.6 9.49958 13.3375 9.86376 12.9648 10.3042C12.5837 10.7445 12.1772 11.1934 11.7368 11.6423C11.6521 11.727 11.559 11.8117 11.4743 11.8964C11.1355 12.2266 11.127 12.7687 11.4658 13.1074Z" fill="#44C96C"/>
<path d="M2.21751 15.9698C2.21751 16.2069 2.25986 16.4526 2.34455 16.6897C2.36995 16.7574 2.39536 16.8252 2.42924 16.893C2.57321 17.1978 2.75953 17.4858 3.00514 17.7568C3.42013 18.2141 3.87746 18.5444 4.39408 18.7562C4.40255 18.7562 4.41102 18.7646 4.41949 18.7646C4.91917 18.9679 5.46119 19.078 6.04556 19.078C6.90942 19.078 7.83256 18.8747 8.80651 18.4597C9.78046 18.0448 10.7544 17.4858 11.7199 16.7829C12.0502 16.5372 12.3805 16.2916 12.6938 16.0291L9.92444 13.2597C9.6873 13.4375 9.47557 13.573 9.29772 13.6662C9.25537 13.6831 9.20456 13.7085 9.14527 13.734C9.07752 13.7594 9.00977 13.7678 8.93355 13.7678C8.78957 13.7678 8.67947 13.717 8.58631 13.6239L7.94265 12.9887C7.73093 12.7769 7.52767 12.616 7.33288 12.5144C7.13809 12.3958 6.9433 12.3365 6.73157 12.3365C6.57065 12.3365 6.40127 12.3704 6.21495 12.4466C6.02863 12.5229 5.83384 12.633 5.62211 12.7769L2.81882 14.7672C2.59862 14.9196 2.44618 15.0975 2.35302 15.3092C2.26832 15.5209 2.21751 15.7327 2.21751 15.9698Z" fill="#44C96C"/>
</svg>
