<svg width="18" height="18" viewBox="0 0 18 18" fill="none" xmlns="http://www.w3.org/2000/svg">
<path d="M17.1343 13.7372C17.1343 14.0171 17.0721 14.3048 16.9399 14.5846C16.8078 14.8645 16.6367 15.1288 16.4113 15.3776C16.0304 15.7974 15.6106 16.1006 15.1363 16.2949C14.6699 16.4893 14.1646 16.5904 13.6204 16.5904C12.8274 16.5904 11.98 16.4038 11.086 16.0228C10.192 15.6419 9.29795 15.1288 8.41169 14.4836C7.51767 13.8305 6.67028 13.1075 5.86177 12.3068C5.06104 11.4983 4.33804 10.6509 3.69279 9.76465C3.05531 8.8784 2.54221 7.99214 2.16905 7.11366C1.79589 6.22741 1.60931 5.38003 1.60931 4.57152C1.60931 4.04288 1.7026 3.53756 1.88918 3.07111C2.07576 2.59688 2.37118 2.16153 2.78321 1.77282C3.28076 1.28305 3.82495 1.04205 4.40023 1.04205C4.61791 1.04205 4.83559 1.0887 5.02994 1.18199C5.23207 1.27528 5.41087 1.41521 5.55081 1.61734L7.35441 4.15949C7.49435 4.35384 7.59541 4.53265 7.66538 4.70368C7.73534 4.86693 7.77421 5.03019 7.77421 5.1779C7.77421 5.36448 7.7198 5.55106 7.61096 5.72987C7.50989 5.90867 7.36218 6.09525 7.1756 6.28183L6.58477 6.89599C6.49925 6.9815 6.46038 7.08257 6.46038 7.20695C6.46038 7.26915 6.46816 7.32357 6.48371 7.38576C6.50703 7.44795 6.53035 7.4946 6.5459 7.54124C6.68583 7.79779 6.92683 8.13208 7.26889 8.53633C7.61873 8.94059 7.99189 9.35262 8.39615 9.76465C8.81595 10.1767 9.22021 10.5576 9.63224 10.9074C10.0365 11.2495 10.3708 11.4827 10.6351 11.6227C10.674 11.6382 10.7206 11.6615 10.775 11.6849C10.8372 11.7082 10.8994 11.716 10.9694 11.716C11.1016 11.716 11.2026 11.6693 11.2881 11.5838L11.879 11.0007C12.0733 10.8064 12.2599 10.6587 12.4387 10.5654C12.6175 10.4565 12.7963 10.4021 12.9907 10.4021C13.1384 10.4021 13.2939 10.4332 13.4649 10.5032C13.6359 10.5732 13.8147 10.6742 14.0091 10.8064L16.5823 12.6333C16.7845 12.7732 16.9244 12.9365 17.0099 13.1309C17.0876 13.3252 17.1343 13.5196 17.1343 13.7372Z" stroke="#9195A0" stroke-width="1.72027" stroke-miterlimit="10"/>
</svg>
