<svg width="17" height="17" viewBox="0 0 17 17" fill="none" xmlns="http://www.w3.org/2000/svg">
<path d="M15.562 12.9841C15.562 13.2391 15.5054 13.5012 15.385 13.7562C15.2645 14.0112 15.1087 14.252 14.9033 14.4787C14.5562 14.8612 14.1737 15.1374 13.7416 15.3145C13.3166 15.4916 12.8562 15.5837 12.3604 15.5837C11.6379 15.5837 10.8658 15.4137 10.0512 15.0666C9.23663 14.7195 8.42204 14.252 7.61454 13.6641C6.79996 13.0691 6.02788 12.4103 5.29121 11.6807C4.56163 10.9441 3.90288 10.172 3.31496 9.36449C2.73413 8.55699 2.26663 7.74949 1.92663 6.94908C1.58663 6.14158 1.41663 5.36949 1.41663 4.63283C1.41663 4.15116 1.50163 3.69074 1.67163 3.26574C1.84163 2.83366 2.11079 2.43699 2.48621 2.08283C2.93954 1.63658 3.43538 1.41699 3.95954 1.41699C4.15788 1.41699 4.35621 1.45949 4.53329 1.54449C4.71746 1.62949 4.88038 1.75699 5.00788 1.94116L6.65121 4.25741C6.77871 4.43449 6.87079 4.59741 6.93454 4.75324C6.99829 4.90199 7.03371 5.05074 7.03371 5.18533C7.03371 5.35533 6.98413 5.52533 6.88496 5.68824C6.79288 5.85116 6.65829 6.02116 6.48829 6.19116L5.94996 6.75074C5.87204 6.82866 5.83663 6.92074 5.83663 7.03408C5.83663 7.09074 5.84371 7.14033 5.85788 7.19699C5.87913 7.25366 5.90038 7.29616 5.91454 7.33866C6.04204 7.57241 6.26163 7.87699 6.57329 8.24533C6.89204 8.61366 7.23204 8.98908 7.60038 9.36449C7.98288 9.73991 8.35121 10.087 8.72663 10.4057C9.09496 10.7174 9.39954 10.9299 9.64038 11.0574C9.67579 11.0716 9.71829 11.0928 9.76788 11.1141C9.82454 11.1353 9.88121 11.1424 9.94496 11.1424C10.0654 11.1424 10.1575 11.0999 10.2354 11.022L10.7737 10.4907C10.9508 10.3137 11.1208 10.1791 11.2837 10.0941C11.4466 9.99491 11.6095 9.94533 11.7866 9.94533C11.9212 9.94533 12.0629 9.97366 12.2187 10.0374C12.3745 10.1012 12.5375 10.1932 12.7145 10.3137L15.0591 11.9782C15.2433 12.1057 15.3708 12.2545 15.4487 12.4316C15.5195 12.6087 15.562 12.7857 15.562 12.9841Z" stroke="black" stroke-width="1.25" stroke-miterlimit="10"/>
<path d="M13.1042 6.37516C13.1042 5.95016 12.7713 5.2985 12.2754 4.76725C11.8221 4.2785 11.22 3.896 10.625 3.896" stroke="black" stroke-width="1.25" stroke-linecap="round" stroke-linejoin="round"/>
<path d="M15.5833 6.37533C15.5833 3.63408 13.3663 1.41699 10.625 1.41699" stroke="black" stroke-width="1.25" stroke-linecap="round" stroke-linejoin="round"/>
</svg>
