<svg width="64" height="65" viewBox="0 0 64 65" fill="none" xmlns="http://www.w3.org/2000/svg">
<mask id="mask0_428_219" style="mask-type:luminance" maskUnits="userSpaceOnUse" x="0" y="0" width="64" height="65">
<path d="M64 0H0V65H64V0Z" fill="white"/>
</mask>
<g mask="url(#mask0_428_219)">
<path fill-rule="evenodd" clip-rule="evenodd" d="M18.295 30.0117V9.23203C18.295 7.32266 19.045 5.49453 20.365 4.14375C21.695 2.79297 23.505 2.03125 25.375 2.03125C27.255 2.03125 29.055 2.79297 30.385 4.14375C31.715 5.49453 32.465 7.32266 32.465 9.23203V23.2781C32.465 24.3994 33.361 25.3094 34.465 25.3094H48.295C50.175 25.3094 51.975 26.0711 53.305 27.4219C54.635 28.7625 55.375 30.6008 55.375 32.5V42.9711C55.405 48.1813 53.495 53.2086 50.015 57.0477C48.345 58.8656 46.345 60.3383 44.115 61.3742C41.825 62.4305 39.345 62.9688 36.835 62.9688C34.125 62.9688 31.455 62.3391 29.025 61.1203C26.675 59.932 24.605 58.2563 22.935 56.2047L10.515 42.6156C9.295 41.2852 8.625 39.5383 8.625 37.7305C8.625 35.7195 9.445 33.8102 10.895 32.4492C12.205 31.2203 13.925 30.5297 15.705 30.5297C16.595 30.5297 17.475 30.7023 17.475 30.7023C17.927 30.8821 18.295 30.5723 18.295 30.0117ZM14.175 39.1625C13.825 38.7664 13.625 38.2586 13.625 37.7305C13.625 37.1414 13.865 36.5727 14.295 36.1766C14.675 35.8109 15.185 35.6078 15.705 35.6078C16.285 35.6078 16.845 35.8516 17.235 36.2883L19.896 39.2052C21.772 41.2618 23.295 40.6555 23.295 37.8523V32.5V9.23203C23.295 8.67344 23.515 8.13516 23.905 7.72891C24.295 7.33281 24.825 7.10938 25.375 7.10938C25.935 7.10938 26.465 7.33281 26.855 7.72891C27.245 8.13516 27.465 8.67344 27.465 9.23203V25.5227C27.465 26.8125 27.965 28.0516 28.865 28.9656C29.765 29.8797 30.985 30.3875 32.255 30.3875H48.295C48.845 30.3875 49.375 30.6109 49.765 31.007C50.155 31.4031 50.375 31.9414 50.375 32.5V42.9812V42.9914C50.405 46.9219 48.955 50.7102 46.345 53.5945C45.125 54.925 43.665 56.0016 42.045 56.7531C40.405 57.5047 38.635 57.8906 36.835 57.8906C34.895 57.8906 32.985 57.4438 31.245 56.5703C29.515 55.6867 27.985 54.4477 26.755 52.9242C26.715 52.8836 26.685 52.843 26.655 52.8125L14.175 39.1625Z" fill="white"/>
<path d="M38.595 35.75C38.065 35.75 37.555 35.5367 37.185 35.1508C36.805 34.775 36.595 34.257 36.595 33.7188C36.595 33.1805 36.805 32.6625 37.185 32.2867C37.555 31.9008 38.065 31.6875 38.595 31.6875H45.595C46.395 31.6875 47.155 32.0125 47.715 32.5813C48.275 33.15 48.595 33.9219 48.595 34.7344V41.8438C48.595 42.382 48.385 42.9 48.005 43.2758C47.635 43.6617 47.125 43.875 46.595 43.875C46.065 43.875 45.555 43.6617 45.185 43.2758C44.805 42.9 44.595 42.382 44.595 41.8438V37.7812C44.595 36.66 43.699 35.75 42.595 35.75H38.595Z" fill="white"/>
</g>
</svg>
