<svg width="22" height="23" viewBox="0 0 22 23" fill="none" xmlns="http://www.w3.org/2000/svg">
<path d="M17.1325 9.56923C16.61 9.43173 15.9958 9.3584 15.2625 9.3584C14.245 9.3584 13.8691 9.6059 13.3466 10.0001C13.3191 10.0184 13.2916 10.0459 13.2641 10.0734L12.3933 10.9992C11.6691 11.7784 10.34 11.7784 9.60662 10.9992L8.73579 10.0826C8.70829 10.0459 8.68079 10.0184 8.65329 10.0001C8.12162 9.6059 7.74579 9.3584 6.73746 9.3584C6.00412 9.3584 5.38996 9.42256 4.86746 9.56923C2.68579 10.1559 2.68579 11.8884 2.68579 13.4101V14.2626C2.68579 16.5634 2.68579 19.1667 7.58996 19.1667H14.41C17.6641 19.1667 19.3141 17.5167 19.3141 14.2626V13.4101C19.3141 11.8884 19.3141 10.1559 17.1325 9.56923Z" fill="#929292"/>
<path d="M13.5575 0.833252H8.44254C4.39087 0.833252 4.39087 2.98742 4.39087 4.88492V8.27659C4.42754 8.25825 4.47337 8.24909 4.51004 8.23992C5.1517 8.06575 5.87587 7.98325 6.73754 7.98325C8.1492 7.98325 8.81837 8.39575 9.47837 8.89992C9.57004 8.96409 9.6617 9.04659 9.7442 9.13825L10.6059 10.0458C10.6975 10.1466 10.8442 10.2016 11 10.2016C11.1559 10.2016 11.3025 10.1466 11.385 10.0549L12.265 9.12909C12.3384 9.05575 12.4209 8.97325 12.5125 8.90909C13.1909 8.39575 13.8509 7.98325 15.2625 7.98325C16.1242 7.98325 16.8484 8.06575 17.49 8.23992C17.5267 8.24909 17.5725 8.25825 17.6092 8.27659V4.88492C17.6092 2.98742 17.6092 0.833252 13.5575 0.833252ZM12.4209 6.79159H9.5792C9.23087 6.79159 8.93754 6.49825 8.93754 6.14992C8.93754 5.79242 9.23087 5.50825 9.5792 5.50825H12.4209C12.7692 5.50825 13.0625 5.79242 13.0625 6.14992C13.0625 6.49825 12.7692 6.79159 12.4209 6.79159ZM13.1359 4.23409H8.8642C8.51587 4.23409 8.2317 3.94075 8.2317 3.59242C8.2317 3.23492 8.51587 2.95075 8.8642 2.95075H13.1359C13.4842 2.95075 13.7684 3.23492 13.7684 3.59242C13.7684 3.94075 13.4842 4.23409 13.1359 4.23409Z" fill="#929292"/>
</svg>
