<svg width="24" height="24" viewBox="0 0 24 24" fill="none" xmlns="http://www.w3.org/2000/svg">
<path d="M16.2917 12.8417V15.7167C16.2917 19.55 14.7584 21.0834 10.9251 21.0834H7.28341C3.45008 21.0834 1.91675 19.55 1.91675 15.7167V12.075C1.91675 8.24171 3.45008 6.70837 7.28341 6.70837H10.1584" stroke="#4A4A4A" stroke-width="1.5" stroke-linecap="round" stroke-linejoin="round"/>
<path d="M16.2917 12.8417H13.225C10.925 12.8417 10.1583 12.075 10.1583 9.77504V6.70837L16.2917 12.8417Z" stroke="#4A4A4A" stroke-width="1.5" stroke-linecap="round" stroke-linejoin="round"/>
<path d="M11.1167 1.91663H14.95" stroke="#4A4A4A" stroke-width="1.5" stroke-linecap="round" stroke-linejoin="round"/>
<path d="M6.70825 4.79163C6.70825 3.20079 7.99242 1.91663 9.58325 1.91663H12.0941" stroke="#4A4A4A" stroke-width="1.5" stroke-linecap="round" stroke-linejoin="round"/>
<path d="M21.0833 7.66663V13.5987C21.0833 15.0841 19.8758 16.2916 18.3904 16.2916" stroke="#4A4A4A" stroke-width="1.5" stroke-linecap="round" stroke-linejoin="round"/>
<path d="M21.0833 7.66663H18.2083C16.052 7.66663 15.3333 6.94788 15.3333 4.79163V1.91663L21.0833 7.66663Z" stroke="#4A4A4A" stroke-width="1.5" stroke-linecap="round" stroke-linejoin="round"/>
</svg>
