<svg width="17" height="17" viewBox="0 0 17 17" fill="none" xmlns="http://www.w3.org/2000/svg">
<path d="M7.61371 1.38428H6.22939C2.76859 1.38428 1.38428 2.76859 1.38428 6.22939V10.3823C1.38428 13.8431 2.76859 15.2275 6.22939 15.2275H10.3823C13.8431 15.2275 15.2275 13.8431 15.2275 10.3823V8.99802" stroke="#292D32" stroke-width="1.28253" stroke-linecap="round" stroke-linejoin="round"/>
<path d="M11.1021 2.09034L5.64793 7.54455C5.44028 7.7522 5.23263 8.16057 5.1911 8.4582L4.89348 10.5416C4.78273 11.2961 5.31569 11.8221 6.07015 11.7183L8.15354 11.4206C8.44425 11.3791 8.85263 11.1715 9.06719 10.9638L14.5214 5.50961C15.4627 4.56827 15.9057 3.47466 14.5214 2.09034C13.1371 0.706024 12.0435 1.14901 11.1021 2.09034Z" stroke="#292D32" stroke-width="1.28253" stroke-miterlimit="10" stroke-linecap="round" stroke-linejoin="round"/>
<path d="M10.3201 2.87256C10.7838 4.52682 12.0782 5.82116 13.7393 6.29182" stroke="#292D32" stroke-width="1.28253" stroke-miterlimit="10" stroke-linecap="round" stroke-linejoin="round"/>
</svg>
