<svg width="23" height="23" viewBox="0 0 23 23" fill="none" xmlns="http://www.w3.org/2000/svg">
<path d="M19.6611 8.05008C18.6608 3.64878 14.8216 1.66724 11.4491 1.66724C11.4491 1.66724 11.4491 1.66724 11.4396 1.66724C8.07671 1.66724 4.22794 3.63925 3.22765 8.04056C2.11303 12.9563 5.12345 17.1194 7.84807 19.7393C8.85789 20.711 10.1535 21.1968 11.4491 21.1968C12.7448 21.1968 14.0404 20.711 15.0407 19.7393C17.7653 17.1194 20.7757 12.9658 19.6611 8.05008ZM11.4491 12.8229C9.7915 12.8229 8.44825 11.4797 8.44825 9.82204C8.44825 8.1644 9.7915 6.82115 11.4491 6.82115C13.1068 6.82115 14.45 8.1644 14.45 9.82204C14.45 11.4797 13.1068 12.8229 11.4491 12.8229Z" fill="#A4A4A4"/>
</svg>
