<svg width="24" height="24" viewBox="0 0 24 24" fill="none" xmlns="http://www.w3.org/2000/svg">
<path d="M11.8911 10.9372C11.795 10.9276 11.6796 10.9276 11.5739 10.9372C9.2859 10.8603 7.46899 8.98569 7.46899 6.6785C7.46899 4.32326 9.37242 2.41022 11.7373 2.41022C14.0925 2.41022 16.0056 4.32326 16.0056 6.6785C15.996 8.98569 14.179 10.8603 11.8911 10.9372Z" stroke="#9195A0" stroke-width="1.59378" stroke-linecap="round" stroke-linejoin="round"/>
<path d="M7.08392 14.4846C4.75751 16.0419 4.75751 18.5798 7.08392 20.1276C9.72756 21.8964 14.0631 21.8964 16.7068 20.1276C19.0332 18.5702 19.0332 16.0323 16.7068 14.4846C14.0728 12.7254 9.73718 12.7254 7.08392 14.4846Z" stroke="#9195A0" stroke-width="1.59378" stroke-linecap="round" stroke-linejoin="round"/>
</svg>
