<svg width="32" height="32" viewBox="0 0 32 32" fill="none" xmlns="http://www.w3.org/2000/svg">
<g opacity="0.4">
<path d="M24.2604 16.4255C20.7788 19.907 18.1486 20.8473 13.5489 22.0671C13.3329 22.1306 13.0915 22.0671 12.9263 21.9019L9.72427 18.6999C9.55909 18.5347 9.49557 18.2806 9.5718 18.0646C10.9187 13.6047 11.8462 10.9744 15.3278 7.49289C19.1524 3.66827 24.883 4.37982 26.4586 4.65936C26.7127 4.71019 26.916 4.90079 26.9668 5.15492C27.2845 6.74321 28.0977 12.6008 24.2731 16.4255H24.2604Z" fill="#44C96C"/>
</g>
<path d="M9.68608 21.9782C10.6391 22.9312 10.5501 24.5576 9.4955 25.6122C8.52981 26.5779 4.85767 27.4927 4.45106 27.5944C4.42565 27.5944 4.40024 27.5944 4.37483 27.5944C4.28588 27.5944 4.20965 27.5563 4.14612 27.5054C4.06988 27.4292 4.03177 27.3149 4.06989 27.2005C4.18424 26.7685 5.22617 22.9439 6.17915 21.9782C6.6747 21.4826 7.32269 21.2031 7.97072 21.2285C8.59333 21.2412 9.20327 21.508 9.6734 21.9782H9.68608ZM19.3175 20.0976C19.3175 20.0976 11.6429 12.423 11.6302 12.423C12.1765 11.3683 12.8246 10.3645 13.6632 9.32262C13.5869 9.27179 13.498 9.24638 13.409 9.27179L10.3976 9.90711C8.11049 10.2756 6.15373 11.8512 5.30241 13.9986L4.08257 17.0354C4.03174 17.137 4.05716 17.2641 4.1334 17.3531C4.19693 17.4293 4.28588 17.4674 4.37483 17.4674C4.40024 17.4674 4.42564 17.4674 4.43834 17.4547L10.1562 16.1841C10.4485 15.2692 10.7407 14.4433 11.0711 13.6555L18.0723 20.644C17.2718 20.9617 16.4332 21.2412 15.5056 21.5207L14.235 27.2259C14.2096 27.3403 14.2477 27.4546 14.3366 27.5309C14.3874 27.5817 14.4637 27.6071 14.5399 27.6071C14.578 27.6071 14.6162 27.5944 14.6543 27.5817L17.6911 26.3619C19.8512 25.5105 21.4268 23.5665 21.7826 21.292L22.4052 18.4077C22.4306 18.3187 22.4052 18.2298 22.3543 18.1536C21.3378 18.9668 20.3595 19.5894 19.3175 20.0976V20.0976ZM19.9401 14.6085C21.5157 14.6085 22.7991 13.3251 22.7991 11.7622C22.7991 10.1994 21.5157 8.91602 19.9401 8.91602C18.3645 8.91602 17.0812 10.1994 17.0812 11.7622C17.0812 13.3251 18.3645 14.6085 19.9401 14.6085Z" fill="#44C96C"/>
</svg>
